<?xml version="1.0" encoding="UTF-8" standalone="no"?><svg xmlns="http://www.w3.org/2000/svg" xmlns:xlink="http://www.w3.org/1999/xlink" clip-rule="evenodd" stroke-miterlimit="10" viewBox="0 0 720 405"><desc>SVG generated by Keynote</desc><defs></defs><g transform="matrix(1.00, 0.00, -0.00, -1.00, 0.0, 405.0)"><path d="M 0.0 405.0 L 720.0 405.0 L 720.0 0.0 L 0.0 0.0 Z M 0.0 405.0 " fill="#FFFFFF"></path><image xlink:href="../../22F37CDA-977A-4F5F-AC8F-7B619332684C/assets/CF5371EDAD41EE4A4DDAC6FB5B300F29.png" width="1920.00" height="108.00" transform="matrix(0.38, 0.00, -0.00, -0.07, 0.0, 405.0)"></image><image xlink:href="../../22F37CDA-977A-4F5F-AC8F-7B619332684C/assets/835323990485373A14BF16A2D952197A.png" width="182.00" height="160.00" transform="matrix(0.37, 0.00, -0.00, -0.37, 642.0, 405.0)"></image><text xml:space="preserve" font-family="Arial-BoldMT,Arial" font-weight="bold" font-size="24.0" fill="#333333" transform="matrix(1.00, 0.00, -0.00, -1.00, 27.4, 363.9)">D</text><text xml:space="preserve" font-family="Arial-BoldMT,Arial" font-weight="bold" font-size="24.0" fill="#333333" transform="matrix(1.00, 0.00, -0.00, -1.00, 44.7, 363.9)">e</text><text xml:space="preserve" font-family="Arial-BoldMT,Arial" font-weight="bold" font-size="24.0" fill="#333333" transform="matrix(1.00, 0.00, -0.00, -1.00, 58.0, 363.9)">m</text><text xml:space="preserve" font-family="Arial-BoldMT,Arial" font-weight="bold" font-size="24.0" fill="#333333" transform="matrix(1.00, 0.00, -0.00, -1.00, 79.4, 363.9)">o</text><text xml:space="preserve" font-family="Arial-BoldMT,Arial" font-weight="bold" font-size="24.0" fill="#333333" transform="matrix(1.00, 0.00, -0.00, -1.00, 94.1, 363.9)"> </text><text xml:space="preserve" font-family="Arial-BoldMT,Arial" font-weight="bold" font-size="24.0" fill="#333333" transform="matrix(1.00, 0.00, -0.00, -1.00, 100.7, 363.9)">#</text><text xml:space="preserve" font-family="Arial-BoldMT,Arial" font-weight="bold" font-size="24.0" fill="#333333" transform="matrix(1.00, 0.00, -0.00, -1.00, 114.1, 363.9)">5</text><text xml:space="preserve" font-family="ArialMT,Arial" font-size="22.0" fill="#333333" transform="matrix(1.00, 0.00, -0.00, -1.00, 27.2, 312.4)">•</text><text xml:space="preserve" font-family="ArialMT,Arial" font-size="22.0" fill="#333333" transform="matrix(1.00, 0.00, -0.00, -1.00, 54.2, 312.4)">A</text><text xml:space="preserve" font-family="ArialMT,Arial" font-size="22.0" fill="#333333" transform="matrix(1.00, 0.00, -0.00, -1.00, 68.9, 312.4)">c</text><text xml:space="preserve" font-family="ArialMT,Arial" font-size="22.0" fill="#333333" transform="matrix(1.00, 0.00, -0.00, -1.00, 79.9, 312.4)">c</text><text xml:space="preserve" font-family="ArialMT,Arial" font-size="22.0" fill="#333333" transform="matrix(1.00, 0.00, -0.00, -1.00, 90.9, 312.4)">o</text><text xml:space="preserve" font-family="ArialMT,Arial" font-size="22.0" fill="#333333" transform="matrix(1.00, 0.00, -0.00, -1.00, 103.1, 312.4)">u</text><text xml:space="preserve" font-family="ArialMT,Arial" font-size="22.0" fill="#333333" transform="matrix(1.00, 0.00, -0.00, -1.00, 115.3, 312.4)">n</text><text xml:space="preserve" font-family="ArialMT,Arial" font-size="22.0" fill="#333333" transform="matrix(1.00, 0.00, -0.00, -1.00, 127.6, 312.4)">t</text><text xml:space="preserve" font-family="ArialMT,Arial" font-size="22.0" fill="#333333" transform="matrix(1.00, 0.00, -0.00, -1.00, 133.7, 312.4)">S</text><text xml:space="preserve" font-family="ArialMT,Arial" font-size="22.0" fill="#333333" transform="matrix(1.00, 0.00, -0.00, -1.00, 148.4, 312.4)">p</text><text xml:space="preserve" font-family="ArialMT,Arial" font-size="22.0" fill="#333333" transform="matrix(1.00, 0.00, -0.00, -1.00, 160.6, 312.4)">e</text><text xml:space="preserve" font-family="ArialMT,Arial" font-size="22.0" fill="#333333" transform="matrix(1.00, 0.00, -0.00, -1.00, 172.8, 312.4)">c</text><text xml:space="preserve" font-family="ArialMT,Arial" font-size="22.0" fill="#333333" transform="matrix(1.00, 0.00, -0.00, -1.00, 183.8, 312.4)"> </text><text xml:space="preserve" font-family="ArialMT,Arial" font-size="22.0" fill="#333333" transform="matrix(1.00, 0.00, -0.00, -1.00, 189.9, 312.4)">D</text><text xml:space="preserve" font-family="ArialMT,Arial" font-size="22.0" fill="#333333" transform="matrix(1.00, 0.00, -0.00, -1.00, 205.8, 312.4)">e</text><text xml:space="preserve" font-family="ArialMT,Arial" font-size="22.0" fill="#333333" transform="matrix(1.00, 0.00, -0.00, -1.00, 218.1, 312.4)">m</text><text xml:space="preserve" font-family="ArialMT,Arial" font-size="22.0" fill="#333333" transform="matrix(1.00, 0.00, -0.00, -1.00, 236.4, 312.4)">o</text><text xml:space="preserve" font-family="ArialMT,Arial" font-size="22.0" fill="#333333" transform="matrix(1.00, 0.00, -0.00, -1.00, 248.6, 312.4)"> </text><text xml:space="preserve" font-family="ArialMT,Arial" font-size="18.0" fill="#333333" transform="matrix(1.00, 0.00, -0.00, -1.00, 63.2, 258.8)">•</text><text xml:space="preserve" font-family="ArialMT,Arial" font-size="18.0" fill="#333333" transform="matrix(1.00, 0.00, -0.00, -1.00, 90.2, 258.8)">D</text><text xml:space="preserve" font-family="ArialMT,Arial" font-size="18.0" fill="#333333" transform="matrix(1.00, 0.00, -0.00, -1.00, 103.2, 258.8)">a</text><text xml:space="preserve" font-family="ArialMT,Arial" font-size="18.0" fill="#333333" transform="matrix(1.00, 0.00, -0.00, -1.00, 113.2, 258.8)">t</text><text xml:space="preserve" font-family="ArialMT,Arial" font-size="18.0" fill="#333333" transform="matrix(1.00, 0.00, -0.00, -1.00, 118.2, 258.8)">a</text><text xml:space="preserve" font-family="ArialMT,Arial" font-size="18.0" fill="#333333" transform="matrix(1.00, 0.00, -0.00, -1.00, 128.2, 258.8)">-</text><text xml:space="preserve" font-family="ArialMT,Arial" font-size="18.0" fill="#333333" transform="matrix(1.00, 0.00, -0.00, -1.00, 134.2, 258.8)">D</text><text xml:space="preserve" font-family="ArialMT,Arial" font-size="18.0" fill="#333333" transform="matrix(1.00, 0.00, -0.00, -1.00, 147.2, 258.8)">r</text><text xml:space="preserve" font-family="ArialMT,Arial" font-size="18.0" fill="#333333" transform="matrix(1.00, 0.00, -0.00, -1.00, 153.2, 258.8)">i</text><text xml:space="preserve" font-family="ArialMT,Arial" font-size="18.0" fill="#333333" transform="matrix(1.00, 0.00, -0.00, -1.00, 157.2, 258.8)">v</text><text xml:space="preserve" font-family="ArialMT,Arial" font-size="18.0" fill="#333333" transform="matrix(1.00, 0.00, -0.00, -1.00, 166.2, 258.8)">e</text><text xml:space="preserve" font-family="ArialMT,Arial" font-size="18.0" fill="#333333" transform="matrix(1.00, 0.00, -0.00, -1.00, 176.2, 258.8)">n</text><text xml:space="preserve" font-family="ArialMT,Arial" font-size="18.0" fill="#333333" transform="matrix(1.00, 0.00, -0.00, -1.00, 186.2, 258.8)"> </text><text xml:space="preserve" font-family="ArialMT,Arial" font-size="18.0" fill="#333333" transform="matrix(1.00, 0.00, -0.00, -1.00, 191.2, 258.8)">S</text><text xml:space="preserve" font-family="ArialMT,Arial" font-size="18.0" fill="#333333" transform="matrix(1.00, 0.00, -0.00, -1.00, 203.2, 258.8)">p</text><text xml:space="preserve" font-family="ArialMT,Arial" font-size="18.0" fill="#333333" transform="matrix(1.00, 0.00, -0.00, -1.00, 213.3, 258.8)">o</text><text xml:space="preserve" font-family="ArialMT,Arial" font-size="18.0" fill="#333333" transform="matrix(1.00, 0.00, -0.00, -1.00, 223.3, 258.8)">c</text><text xml:space="preserve" font-family="ArialMT,Arial" font-size="18.0" fill="#333333" transform="matrix(1.00, 0.00, -0.00, -1.00, 232.3, 258.8)">k</text><text xml:space="preserve" font-family="ArialMT,Arial" font-size="18.0" fill="#333333" transform="matrix(1.00, 0.00, -0.00, -1.00, 241.3, 258.8)"> </text><text xml:space="preserve" font-family="ArialMT,Arial" font-size="18.0" fill="#333333" transform="matrix(1.00, 0.00, -0.00, -1.00, 246.3, 258.8)">t</text><text xml:space="preserve" font-family="ArialMT,Arial" font-size="18.0" fill="#333333" transform="matrix(1.00, 0.00, -0.00, -1.00, 251.3, 258.8)">e</text><text xml:space="preserve" font-family="ArialMT,Arial" font-size="18.0" fill="#333333" transform="matrix(1.00, 0.00, -0.00, -1.00, 261.3, 258.8)">s</text><text xml:space="preserve" font-family="ArialMT,Arial" font-size="18.0" fill="#333333" transform="matrix(1.00, 0.00, -0.00, -1.00, 270.3, 258.8)">t</text><text xml:space="preserve" font-family="ArialMT,Arial" font-size="18.0" fill="#333333" transform="matrix(1.00, 0.00, -0.00, -1.00, 275.3, 258.8)"> </text><text xml:space="preserve" font-family="ArialMT,Arial" font-size="18.0" fill="#333333" transform="matrix(1.00, 0.00, -0.00, -1.00, 280.3, 258.8)">f</text><text xml:space="preserve" font-family="ArialMT,Arial" font-size="18.0" fill="#333333" transform="matrix(1.00, 0.00, -0.00, -1.00, 285.3, 258.8)">o</text><text xml:space="preserve" font-family="ArialMT,Arial" font-size="18.0" fill="#333333" transform="matrix(1.00, 0.00, -0.00, -1.00, 295.3, 258.8)">r</text><text xml:space="preserve" font-family="ArialMT,Arial" font-size="18.0" fill="#333333" transform="matrix(1.00, 0.00, -0.00, -1.00, 301.3, 258.8)"> </text><text xml:space="preserve" font-family="ArialMT,Arial" font-size="18.0" fill="#333333" transform="matrix(1.00, 0.00, -0.00, -1.00, 306.3, 258.8)">d</text><text xml:space="preserve" font-family="ArialMT,Arial" font-size="18.0" fill="#333333" transform="matrix(1.00, 0.00, -0.00, -1.00, 316.3, 258.8)">a</text><text xml:space="preserve" font-family="ArialMT,Arial" font-size="18.0" fill="#333333" transform="matrix(1.00, 0.00, -0.00, -1.00, 326.3, 258.8)">t</text><text xml:space="preserve" font-family="ArialMT,Arial" font-size="18.0" fill="#333333" transform="matrix(1.00, 0.00, -0.00, -1.00, 331.3, 258.8)">a</text><text xml:space="preserve" font-family="ArialMT,Arial" font-size="18.0" fill="#333333" transform="matrix(1.00, 0.00, -0.00, -1.00, 341.3, 258.8)"> </text><text xml:space="preserve" font-family="ArialMT,Arial" font-size="18.0" fill="#333333" transform="matrix(1.00, 0.00, -0.00, -1.00, 346.3, 258.8)">e</text><text xml:space="preserve" font-family="ArialMT,Arial" font-size="18.0" fill="#333333" transform="matrix(1.00, 0.00, -0.00, -1.00, 356.3, 258.8)">n</text><text xml:space="preserve" font-family="ArialMT,Arial" font-size="18.0" fill="#333333" transform="matrix(1.00, 0.00, -0.00, -1.00, 366.3, 258.8)">t</text><text xml:space="preserve" font-family="ArialMT,Arial" font-size="18.0" fill="#333333" transform="matrix(1.00, 0.00, -0.00, -1.00, 371.3, 258.8)">r</text><text xml:space="preserve" font-family="ArialMT,Arial" font-size="18.0" fill="#333333" transform="matrix(1.00, 0.00, -0.00, -1.00, 377.3, 258.8)">y</text><text xml:space="preserve" font-family="ArialMT,Arial" font-size="18.0" fill="#333333" transform="matrix(1.00, 0.00, -0.00, -1.00, 386.3, 258.8)"> </text><text xml:space="preserve" font-family="ArialMT,Arial" font-size="18.0" fill="#333333" transform="matrix(1.00, 0.00, -0.00, -1.00, 391.3, 258.8)">t</text><text xml:space="preserve" font-family="ArialMT,Arial" font-size="18.0" fill="#333333" transform="matrix(1.00, 0.00, -0.00, -1.00, 396.3, 258.8)">o</text><text xml:space="preserve" font-family="ArialMT,Arial" font-size="18.0" fill="#333333" transform="matrix(1.00, 0.00, -0.00, -1.00, 406.3, 258.8)"> </text><text xml:space="preserve" font-family="ArialMT,Arial" font-size="18.0" fill="#333333" transform="matrix(1.00, 0.00, -0.00, -1.00, 411.3, 258.8)">c</text><text xml:space="preserve" font-family="ArialMT,Arial" font-size="18.0" fill="#333333" transform="matrix(1.00, 0.00, -0.00, -1.00, 420.3, 258.8)">r</text><text xml:space="preserve" font-family="ArialMT,Arial" font-size="18.0" fill="#333333" transform="matrix(1.00, 0.00, -0.00, -1.00, 426.3, 258.8)">e</text><text xml:space="preserve" font-family="ArialMT,Arial" font-size="18.0" fill="#333333" transform="matrix(1.00, 0.00, -0.00, -1.00, 436.4, 258.8)">a</text><text xml:space="preserve" font-family="ArialMT,Arial" font-size="18.0" fill="#333333" transform="matrix(1.00, 0.00, -0.00, -1.00, 446.4, 258.8)">t</text><text xml:space="preserve" font-family="ArialMT,Arial" font-size="18.0" fill="#333333" transform="matrix(1.00, 0.00, -0.00, -1.00, 451.4, 258.8)">e</text><text xml:space="preserve" font-family="ArialMT,Arial" font-size="18.0" fill="#333333" transform="matrix(1.00, 0.00, -0.00, -1.00, 461.4, 258.8)"> </text><text xml:space="preserve" font-family="ArialMT,Arial" font-size="18.0" fill="#333333" transform="matrix(1.00, 0.00, -0.00, -1.00, 466.4, 258.8)">a</text><text xml:space="preserve" font-family="ArialMT,Arial" font-size="18.0" fill="#333333" transform="matrix(1.00, 0.00, -0.00, -1.00, 476.4, 258.8)">n</text><text xml:space="preserve" font-family="ArialMT,Arial" font-size="18.0" fill="#333333" transform="matrix(1.00, 0.00, -0.00, -1.00, 486.4, 258.8)"> </text><text xml:space="preserve" font-family="ArialMT,Arial" font-size="18.0" fill="#333333" transform="matrix(1.00, 0.00, -0.00, -1.00, 491.4, 258.8)">a</text><text xml:space="preserve" font-family="ArialMT,Arial" font-size="18.0" fill="#333333" transform="matrix(1.00, 0.00, -0.00, -1.00, 501.4, 258.8)">c</text><text xml:space="preserve" font-family="ArialMT,Arial" font-size="18.0" fill="#333333" transform="matrix(1.00, 0.00, -0.00, -1.00, 510.4, 258.8)">c</text><text xml:space="preserve" font-family="ArialMT,Arial" font-size="18.0" fill="#333333" transform="matrix(1.00, 0.00, -0.00, -1.00, 519.4, 258.8)">o</text><text xml:space="preserve" font-family="ArialMT,Arial" font-size="18.0" fill="#333333" transform="matrix(1.00, 0.00, -0.00, -1.00, 529.4, 258.8)">u</text><text xml:space="preserve" font-family="ArialMT,Arial" font-size="18.0" fill="#333333" transform="matrix(1.00, 0.00, -0.00, -1.00, 539.4, 258.8)">n</text><text xml:space="preserve" font-family="ArialMT,Arial" font-size="18.0" fill="#333333" transform="matrix(1.00, 0.00, -0.00, -1.00, 549.5, 258.8)">t</text><text xml:space="preserve" font-family="ArialMT,Arial" font-size="18.0" fill="#333333" transform="matrix(1.00, 0.00, -0.00, -1.00, 554.5, 258.8)"> </text><text xml:space="preserve" font-family="ArialMT,Arial" font-size="18.0" fill="#333333" transform="matrix(1.00, 0.00, -0.00, -1.00, 63.2, 232.6)">•</text><text xml:space="preserve" font-family="ArialMT,Arial" font-size="18.0" fill="#333333" transform="matrix(1.00, 0.00, -0.00, -1.00, 90.2, 232.6)">T</text><text xml:space="preserve" font-family="ArialMT,Arial" font-size="18.0" fill="#333333" transform="matrix(1.00, 0.00, -0.00, -1.00, 99.2, 232.6)">e</text><text xml:space="preserve" font-family="ArialMT,Arial" font-size="18.0" fill="#333333" transform="matrix(1.00, 0.00, -0.00, -1.00, 109.2, 232.6)">s</text><text xml:space="preserve" font-family="ArialMT,Arial" font-size="18.0" fill="#333333" transform="matrix(1.00, 0.00, -0.00, -1.00, 118.2, 232.6)">t</text><text xml:space="preserve" font-family="ArialMT,Arial" font-size="18.0" fill="#333333" transform="matrix(1.00, 0.00, -0.00, -1.00, 123.2, 232.6)">s</text><text xml:space="preserve" font-family="ArialMT,Arial" font-size="18.0" fill="#333333" transform="matrix(1.00, 0.00, -0.00, -1.00, 132.2, 232.6)"> </text><text xml:space="preserve" font-family="ArialMT,Arial" font-size="18.0" fill="#333333" transform="matrix(1.00, 0.00, -0.00, -1.00, 137.2, 232.6)">b</text><text xml:space="preserve" font-family="ArialMT,Arial" font-size="18.0" fill="#333333" transform="matrix(1.00, 0.00, -0.00, -1.00, 147.2, 232.6)">l</text><text xml:space="preserve" font-family="ArialMT,Arial" font-size="18.0" fill="#333333" transform="matrix(1.00, 0.00, -0.00, -1.00, 151.2, 232.6)">a</text><text xml:space="preserve" font-family="ArialMT,Arial" font-size="18.0" fill="#333333" transform="matrix(1.00, 0.00, -0.00, -1.00, 161.2, 232.6)">n</text><text xml:space="preserve" font-family="ArialMT,Arial" font-size="18.0" fill="#333333" transform="matrix(1.00, 0.00, -0.00, -1.00, 171.2, 232.6)">k</text><text xml:space="preserve" font-family="ArialMT,Arial" font-size="18.0" fill="#333333" transform="matrix(1.00, 0.00, -0.00, -1.00, 180.2, 232.6)"> </text><text xml:space="preserve" font-family="ArialMT,Arial" font-size="18.0" fill="#333333" transform="matrix(1.00, 0.00, -0.00, -1.00, 185.2, 232.6)">p</text><text xml:space="preserve" font-family="ArialMT,Arial" font-size="18.0" fill="#333333" transform="matrix(1.00, 0.00, -0.00, -1.00, 195.3, 232.6)">a</text><text xml:space="preserve" font-family="ArialMT,Arial" font-size="18.0" fill="#333333" transform="matrix(1.00, 0.00, -0.00, -1.00, 205.3, 232.6)">s</text><text xml:space="preserve" font-family="ArialMT,Arial" font-size="18.0" fill="#333333" transform="matrix(1.00, 0.00, -0.00, -1.00, 214.3, 232.6)">s</text><text xml:space="preserve" font-family="ArialMT,Arial" font-size="18.0" fill="#333333" transform="matrix(1.00, 0.00, -0.00, -1.00, 223.3, 232.6)">w</text><text xml:space="preserve" font-family="ArialMT,Arial" font-size="18.0" fill="#333333" transform="matrix(1.00, 0.00, -0.00, -1.00, 236.3, 232.6)">o</text><text xml:space="preserve" font-family="ArialMT,Arial" font-size="18.0" fill="#333333" transform="matrix(1.00, 0.00, -0.00, -1.00, 246.3, 232.6)">r</text><text xml:space="preserve" font-family="ArialMT,Arial" font-size="18.0" fill="#333333" transform="matrix(1.00, 0.00, -0.00, -1.00, 252.3, 232.6)">d</text><text xml:space="preserve" font-family="ArialMT,Arial" font-size="18.0" fill="#333333" transform="matrix(1.00, 0.00, -0.00, -1.00, 262.3, 232.6)">s</text><text xml:space="preserve" font-family="ArialMT,Arial" font-size="18.0" fill="#333333" transform="matrix(1.00, 0.00, -0.00, -1.00, 271.3, 232.6)"> </text><text xml:space="preserve" font-family="ArialMT,Arial" font-size="18.0" fill="#333333" transform="matrix(1.00, 0.00, -0.00, -1.00, 63.2, 206.3)">•</text><text xml:space="preserve" font-family="ArialMT,Arial" font-size="18.0" fill="#333333" transform="matrix(1.00, 0.00, -0.00, -1.00, 90.2, 206.3)">T</text><text xml:space="preserve" font-family="ArialMT,Arial" font-size="18.0" fill="#333333" transform="matrix(1.00, 0.00, -0.00, -1.00, 99.2, 206.3)">e</text><text xml:space="preserve" font-family="ArialMT,Arial" font-size="18.0" fill="#333333" transform="matrix(1.00, 0.00, -0.00, -1.00, 109.2, 206.3)">s</text><text xml:space="preserve" font-family="ArialMT,Arial" font-size="18.0" fill="#333333" transform="matrix(1.00, 0.00, -0.00, -1.00, 118.2, 206.3)">t</text><text xml:space="preserve" font-family="ArialMT,Arial" font-size="18.0" fill="#333333" transform="matrix(1.00, 0.00, -0.00, -1.00, 123.2, 206.3)">s</text><text xml:space="preserve" font-family="ArialMT,Arial" font-size="18.0" fill="#333333" transform="matrix(1.00, 0.00, -0.00, -1.00, 132.2, 206.3)"> </text><text xml:space="preserve" font-family="ArialMT,Arial" font-size="18.0" fill="#333333" transform="matrix(1.00, 0.00, -0.00, -1.00, 137.2, 206.3)">p</text><text xml:space="preserve" font-family="ArialMT,Arial" font-size="18.0" fill="#333333" transform="matrix(1.00, 0.00, -0.00, -1.00, 147.2, 206.3)">a</text><text xml:space="preserve" font-family="ArialMT,Arial" font-size="18.0" fill="#333333" transform="matrix(1.00, 0.00, -0.00, -1.00, 157.2, 206.3)">s</text><text xml:space="preserve" font-family="ArialMT,Arial" font-size="18.0" fill="#333333" transform="matrix(1.00, 0.00, -0.00, -1.00, 166.2, 206.3)">s</text><text xml:space="preserve" font-family="ArialMT,Arial" font-size="18.0" fill="#333333" transform="matrix(1.00, 0.00, -0.00, -1.00, 175.2, 206.3)">w</text><text xml:space="preserve" font-family="ArialMT,Arial" font-size="18.0" fill="#333333" transform="matrix(1.00, 0.00, -0.00, -1.00, 188.2, 206.3)">o</text><text xml:space="preserve" font-family="ArialMT,Arial" font-size="18.0" fill="#333333" transform="matrix(1.00, 0.00, -0.00, -1.00, 198.2, 206.3)">r</text><text xml:space="preserve" font-family="ArialMT,Arial" font-size="18.0" fill="#333333" transform="matrix(1.00, 0.00, -0.00, -1.00, 204.2, 206.3)">d</text><text xml:space="preserve" font-family="ArialMT,Arial" font-size="18.0" fill="#333333" transform="matrix(1.00, 0.00, -0.00, -1.00, 214.2, 206.3)"> </text><text xml:space="preserve" font-family="ArialMT,Arial" font-size="18.0" fill="#333333" transform="matrix(1.00, 0.00, -0.00, -1.00, 219.2, 206.3)">c</text><text xml:space="preserve" font-family="ArialMT,Arial" font-size="18.0" fill="#333333" transform="matrix(1.00, 0.00, -0.00, -1.00, 228.2, 206.3)">o</text><text xml:space="preserve" font-family="ArialMT,Arial" font-size="18.0" fill="#333333" transform="matrix(1.00, 0.00, -0.00, -1.00, 238.3, 206.3)">n</text><text xml:space="preserve" font-family="ArialMT,Arial" font-size="18.0" fill="#333333" transform="matrix(1.00, 0.00, -0.00, -1.00, 248.3, 206.3)">f</text><text xml:space="preserve" font-family="ArialMT,Arial" font-size="18.0" fill="#333333" transform="matrix(1.00, 0.00, -0.00, -1.00, 253.3, 206.3)">i</text><text xml:space="preserve" font-family="ArialMT,Arial" font-size="18.0" fill="#333333" transform="matrix(1.00, 0.00, -0.00, -1.00, 257.3, 206.3)">r</text><text xml:space="preserve" font-family="ArialMT,Arial" font-size="18.0" fill="#333333" transform="matrix(1.00, 0.00, -0.00, -1.00, 263.3, 206.3)">m</text><text xml:space="preserve" font-family="ArialMT,Arial" font-size="18.0" fill="#333333" transform="matrix(1.00, 0.00, -0.00, -1.00, 278.3, 206.3)">a</text><text xml:space="preserve" font-family="ArialMT,Arial" font-size="18.0" fill="#333333" transform="matrix(1.00, 0.00, -0.00, -1.00, 288.3, 206.3)">t</text><text xml:space="preserve" font-family="ArialMT,Arial" font-size="18.0" fill="#333333" transform="matrix(1.00, 0.00, -0.00, -1.00, 293.3, 206.3)">i</text><text xml:space="preserve" font-family="ArialMT,Arial" font-size="18.0" fill="#333333" transform="matrix(1.00, 0.00, -0.00, -1.00, 297.3, 206.3)">o</text><text xml:space="preserve" font-family="ArialMT,Arial" font-size="18.0" fill="#333333" transform="matrix(1.00, 0.00, -0.00, -1.00, 307.3, 206.3)">n</text><text xml:space="preserve" font-family="ArialMT,Arial" font-size="18.0" fill="#333333" transform="matrix(1.00, 0.00, -0.00, -1.00, 317.3, 206.3)"> </text><text xml:space="preserve" font-family="ArialMT,Arial" font-size="18.0" fill="#333333" transform="matrix(1.00, 0.00, -0.00, -1.00, 322.3, 206.3)">f</text><text xml:space="preserve" font-family="ArialMT,Arial" font-size="18.0" fill="#333333" transform="matrix(1.00, 0.00, -0.00, -1.00, 327.3, 206.3)">i</text><text xml:space="preserve" font-family="ArialMT,Arial" font-size="18.0" fill="#333333" transform="matrix(1.00, 0.00, -0.00, -1.00, 331.3, 206.3)">e</text><text xml:space="preserve" font-family="ArialMT,Arial" font-size="18.0" fill="#333333" transform="matrix(1.00, 0.00, -0.00, -1.00, 341.3, 206.3)">l</text><text xml:space="preserve" font-family="ArialMT,Arial" font-size="18.0" fill="#333333" transform="matrix(1.00, 0.00, -0.00, -1.00, 345.3, 206.3)">d</text><text xml:space="preserve" font-family="ArialMT,Arial" font-size="12.0" fill="#333333" transform="matrix(1.00, 0.00, -0.00, -1.00, 680.0, 10.0)">2</text><text xml:space="preserve" font-family="ArialMT,Arial" font-size="12.0" fill="#333333" transform="matrix(1.00, 0.00, -0.00, -1.00, 686.7, 10.0)">3</text></g></svg>