<?xml version="1.0" encoding="UTF-8" standalone="no"?><svg xmlns="http://www.w3.org/2000/svg" xmlns:xlink="http://www.w3.org/1999/xlink" clip-rule="evenodd" stroke-miterlimit="10" viewBox="0 0 720 405"><desc>SVG generated by Keynote</desc><defs></defs><g transform="matrix(1.00, 0.00, -0.00, -1.00, 0.0, 405.0)"><path d="M 0.0 405.0 L 720.0 405.0 L 720.0 0.0 L 0.0 0.0 Z M 0.0 405.0 " fill="#FFFFFF"></path><image xlink:href="../../22F37CDA-977A-4F5F-AC8F-7B619332684C/assets/CF5371EDAD41EE4A4DDAC6FB5B300F29.png" width="1920.00" height="108.00" transform="matrix(0.38, 0.00, -0.00, -0.07, 0.0, 405.0)"></image><image xlink:href="../../22F37CDA-977A-4F5F-AC8F-7B619332684C/assets/835323990485373A14BF16A2D952197A.png" width="182.00" height="160.00" transform="matrix(0.37, 0.00, -0.00, -0.37, 642.0, 405.0)"></image><text xml:space="preserve" font-family="ArialMT,Arial" font-size="32.0" fill="#333333" transform="matrix(1.00, 0.00, -0.00, -1.00, 199.0, 208.3)">C</text><text xml:space="preserve" font-family="ArialMT,Arial" font-size="32.0" fill="#333333" transform="matrix(1.00, 0.00, -0.00, -1.00, 222.1, 208.3)">o</text><text xml:space="preserve" font-family="ArialMT,Arial" font-size="32.0" fill="#333333" transform="matrix(1.00, 0.00, -0.00, -1.00, 239.9, 208.3)">n</text><text xml:space="preserve" font-family="ArialMT,Arial" font-size="32.0" fill="#333333" transform="matrix(1.00, 0.00, -0.00, -1.00, 257.7, 208.3)">t</text><text xml:space="preserve" font-family="ArialMT,Arial" font-size="32.0" fill="#333333" transform="matrix(1.00, 0.00, -0.00, -1.00, 266.6, 208.3)">i</text><text xml:space="preserve" font-family="ArialMT,Arial" font-size="32.0" fill="#333333" transform="matrix(1.00, 0.00, -0.00, -1.00, 273.7, 208.3)">n</text><text xml:space="preserve" font-family="ArialMT,Arial" font-size="32.0" fill="#333333" transform="matrix(1.00, 0.00, -0.00, -1.00, 291.5, 208.3)">u</text><text xml:space="preserve" font-family="ArialMT,Arial" font-size="32.0" fill="#333333" transform="matrix(1.00, 0.00, -0.00, -1.00, 309.3, 208.3)">o</text><text xml:space="preserve" font-family="ArialMT,Arial" font-size="32.0" fill="#333333" transform="matrix(1.00, 0.00, -0.00, -1.00, 327.1, 208.3)">u</text><text xml:space="preserve" font-family="ArialMT,Arial" font-size="32.0" fill="#333333" transform="matrix(1.00, 0.00, -0.00, -1.00, 344.9, 208.3)">s</text><text xml:space="preserve" font-family="ArialMT,Arial" font-size="32.0" fill="#333333" transform="matrix(1.00, 0.00, -0.00, -1.00, 360.9, 208.3)"> </text><text xml:space="preserve" font-family="ArialMT,Arial" font-size="32.0" fill="#333333" transform="matrix(1.00, 0.00, -0.00, -1.00, 369.8, 208.3)">I</text><text xml:space="preserve" font-family="ArialMT,Arial" font-size="32.0" fill="#333333" transform="matrix(1.00, 0.00, -0.00, -1.00, 378.7, 208.3)">n</text><text xml:space="preserve" font-family="ArialMT,Arial" font-size="32.0" fill="#333333" transform="matrix(1.00, 0.00, -0.00, -1.00, 396.5, 208.3)">t</text><text xml:space="preserve" font-family="ArialMT,Arial" font-size="32.0" fill="#333333" transform="matrix(1.00, 0.00, -0.00, -1.00, 405.4, 208.3)">e</text><text xml:space="preserve" font-family="ArialMT,Arial" font-size="32.0" fill="#333333" transform="matrix(1.00, 0.00, -0.00, -1.00, 423.2, 208.3)">g</text><text xml:space="preserve" font-family="ArialMT,Arial" font-size="32.0" fill="#333333" transform="matrix(1.00, 0.00, -0.00, -1.00, 441.0, 208.3)">r</text><text xml:space="preserve" font-family="ArialMT,Arial" font-size="32.0" fill="#333333" transform="matrix(1.00, 0.00, -0.00, -1.00, 451.7, 208.3)">a</text><text xml:space="preserve" font-family="ArialMT,Arial" font-size="32.0" fill="#333333" transform="matrix(1.00, 0.00, -0.00, -1.00, 469.5, 208.3)">t</text><text xml:space="preserve" font-family="ArialMT,Arial" font-size="32.0" fill="#333333" transform="matrix(1.00, 0.00, -0.00, -1.00, 478.3, 208.3)">i</text><text xml:space="preserve" font-family="ArialMT,Arial" font-size="32.0" fill="#333333" transform="matrix(1.00, 0.00, -0.00, -1.00, 485.5, 208.3)">o</text><text xml:space="preserve" font-family="ArialMT,Arial" font-size="32.0" fill="#333333" transform="matrix(1.00, 0.00, -0.00, -1.00, 503.3, 208.3)">n</text><text xml:space="preserve" font-family="ArialMT,Arial" font-size="12.0" fill="#333333" transform="matrix(1.00, 0.00, -0.00, -1.00, 680.0, 10.0)">2</text><text xml:space="preserve" font-family="ArialMT,Arial" font-size="12.0" fill="#333333" transform="matrix(1.00, 0.00, -0.00, -1.00, 686.7, 10.0)">4</text></g></svg>