<?xml version="1.0" encoding="UTF-8" standalone="no"?><svg xmlns="http://www.w3.org/2000/svg" xmlns:xlink="http://www.w3.org/1999/xlink" clip-rule="evenodd" stroke-miterlimit="10" viewBox="0 0 720 405"><desc>SVG generated by Keynote</desc><defs></defs><g transform="matrix(1.00, 0.00, -0.00, -1.00, 0.0, 405.0)"><path d="M 0.0 405.0 L 720.0 405.0 L 720.0 0.0 L 0.0 0.0 Z M 0.0 405.0 " fill="#FFFFFF"></path><image xlink:href="CF5371EDAD41EE4A4DDAC6FB5B300F29.png" width="1920.00" height="108.00" transform="matrix(0.38, 0.00, -0.00, -0.07, 0.0, 405.0)"></image><image xlink:href="835323990485373A14BF16A2D952197A.png" width="182.00" height="160.00" transform="matrix(0.37, 0.00, -0.00, -0.37, 642.0, 405.0)"></image><image xlink:href="227A775E19647BCD5D2681D0E291E656.png" width="1920.00" height="1080.00" transform="matrix(0.38, 0.00, -0.00, -0.38, 0.0, 405.0)"></image><path d="M 0.0 28.0 L 720.0 28.0 L 720.0 0.0 L 0.0 0.0 Z M 0.0 28.5 " fill="#333333"></path><text xml:space="preserve" font-family="ArialMT,Arial" font-size="8.0" fill="#FFFFFF" transform="matrix(1.00, 0.00, -0.00, -1.00, 27.6, 11.6)">©</text><text xml:space="preserve" font-family="ArialMT,Arial" font-size="8.0" fill="#FFFFFF" transform="matrix(1.00, 0.00, -0.00, -1.00, 33.5, 11.6)"> </text><text xml:space="preserve" font-family="ArialMT,Arial" font-size="8.0" fill="#FFFFFF" transform="matrix(1.00, 0.00, -0.00, -1.00, 35.7, 11.6)">2</text><text xml:space="preserve" font-family="ArialMT,Arial" font-size="8.0" fill="#FFFFFF" transform="matrix(1.00, 0.00, -0.00, -1.00, 40.2, 11.6)">0</text><text xml:space="preserve" font-family="ArialMT,Arial" font-size="8.0" fill="#FFFFFF" transform="matrix(1.00, 0.00, -0.00, -1.00, 44.6, 11.6)">1</text><text xml:space="preserve" font-family="ArialMT,Arial" font-size="8.0" fill="#FFFFFF" transform="matrix(1.00, 0.00, -0.00, -1.00, 49.1, 11.6)">4</text><text xml:space="preserve" font-family="ArialMT,Arial" font-size="8.0" fill="#FFFFFF" transform="matrix(1.00, 0.00, -0.00, -1.00, 53.5, 11.6)"> </text><text xml:space="preserve" font-family="ArialMT,Arial" font-size="8.0" fill="#FFFFFF" transform="matrix(1.00, 0.00, -0.00, -1.00, 55.7, 11.6)">S</text><text xml:space="preserve" font-family="ArialMT,Arial" font-size="8.0" fill="#FFFFFF" transform="matrix(1.00, 0.00, -0.00, -1.00, 61.1, 11.6)">p</text><text xml:space="preserve" font-family="ArialMT,Arial" font-size="8.0" fill="#FFFFFF" transform="matrix(1.00, 0.00, -0.00, -1.00, 65.5, 11.6)">r</text><text xml:space="preserve" font-family="ArialMT,Arial" font-size="8.0" fill="#FFFFFF" transform="matrix(1.00, 0.00, -0.00, -1.00, 68.2, 11.6)">i</text><text xml:space="preserve" font-family="ArialMT,Arial" font-size="8.0" fill="#FFFFFF" transform="matrix(1.00, 0.00, -0.00, -1.00, 70.0, 11.6)">n</text><text xml:space="preserve" font-family="ArialMT,Arial" font-size="8.0" fill="#FFFFFF" transform="matrix(1.00, 0.00, -0.00, -1.00, 74.4, 11.6)">g</text><text xml:space="preserve" font-family="ArialMT,Arial" font-size="8.0" fill="#FFFFFF" transform="matrix(1.00, 0.00, -0.00, -1.00, 78.9, 11.6)">O</text><text xml:space="preserve" font-family="ArialMT,Arial" font-size="8.0" fill="#FFFFFF" transform="matrix(1.00, 0.00, -0.00, -1.00, 85.1, 11.6)">n</text><text xml:space="preserve" font-family="ArialMT,Arial" font-size="8.0" fill="#FFFFFF" transform="matrix(1.00, 0.00, -0.00, -1.00, 89.5, 11.6)">e</text><text xml:space="preserve" font-family="ArialMT,Arial" font-size="8.0" fill="#FFFFFF" transform="matrix(1.00, 0.00, -0.00, -1.00, 94.0, 11.6)"> </text><text xml:space="preserve" font-family="ArialMT,Arial" font-size="8.0" fill="#FFFFFF" transform="matrix(1.00, 0.00, -0.00, -1.00, 96.2, 11.6)">2</text><text xml:space="preserve" font-family="ArialMT,Arial" font-size="8.0" fill="#FFFFFF" transform="matrix(1.00, 0.00, -0.00, -1.00, 100.7, 11.6)">G</text><text xml:space="preserve" font-family="ArialMT,Arial" font-size="8.0" fill="#FFFFFF" transform="matrix(1.00, 0.00, -0.00, -1.00, 106.9, 11.6)">X</text><text xml:space="preserve" font-family="ArialMT,Arial" font-size="8.0" fill="#FFFFFF" transform="matrix(1.00, 0.00, -0.00, -1.00, 112.2, 11.6)">.</text><text xml:space="preserve" font-family="ArialMT,Arial" font-size="8.0" fill="#FFFFFF" transform="matrix(1.00, 0.00, -0.00, -1.00, 114.4, 11.6)"> </text><text xml:space="preserve" font-family="ArialMT,Arial" font-size="8.0" fill="#FFFFFF" transform="matrix(1.00, 0.00, -0.00, -1.00, 116.2, 11.6)">A</text><text xml:space="preserve" font-family="ArialMT,Arial" font-size="8.0" fill="#FFFFFF" transform="matrix(1.00, 0.00, -0.00, -1.00, 121.6, 11.6)">l</text><text xml:space="preserve" font-family="ArialMT,Arial" font-size="8.0" fill="#FFFFFF" transform="matrix(1.00, 0.00, -0.00, -1.00, 123.3, 11.6)">l</text><text xml:space="preserve" font-family="ArialMT,Arial" font-size="8.0" fill="#FFFFFF" transform="matrix(1.00, 0.00, -0.00, -1.00, 125.1, 11.6)"> </text><text xml:space="preserve" font-family="ArialMT,Arial" font-size="8.0" fill="#FFFFFF" transform="matrix(1.00, 0.00, -0.00, -1.00, 127.3, 11.6)">r</text><text xml:space="preserve" font-family="ArialMT,Arial" font-size="8.0" fill="#FFFFFF" transform="matrix(1.00, 0.00, -0.00, -1.00, 130.0, 11.6)">i</text><text xml:space="preserve" font-family="ArialMT,Arial" font-size="8.0" fill="#FFFFFF" transform="matrix(1.00, 0.00, -0.00, -1.00, 131.8, 11.6)">g</text><text xml:space="preserve" font-family="ArialMT,Arial" font-size="8.0" fill="#FFFFFF" transform="matrix(1.00, 0.00, -0.00, -1.00, 136.2, 11.6)">h</text><text xml:space="preserve" font-family="ArialMT,Arial" font-size="8.0" fill="#FFFFFF" transform="matrix(1.00, 0.00, -0.00, -1.00, 140.7, 11.6)">t</text><text xml:space="preserve" font-family="ArialMT,Arial" font-size="8.0" fill="#FFFFFF" transform="matrix(1.00, 0.00, -0.00, -1.00, 142.9, 11.6)">s</text><text xml:space="preserve" font-family="ArialMT,Arial" font-size="8.0" fill="#FFFFFF" transform="matrix(1.00, 0.00, -0.00, -1.00, 146.9, 11.6)"> </text><text xml:space="preserve" font-family="ArialMT,Arial" font-size="8.0" fill="#FFFFFF" transform="matrix(1.00, 0.00, -0.00, -1.00, 149.1, 11.6)">r</text><text xml:space="preserve" font-family="ArialMT,Arial" font-size="8.0" fill="#FFFFFF" transform="matrix(1.00, 0.00, -0.00, -1.00, 151.8, 11.6)">e</text><text xml:space="preserve" font-family="ArialMT,Arial" font-size="8.0" fill="#FFFFFF" transform="matrix(1.00, 0.00, -0.00, -1.00, 156.2, 11.6)">s</text><text xml:space="preserve" font-family="ArialMT,Arial" font-size="8.0" fill="#FFFFFF" transform="matrix(1.00, 0.00, -0.00, -1.00, 160.2, 11.6)">e</text><text xml:space="preserve" font-family="ArialMT,Arial" font-size="8.0" fill="#FFFFFF" transform="matrix(1.00, 0.00, -0.00, -1.00, 164.7, 11.6)">r</text><text xml:space="preserve" font-family="ArialMT,Arial" font-size="8.0" fill="#FFFFFF" transform="matrix(1.00, 0.00, -0.00, -1.00, 167.4, 11.6)">v</text><text xml:space="preserve" font-family="ArialMT,Arial" font-size="8.0" fill="#FFFFFF" transform="matrix(1.00, 0.00, -0.00, -1.00, 171.4, 11.6)">e</text><text xml:space="preserve" font-family="ArialMT,Arial" font-size="8.0" fill="#FFFFFF" transform="matrix(1.00, 0.00, -0.00, -1.00, 175.8, 11.6)">d</text><text xml:space="preserve" font-family="ArialMT,Arial" font-size="8.0" fill="#FFFFFF" transform="matrix(1.00, 0.00, -0.00, -1.00, 180.3, 11.6)">.</text><text xml:space="preserve" font-family="ArialMT,Arial" font-size="8.0" fill="#FFFFFF" transform="matrix(1.00, 0.00, -0.00, -1.00, 182.5, 11.6)"> </text><text xml:space="preserve" font-family="ArialMT,Arial" font-size="8.0" fill="#FFFFFF" transform="matrix(1.00, 0.00, -0.00, -1.00, 184.7, 11.6)">D</text><text xml:space="preserve" font-family="ArialMT,Arial" font-size="8.0" fill="#FFFFFF" transform="matrix(1.00, 0.00, -0.00, -1.00, 190.5, 11.6)">o</text><text xml:space="preserve" font-family="ArialMT,Arial" font-size="8.0" fill="#FFFFFF" transform="matrix(1.00, 0.00, -0.00, -1.00, 194.9, 11.6)"> </text><text xml:space="preserve" font-family="ArialMT,Arial" font-size="8.0" fill="#FFFFFF" transform="matrix(1.00, 0.00, -0.00, -1.00, 197.1, 11.6)">n</text><text xml:space="preserve" font-family="ArialMT,Arial" font-size="8.0" fill="#FFFFFF" transform="matrix(1.00, 0.00, -0.00, -1.00, 201.6, 11.6)">o</text><text xml:space="preserve" font-family="ArialMT,Arial" font-size="8.0" fill="#FFFFFF" transform="matrix(1.00, 0.00, -0.00, -1.00, 206.1, 11.6)">t</text><text xml:space="preserve" font-family="ArialMT,Arial" font-size="8.0" fill="#FFFFFF" transform="matrix(1.00, 0.00, -0.00, -1.00, 208.3, 11.6)"> </text><text xml:space="preserve" font-family="ArialMT,Arial" font-size="8.0" fill="#FFFFFF" transform="matrix(1.00, 0.00, -0.00, -1.00, 210.5, 11.6)">d</text><text xml:space="preserve" font-family="ArialMT,Arial" font-size="8.0" fill="#FFFFFF" transform="matrix(1.00, 0.00, -0.00, -1.00, 214.9, 11.6)">i</text><text xml:space="preserve" font-family="ArialMT,Arial" font-size="8.0" fill="#FFFFFF" transform="matrix(1.00, 0.00, -0.00, -1.00, 216.7, 11.6)">s</text><text xml:space="preserve" font-family="ArialMT,Arial" font-size="8.0" fill="#FFFFFF" transform="matrix(1.00, 0.00, -0.00, -1.00, 220.7, 11.6)">t</text><text xml:space="preserve" font-family="ArialMT,Arial" font-size="8.0" fill="#FFFFFF" transform="matrix(1.00, 0.00, -0.00, -1.00, 222.9, 11.6)">r</text><text xml:space="preserve" font-family="ArialMT,Arial" font-size="8.0" fill="#FFFFFF" transform="matrix(1.00, 0.00, -0.00, -1.00, 225.6, 11.6)">i</text><text xml:space="preserve" font-family="ArialMT,Arial" font-size="8.0" fill="#FFFFFF" transform="matrix(1.00, 0.00, -0.00, -1.00, 227.4, 11.6)">b</text><text xml:space="preserve" font-family="ArialMT,Arial" font-size="8.0" fill="#FFFFFF" transform="matrix(1.00, 0.00, -0.00, -1.00, 231.8, 11.6)">u</text><text xml:space="preserve" font-family="ArialMT,Arial" font-size="8.0" fill="#FFFFFF" transform="matrix(1.00, 0.00, -0.00, -1.00, 236.3, 11.6)">t</text><text xml:space="preserve" font-family="ArialMT,Arial" font-size="8.0" fill="#FFFFFF" transform="matrix(1.00, 0.00, -0.00, -1.00, 238.5, 11.6)">e</text><text xml:space="preserve" font-family="ArialMT,Arial" font-size="8.0" fill="#FFFFFF" transform="matrix(1.00, 0.00, -0.00, -1.00, 243.0, 11.6)"> </text><text xml:space="preserve" font-family="ArialMT,Arial" font-size="8.0" fill="#FFFFFF" transform="matrix(1.00, 0.00, -0.00, -1.00, 245.2, 11.6)">w</text><text xml:space="preserve" font-family="ArialMT,Arial" font-size="8.0" fill="#FFFFFF" transform="matrix(1.00, 0.00, -0.00, -1.00, 251.0, 11.6)">i</text><text xml:space="preserve" font-family="ArialMT,Arial" font-size="8.0" fill="#FFFFFF" transform="matrix(1.00, 0.00, -0.00, -1.00, 252.7, 11.6)">t</text><text xml:space="preserve" font-family="ArialMT,Arial" font-size="8.0" fill="#FFFFFF" transform="matrix(1.00, 0.00, -0.00, -1.00, 255.0, 11.6)">h</text><text xml:space="preserve" font-family="ArialMT,Arial" font-size="8.0" fill="#FFFFFF" transform="matrix(1.00, 0.00, -0.00, -1.00, 259.4, 11.6)">o</text><text xml:space="preserve" font-family="ArialMT,Arial" font-size="8.0" fill="#FFFFFF" transform="matrix(1.00, 0.00, -0.00, -1.00, 263.9, 11.6)">u</text><text xml:space="preserve" font-family="ArialMT,Arial" font-size="8.0" fill="#FFFFFF" transform="matrix(1.00, 0.00, -0.00, -1.00, 268.3, 11.6)">t</text><text xml:space="preserve" font-family="ArialMT,Arial" font-size="8.0" fill="#FFFFFF" transform="matrix(1.00, 0.00, -0.00, -1.00, 270.5, 11.6)"> </text><text xml:space="preserve" font-family="ArialMT,Arial" font-size="8.0" fill="#FFFFFF" transform="matrix(1.00, 0.00, -0.00, -1.00, 272.8, 11.6)">p</text><text xml:space="preserve" font-family="ArialMT,Arial" font-size="8.0" fill="#FFFFFF" transform="matrix(1.00, 0.00, -0.00, -1.00, 277.2, 11.6)">e</text><text xml:space="preserve" font-family="ArialMT,Arial" font-size="8.0" fill="#FFFFFF" transform="matrix(1.00, 0.00, -0.00, -1.00, 281.7, 11.6)">r</text><text xml:space="preserve" font-family="ArialMT,Arial" font-size="8.0" fill="#FFFFFF" transform="matrix(1.00, 0.00, -0.00, -1.00, 284.3, 11.6)">m</text><text xml:space="preserve" font-family="ArialMT,Arial" font-size="8.0" fill="#FFFFFF" transform="matrix(1.00, 0.00, -0.00, -1.00, 291.0, 11.6)">i</text><text xml:space="preserve" font-family="ArialMT,Arial" font-size="8.0" fill="#FFFFFF" transform="matrix(1.00, 0.00, -0.00, -1.00, 292.8, 11.6)">s</text><text xml:space="preserve" font-family="ArialMT,Arial" font-size="8.0" fill="#FFFFFF" transform="matrix(1.00, 0.00, -0.00, -1.00, 296.8, 11.6)">s</text><text xml:space="preserve" font-family="ArialMT,Arial" font-size="8.0" fill="#FFFFFF" transform="matrix(1.00, 0.00, -0.00, -1.00, 300.8, 11.6)">i</text><text xml:space="preserve" font-family="ArialMT,Arial" font-size="8.0" fill="#FFFFFF" transform="matrix(1.00, 0.00, -0.00, -1.00, 302.5, 11.6)">o</text><text xml:space="preserve" font-family="ArialMT,Arial" font-size="8.0" fill="#FFFFFF" transform="matrix(1.00, 0.00, -0.00, -1.00, 307.0, 11.6)">n</text><text xml:space="preserve" font-family="ArialMT,Arial" font-size="8.0" fill="#FFFFFF" transform="matrix(1.00, 0.00, -0.00, -1.00, 311.4, 11.6)">.</text><text xml:space="preserve" font-family="ArialMT,Arial" font-size="8.0" fill="#FFFFFF" transform="matrix(1.00, 0.00, -0.00, -1.00, 313.7, 11.6)"> </text><path d="M -0.0 0.0 L 720.0 0.0 " fill="none" stroke="#FFFFFF" stroke-width="5.00" stroke-linejoin="bevel" transform="matrix(1.00, 0.00, 0.00, -1.00, 0.0, 28.5)"></path><image xlink:href="AF073EF38E48C30189E631E7F40251E0.png" width="239.00" height="66.00" transform="matrix(0.33, 0.00, -0.00, -0.33, 615.0, 24.0)"></image><text xml:space="preserve" font-family="Arial-BoldMT,Arial" font-weight="bold" font-size="32.0" fill="#FFFFFF" transform="matrix(1.00, 0.00, -0.00, -1.00, 156.1, 134.1)">G</text><text xml:space="preserve" font-family="Arial-BoldMT,Arial" font-weight="bold" font-size="32.0" fill="#FFFFFF" transform="matrix(1.00, 0.00, -0.00, -1.00, 181.0, 134.1)">r</text><text xml:space="preserve" font-family="Arial-BoldMT,Arial" font-weight="bold" font-size="32.0" fill="#FFFFFF" transform="matrix(1.00, 0.00, -0.00, -1.00, 193.5, 134.1)">o</text><text xml:space="preserve" font-family="Arial-BoldMT,Arial" font-weight="bold" font-size="32.0" fill="#FFFFFF" transform="matrix(1.00, 0.00, -0.00, -1.00, 213.0, 134.1)">o</text><text xml:space="preserve" font-family="Arial-BoldMT,Arial" font-weight="bold" font-size="32.0" fill="#FFFFFF" transform="matrix(1.00, 0.00, -0.00, -1.00, 232.6, 134.1)">v</text><text xml:space="preserve" font-family="Arial-BoldMT,Arial" font-weight="bold" font-size="32.0" fill="#FFFFFF" transform="matrix(1.00, 0.00, -0.00, -1.00, 250.4, 134.1)">y</text><text xml:space="preserve" font-family="Arial-BoldMT,Arial" font-weight="bold" font-size="32.0" fill="#FFFFFF" transform="matrix(1.00, 0.00, -0.00, -1.00, 268.2, 134.1)"> </text><text xml:space="preserve" font-family="Arial-BoldMT,Arial" font-weight="bold" font-size="32.0" fill="#FFFFFF" transform="matrix(1.00, 0.00, -0.00, -1.00, 277.1, 134.1)">M</text><text xml:space="preserve" font-family="Arial-BoldMT,Arial" font-weight="bold" font-size="32.0" fill="#FFFFFF" transform="matrix(1.00, 0.00, -0.00, -1.00, 303.7, 134.1)">o</text><text xml:space="preserve" font-family="Arial-BoldMT,Arial" font-weight="bold" font-size="32.0" fill="#FFFFFF" transform="matrix(1.00, 0.00, -0.00, -1.00, 323.3, 134.1)">b</text><text xml:space="preserve" font-family="Arial-BoldMT,Arial" font-weight="bold" font-size="32.0" fill="#FFFFFF" transform="matrix(1.00, 0.00, -0.00, -1.00, 342.8, 134.1)">i</text><text xml:space="preserve" font-family="Arial-BoldMT,Arial" font-weight="bold" font-size="32.0" fill="#FFFFFF" transform="matrix(1.00, 0.00, -0.00, -1.00, 351.7, 134.1)">l</text><text xml:space="preserve" font-family="Arial-BoldMT,Arial" font-weight="bold" font-size="32.0" fill="#FFFFFF" transform="matrix(1.00, 0.00, -0.00, -1.00, 360.6, 134.1)">e</text><text xml:space="preserve" font-family="Arial-BoldMT,Arial" font-weight="bold" font-size="32.0" fill="#FFFFFF" transform="matrix(1.00, 0.00, -0.00, -1.00, 378.4, 134.1)"> </text><text xml:space="preserve" font-family="Arial-BoldMT,Arial" font-weight="bold" font-size="32.0" fill="#FFFFFF" transform="matrix(1.00, 0.00, -0.00, -1.00, 386.1, 134.1)">A</text><text xml:space="preserve" font-family="Arial-BoldMT,Arial" font-weight="bold" font-size="32.0" fill="#FFFFFF" transform="matrix(1.00, 0.00, -0.00, -1.00, 409.2, 134.1)">u</text><text xml:space="preserve" font-family="Arial-BoldMT,Arial" font-weight="bold" font-size="32.0" fill="#FFFFFF" transform="matrix(1.00, 0.00, -0.00, -1.00, 428.7, 134.1)">t</text><text xml:space="preserve" font-family="Arial-BoldMT,Arial" font-weight="bold" font-size="32.0" fill="#FFFFFF" transform="matrix(1.00, 0.00, -0.00, -1.00, 439.4, 134.1)">o</text><text xml:space="preserve" font-family="Arial-BoldMT,Arial" font-weight="bold" font-size="32.0" fill="#FFFFFF" transform="matrix(1.00, 0.00, -0.00, -1.00, 458.9, 134.1)">m</text><text xml:space="preserve" font-family="Arial-BoldMT,Arial" font-weight="bold" font-size="32.0" fill="#FFFFFF" transform="matrix(1.00, 0.00, -0.00, -1.00, 487.4, 134.1)">a</text><text xml:space="preserve" font-family="Arial-BoldMT,Arial" font-weight="bold" font-size="32.0" fill="#FFFFFF" transform="matrix(1.00, 0.00, -0.00, -1.00, 505.2, 134.1)">t</text><text xml:space="preserve" font-family="Arial-BoldMT,Arial" font-weight="bold" font-size="32.0" fill="#FFFFFF" transform="matrix(1.00, 0.00, -0.00, -1.00, 515.8, 134.1)">i</text><text xml:space="preserve" font-family="Arial-BoldMT,Arial" font-weight="bold" font-size="32.0" fill="#FFFFFF" transform="matrix(1.00, 0.00, -0.00, -1.00, 524.7, 134.1)">o</text><text xml:space="preserve" font-family="Arial-BoldMT,Arial" font-weight="bold" font-size="32.0" fill="#FFFFFF" transform="matrix(1.00, 0.00, -0.00, -1.00, 544.3, 134.1)">n</text><text xml:space="preserve" font-family="ArialMT,Arial" font-size="20.0" fill="#FFFFFF" transform="matrix(1.00, 0.00, -0.00, -1.00, 282.0, 86.7)">B</text><text xml:space="preserve" font-family="ArialMT,Arial" font-size="20.0" fill="#FFFFFF" transform="matrix(1.00, 0.00, -0.00, -1.00, 295.3, 86.7)">y</text><text xml:space="preserve" font-family="ArialMT,Arial" font-size="20.0" fill="#FFFFFF" transform="matrix(1.00, 0.00, -0.00, -1.00, 305.3, 86.7)"> </text><text xml:space="preserve" font-family="ArialMT,Arial" font-size="20.0" fill="#FFFFFF" transform="matrix(1.00, 0.00, -0.00, -1.00, 310.9, 86.7)">B</text><text xml:space="preserve" font-family="ArialMT,Arial" font-size="20.0" fill="#FFFFFF" transform="matrix(1.00, 0.00, -0.00, -1.00, 324.2, 86.7)">o</text><text xml:space="preserve" font-family="ArialMT,Arial" font-size="20.0" fill="#FFFFFF" transform="matrix(1.00, 0.00, -0.00, -1.00, 335.4, 86.7)">b</text><text xml:space="preserve" font-family="ArialMT,Arial" font-size="20.0" fill="#FFFFFF" transform="matrix(1.00, 0.00, -0.00, -1.00, 346.5, 86.7)">b</text><text xml:space="preserve" font-family="ArialMT,Arial" font-size="20.0" fill="#FFFFFF" transform="matrix(1.00, 0.00, -0.00, -1.00, 357.6, 86.7)">y</text><text xml:space="preserve" font-family="ArialMT,Arial" font-size="20.0" fill="#FFFFFF" transform="matrix(1.00, 0.00, -0.00, -1.00, 367.6, 86.7)"> </text><text xml:space="preserve" font-family="ArialMT,Arial" font-size="20.0" fill="#FFFFFF" transform="matrix(1.00, 0.00, -0.00, -1.00, 373.2, 86.7)">W</text><text xml:space="preserve" font-family="ArialMT,Arial" font-size="20.0" fill="#FFFFFF" transform="matrix(1.00, 0.00, -0.00, -1.00, 391.3, 86.7)">a</text><text xml:space="preserve" font-family="ArialMT,Arial" font-size="20.0" fill="#FFFFFF" transform="matrix(1.00, 0.00, -0.00, -1.00, 402.4, 86.7)">r</text><text xml:space="preserve" font-family="ArialMT,Arial" font-size="20.0" fill="#FFFFFF" transform="matrix(1.00, 0.00, -0.00, -1.00, 409.1, 86.7)">n</text><text xml:space="preserve" font-family="ArialMT,Arial" font-size="20.0" fill="#FFFFFF" transform="matrix(1.00, 0.00, -0.00, -1.00, 420.2, 86.7)">e</text><text xml:space="preserve" font-family="ArialMT,Arial" font-size="20.0" fill="#FFFFFF" transform="matrix(1.00, 0.00, -0.00, -1.00, 431.3, 86.7)">r</text></g></svg>