<?xml version="1.0" encoding="UTF-8" standalone="no"?><svg xmlns="http://www.w3.org/2000/svg" xmlns:xlink="http://www.w3.org/1999/xlink" clip-rule="evenodd" stroke-miterlimit="10" viewBox="0 0 720 405"><desc>SVG generated by Keynote</desc><defs></defs><g transform="matrix(1.00, 0.00, -0.00, -1.00, 0.0, 405.0)"><path d="M 0.0 405.0 L 720.0 405.0 L 720.0 0.0 L 0.0 0.0 Z M 0.0 405.0 " fill="#FFFFFF"></path><image xlink:href="../../22F37CDA-977A-4F5F-AC8F-7B619332684C/assets/CF5371EDAD41EE4A4DDAC6FB5B300F29.png" width="1920.00" height="108.00" transform="matrix(0.38, 0.00, -0.00, -0.07, 0.0, 405.0)"></image><image xlink:href="../../22F37CDA-977A-4F5F-AC8F-7B619332684C/assets/835323990485373A14BF16A2D952197A.png" width="182.00" height="160.00" transform="matrix(0.37, 0.00, -0.00, -0.37, 642.0, 405.0)"></image><text xml:space="preserve" font-family="Arial-BoldMT,Arial" font-weight="bold" font-size="24.0" fill="#333333" transform="matrix(1.00, 0.00, -0.00, -1.00, 27.4, 363.9)">W</text><text xml:space="preserve" font-family="Arial-BoldMT,Arial" font-weight="bold" font-size="24.0" fill="#333333" transform="matrix(1.00, 0.00, -0.00, -1.00, 50.0, 363.9)">h</text><text xml:space="preserve" font-family="Arial-BoldMT,Arial" font-weight="bold" font-size="24.0" fill="#333333" transform="matrix(1.00, 0.00, -0.00, -1.00, 64.7, 363.9)">o</text><text xml:space="preserve" font-family="Arial-BoldMT,Arial" font-weight="bold" font-size="24.0" fill="#333333" transform="matrix(1.00, 0.00, -0.00, -1.00, 79.3, 363.9)"> </text><text xml:space="preserve" font-family="Arial-BoldMT,Arial" font-weight="bold" font-size="24.0" fill="#333333" transform="matrix(1.00, 0.00, -0.00, -1.00, 85.1, 363.9)">A</text><text xml:space="preserve" font-family="Arial-BoldMT,Arial" font-weight="bold" font-size="24.0" fill="#333333" transform="matrix(1.00, 0.00, -0.00, -1.00, 102.4, 363.9)">m</text><text xml:space="preserve" font-family="Arial-BoldMT,Arial" font-weight="bold" font-size="24.0" fill="#333333" transform="matrix(1.00, 0.00, -0.00, -1.00, 123.8, 363.9)"> </text><text xml:space="preserve" font-family="Arial-BoldMT,Arial" font-weight="bold" font-size="24.0" fill="#333333" transform="matrix(1.00, 0.00, -0.00, -1.00, 130.4, 363.9)">I</text><text xml:space="preserve" font-family="ArialMT,Arial" font-size="22.0" fill="#333333" transform="matrix(1.00, 0.00, -0.00, -1.00, 290.1, 160.0)">B</text><text xml:space="preserve" font-family="ArialMT,Arial" font-size="22.0" fill="#333333" transform="matrix(1.00, 0.00, -0.00, -1.00, 304.8, 160.0)">o</text><text xml:space="preserve" font-family="ArialMT,Arial" font-size="22.0" fill="#333333" transform="matrix(1.00, 0.00, -0.00, -1.00, 317.0, 160.0)">b</text><text xml:space="preserve" font-family="ArialMT,Arial" font-size="22.0" fill="#333333" transform="matrix(1.00, 0.00, -0.00, -1.00, 329.3, 160.0)">b</text><text xml:space="preserve" font-family="ArialMT,Arial" font-size="22.0" fill="#333333" transform="matrix(1.00, 0.00, -0.00, -1.00, 341.5, 160.0)">y</text><text xml:space="preserve" font-family="ArialMT,Arial" font-size="22.0" fill="#333333" transform="matrix(1.00, 0.00, -0.00, -1.00, 352.5, 160.0)"> </text><text xml:space="preserve" font-family="ArialMT,Arial" font-size="22.0" fill="#333333" transform="matrix(1.00, 0.00, -0.00, -1.00, 358.6, 160.0)">W</text><text xml:space="preserve" font-family="ArialMT,Arial" font-size="22.0" fill="#333333" transform="matrix(1.00, 0.00, -0.00, -1.00, 378.5, 160.0)">a</text><text xml:space="preserve" font-family="ArialMT,Arial" font-size="22.0" fill="#333333" transform="matrix(1.00, 0.00, -0.00, -1.00, 390.8, 160.0)">r</text><text xml:space="preserve" font-family="ArialMT,Arial" font-size="22.0" fill="#333333" transform="matrix(1.00, 0.00, -0.00, -1.00, 398.1, 160.0)">n</text><text xml:space="preserve" font-family="ArialMT,Arial" font-size="22.0" fill="#333333" transform="matrix(1.00, 0.00, -0.00, -1.00, 410.4, 160.0)">e</text><text xml:space="preserve" font-family="ArialMT,Arial" font-size="22.0" fill="#333333" transform="matrix(1.00, 0.00, -0.00, -1.00, 422.6, 160.0)">r</text><text xml:space="preserve" font-family="ArialMT,Arial" font-size="22.0" fill="#333333" transform="matrix(1.00, 0.00, -0.00, -1.00, 429.9, 160.0)"> </text><text xml:space="preserve" font-family="ArialMT,Arial" font-size="22.0" fill="#333333" transform="matrix(1.00, 0.00, -0.00, -1.00, 259.1, 128.7)">F</text><text xml:space="preserve" font-family="ArialMT,Arial" font-size="22.0" fill="#333333" transform="matrix(1.00, 0.00, -0.00, -1.00, 272.5, 128.7)">o</text><text xml:space="preserve" font-family="ArialMT,Arial" font-size="22.0" fill="#333333" transform="matrix(1.00, 0.00, -0.00, -1.00, 284.8, 128.7)">u</text><text xml:space="preserve" font-family="ArialMT,Arial" font-size="22.0" fill="#333333" transform="matrix(1.00, 0.00, -0.00, -1.00, 297.0, 128.7)">n</text><text xml:space="preserve" font-family="ArialMT,Arial" font-size="22.0" fill="#333333" transform="matrix(1.00, 0.00, -0.00, -1.00, 309.3, 128.7)">d</text><text xml:space="preserve" font-family="ArialMT,Arial" font-size="22.0" fill="#333333" transform="matrix(1.00, 0.00, -0.00, -1.00, 321.5, 128.7)">e</text><text xml:space="preserve" font-family="ArialMT,Arial" font-size="22.0" fill="#333333" transform="matrix(1.00, 0.00, -0.00, -1.00, 333.7, 128.7)">r</text><text xml:space="preserve" font-family="ArialMT,Arial" font-size="22.0" fill="#333333" transform="matrix(1.00, 0.00, -0.00, -1.00, 341.1, 128.7)"> </text><text xml:space="preserve" font-family="ArialMT,Arial" font-size="22.0" fill="#333333" transform="matrix(1.00, 0.00, -0.00, -1.00, 347.2, 128.7)">&amp;</text><text xml:space="preserve" font-family="ArialMT,Arial" font-size="22.0" fill="#333333" transform="matrix(1.00, 0.00, -0.00, -1.00, 361.9, 128.7)"> </text><text xml:space="preserve" font-family="ArialMT,Arial" font-size="22.0" fill="#333333" transform="matrix(1.00, 0.00, -0.00, -1.00, 368.0, 128.7)">P</text><text xml:space="preserve" font-family="ArialMT,Arial" font-size="22.0" fill="#333333" transform="matrix(1.00, 0.00, -0.00, -1.00, 382.6, 128.7)">r</text><text xml:space="preserve" font-family="ArialMT,Arial" font-size="22.0" fill="#333333" transform="matrix(1.00, 0.00, -0.00, -1.00, 390.0, 128.7)">e</text><text xml:space="preserve" font-family="ArialMT,Arial" font-size="22.0" fill="#333333" transform="matrix(1.00, 0.00, -0.00, -1.00, 402.2, 128.7)">s</text><text xml:space="preserve" font-family="ArialMT,Arial" font-size="22.0" fill="#333333" transform="matrix(1.00, 0.00, -0.00, -1.00, 413.2, 128.7)">i</text><text xml:space="preserve" font-family="ArialMT,Arial" font-size="22.0" fill="#333333" transform="matrix(1.00, 0.00, -0.00, -1.00, 418.1, 128.7)">d</text><text xml:space="preserve" font-family="ArialMT,Arial" font-size="22.0" fill="#333333" transform="matrix(1.00, 0.00, -0.00, -1.00, 430.3, 128.7)">e</text><text xml:space="preserve" font-family="ArialMT,Arial" font-size="22.0" fill="#333333" transform="matrix(1.00, 0.00, -0.00, -1.00, 442.6, 128.7)">n</text><text xml:space="preserve" font-family="ArialMT,Arial" font-size="22.0" fill="#333333" transform="matrix(1.00, 0.00, -0.00, -1.00, 454.8, 128.7)">t</text><text xml:space="preserve" font-family="ArialMT,Arial" font-size="22.0" fill="#333333" transform="matrix(1.00, 0.00, -0.00, -1.00, 460.9, 128.7)"> </text><text xml:space="preserve" font-family="ArialMT,Arial" font-size="22.0" fill="#333333" transform="matrix(1.00, 0.00, -0.00, -1.00, 285.2, 34.9)">@</text><text xml:space="preserve" font-family="ArialMT,Arial" font-size="22.0" fill="#333333" transform="matrix(1.00, 0.00, -0.00, -1.00, 307.6, 34.9)">b</text><text xml:space="preserve" font-family="ArialMT,Arial" font-size="22.0" fill="#333333" transform="matrix(1.00, 0.00, -0.00, -1.00, 319.8, 34.9)">o</text><text xml:space="preserve" font-family="ArialMT,Arial" font-size="22.0" fill="#333333" transform="matrix(1.00, 0.00, -0.00, -1.00, 332.1, 34.9)">b</text><text xml:space="preserve" font-family="ArialMT,Arial" font-size="22.0" fill="#333333" transform="matrix(1.00, 0.00, -0.00, -1.00, 344.3, 34.9)">b</text><text xml:space="preserve" font-family="ArialMT,Arial" font-size="22.0" fill="#333333" transform="matrix(1.00, 0.00, -0.00, -1.00, 356.5, 34.9)">y</text><text xml:space="preserve" font-family="ArialMT,Arial" font-size="22.0" fill="#333333" transform="matrix(1.00, 0.00, -0.00, -1.00, 367.5, 34.9)">w</text><text xml:space="preserve" font-family="ArialMT,Arial" font-size="22.0" fill="#333333" transform="matrix(1.00, 0.00, -0.00, -1.00, 383.4, 34.9)">a</text><text xml:space="preserve" font-family="ArialMT,Arial" font-size="22.0" fill="#333333" transform="matrix(1.00, 0.00, -0.00, -1.00, 395.7, 34.9)">r</text><text xml:space="preserve" font-family="ArialMT,Arial" font-size="22.0" fill="#333333" transform="matrix(1.00, 0.00, -0.00, -1.00, 403.0, 34.9)">n</text><text xml:space="preserve" font-family="ArialMT,Arial" font-size="22.0" fill="#333333" transform="matrix(1.00, 0.00, -0.00, -1.00, 415.2, 34.9)">e</text><text xml:space="preserve" font-family="ArialMT,Arial" font-size="22.0" fill="#333333" transform="matrix(1.00, 0.00, -0.00, -1.00, 427.5, 34.9)">r</text><text xml:space="preserve" font-family="ArialMT,Arial" font-size="12.0" fill="#333333" transform="matrix(1.00, 0.00, -0.00, -1.00, 686.7, 10.0)">2</text><image xlink:href="../../22F37CDA-977A-4F5F-AC8F-7B619332684C/assets/F8CD5C16D46A9D775A515AE9512F8A57.png" width="1200.00" height="403.00" transform="matrix(0.53, 0.00, -0.00, -0.53, 40.0, 362.0)"></image><image xlink:href="../../22F37CDA-977A-4F5F-AC8F-7B619332684C/assets/CCE76B1E9F8568A8F1DB7FDC22096496.png" width="182.00" height="182.00" transform="matrix(0.33, 0.00, -0.00, -0.33, 330.0, 112.0)"></image></g></svg>