<?xml version="1.0" encoding="UTF-8" standalone="no"?><svg xmlns="http://www.w3.org/2000/svg" xmlns:xlink="http://www.w3.org/1999/xlink" clip-rule="evenodd" stroke-miterlimit="10" viewBox="0 0 720 405"><desc>SVG generated by Keynote</desc><defs></defs><g transform="matrix(1.00, 0.00, -0.00, -1.00, 0.0, 405.0)"><path d="M 0.0 405.0 L 720.0 405.0 L 720.0 0.0 L 0.0 0.0 Z M 0.0 405.0 " fill="#FFFFFF"></path><image xlink:href="../../22F37CDA-977A-4F5F-AC8F-7B619332684C/assets/CF5371EDAD41EE4A4DDAC6FB5B300F29.png" width="1920.00" height="108.00" transform="matrix(0.38, 0.00, -0.00, -0.07, 0.0, 405.0)"></image><image xlink:href="../../22F37CDA-977A-4F5F-AC8F-7B619332684C/assets/835323990485373A14BF16A2D952197A.png" width="182.00" height="160.00" transform="matrix(0.37, 0.00, -0.00, -0.37, 642.0, 405.0)"></image><text xml:space="preserve" font-family="Arial-BoldMT,Arial" font-weight="bold" font-size="24.0" fill="#333333" transform="matrix(1.00, 0.00, -0.00, -1.00, 27.4, 363.9)">#</text><text xml:space="preserve" font-family="Arial-BoldMT,Arial" font-weight="bold" font-size="24.0" fill="#333333" transform="matrix(1.00, 0.00, -0.00, -1.00, 40.7, 363.9)">2</text><text xml:space="preserve" font-family="ArialMT,Arial" font-size="22.0" fill="#333333" transform="matrix(1.00, 0.00, -0.00, -1.00, 27.2, 312.4)">•</text><text xml:space="preserve" font-family="Arial-ItalicMT,Arial" font-style="italic" font-size="22.0" fill="#333333" transform="matrix(1.00, 0.00, -0.00, -1.00, 54.2, 312.4)">Y</text><text xml:space="preserve" font-family="Arial-ItalicMT,Arial" font-style="italic" font-size="22.0" fill="#333333" transform="matrix(1.00, 0.00, -0.00, -1.00, 67.6, 312.4)">o</text><text xml:space="preserve" font-family="Arial-ItalicMT,Arial" font-style="italic" font-size="22.0" fill="#333333" transform="matrix(1.00, 0.00, -0.00, -1.00, 79.9, 312.4)">u</text><text xml:space="preserve" font-family="Arial-ItalicMT,Arial" font-style="italic" font-size="22.0" fill="#333333" transform="matrix(1.00, 0.00, -0.00, -1.00, 92.1, 312.4)"> </text><text xml:space="preserve" font-family="Arial-ItalicMT,Arial" font-style="italic" font-size="22.0" fill="#333333" transform="matrix(1.00, 0.00, -0.00, -1.00, 98.2, 312.4)">s</text><text xml:space="preserve" font-family="Arial-ItalicMT,Arial" font-style="italic" font-size="22.0" fill="#333333" transform="matrix(1.00, 0.00, -0.00, -1.00, 109.2, 312.4)">h</text><text xml:space="preserve" font-family="Arial-ItalicMT,Arial" font-style="italic" font-size="22.0" fill="#333333" transform="matrix(1.00, 0.00, -0.00, -1.00, 121.5, 312.4)">o</text><text xml:space="preserve" font-family="Arial-ItalicMT,Arial" font-style="italic" font-size="22.0" fill="#333333" transform="matrix(1.00, 0.00, -0.00, -1.00, 133.7, 312.4)">u</text><text xml:space="preserve" font-family="Arial-ItalicMT,Arial" font-style="italic" font-size="22.0" fill="#333333" transform="matrix(1.00, 0.00, -0.00, -1.00, 146.0, 312.4)">l</text><text xml:space="preserve" font-family="Arial-ItalicMT,Arial" font-style="italic" font-size="22.0" fill="#333333" transform="matrix(1.00, 0.00, -0.00, -1.00, 150.8, 312.4)">d</text><text xml:space="preserve" font-family="Arial-ItalicMT,Arial" font-style="italic" font-size="22.0" fill="#333333" transform="matrix(1.00, 0.00, -0.00, -1.00, 163.1, 312.4)">n</text><text xml:space="preserve" font-family="Arial-ItalicMT,Arial" font-style="italic" font-size="22.0" fill="#333333" transform="matrix(1.00, 0.00, -0.00, -1.00, 175.3, 312.4)">’</text><text xml:space="preserve" font-family="Arial-ItalicMT,Arial" font-style="italic" font-size="22.0" fill="#333333" transform="matrix(1.00, 0.00, -0.00, -1.00, 180.2, 312.4)">t</text><text xml:space="preserve" font-family="Arial-ItalicMT,Arial" font-style="italic" font-size="22.0" fill="#333333" transform="matrix(1.00, 0.00, -0.00, -1.00, 186.3, 312.4)"> </text><text xml:space="preserve" font-family="Arial-ItalicMT,Arial" font-style="italic" font-size="22.0" fill="#333333" transform="matrix(1.00, 0.00, -0.00, -1.00, 192.4, 312.4)">b</text><text xml:space="preserve" font-family="Arial-ItalicMT,Arial" font-style="italic" font-size="22.0" fill="#333333" transform="matrix(1.00, 0.00, -0.00, -1.00, 204.7, 312.4)">e</text><text xml:space="preserve" font-family="Arial-ItalicMT,Arial" font-style="italic" font-size="22.0" fill="#333333" transform="matrix(1.00, 0.00, -0.00, -1.00, 216.9, 312.4)"> </text><text xml:space="preserve" font-family="Arial-ItalicMT,Arial" font-style="italic" font-size="22.0" fill="#333333" transform="matrix(1.00, 0.00, -0.00, -1.00, 223.0, 312.4)">l</text><text xml:space="preserve" font-family="Arial-ItalicMT,Arial" font-style="italic" font-size="22.0" fill="#333333" transform="matrix(1.00, 0.00, -0.00, -1.00, 227.9, 312.4)">o</text><text xml:space="preserve" font-family="Arial-ItalicMT,Arial" font-style="italic" font-size="22.0" fill="#333333" transform="matrix(1.00, 0.00, -0.00, -1.00, 240.2, 312.4)">c</text><text xml:space="preserve" font-family="Arial-ItalicMT,Arial" font-style="italic" font-size="22.0" fill="#333333" transform="matrix(1.00, 0.00, -0.00, -1.00, 251.2, 312.4)">k</text><text xml:space="preserve" font-family="Arial-ItalicMT,Arial" font-style="italic" font-size="22.0" fill="#333333" transform="matrix(1.00, 0.00, -0.00, -1.00, 262.2, 312.4)">e</text><text xml:space="preserve" font-family="Arial-ItalicMT,Arial" font-style="italic" font-size="22.0" fill="#333333" transform="matrix(1.00, 0.00, -0.00, -1.00, 274.4, 312.4)">d</text><text xml:space="preserve" font-family="Arial-ItalicMT,Arial" font-style="italic" font-size="22.0" fill="#333333" transform="matrix(1.00, 0.00, -0.00, -1.00, 286.6, 312.4)"> </text><text xml:space="preserve" font-family="Arial-ItalicMT,Arial" font-style="italic" font-size="22.0" fill="#333333" transform="matrix(1.00, 0.00, -0.00, -1.00, 292.7, 312.4)">i</text><text xml:space="preserve" font-family="Arial-ItalicMT,Arial" font-style="italic" font-size="22.0" fill="#333333" transform="matrix(1.00, 0.00, -0.00, -1.00, 297.6, 312.4)">n</text><text xml:space="preserve" font-family="Arial-ItalicMT,Arial" font-style="italic" font-size="22.0" fill="#333333" transform="matrix(1.00, 0.00, -0.00, -1.00, 309.9, 312.4)">t</text><text xml:space="preserve" font-family="Arial-ItalicMT,Arial" font-style="italic" font-size="22.0" fill="#333333" transform="matrix(1.00, 0.00, -0.00, -1.00, 316.0, 312.4)">o</text><text xml:space="preserve" font-family="Arial-ItalicMT,Arial" font-style="italic" font-size="22.0" fill="#333333" transform="matrix(1.00, 0.00, -0.00, -1.00, 328.2, 312.4)"> </text><text xml:space="preserve" font-family="Arial-ItalicMT,Arial" font-style="italic" font-size="22.0" fill="#333333" transform="matrix(1.00, 0.00, -0.00, -1.00, 334.3, 312.4)">a</text><text xml:space="preserve" font-family="Arial-ItalicMT,Arial" font-style="italic" font-size="22.0" fill="#333333" transform="matrix(1.00, 0.00, -0.00, -1.00, 346.6, 312.4)"> </text><text xml:space="preserve" font-family="Arial-ItalicMT,Arial" font-style="italic" font-size="22.0" fill="#333333" transform="matrix(1.00, 0.00, -0.00, -1.00, 352.7, 312.4)">s</text><text xml:space="preserve" font-family="Arial-ItalicMT,Arial" font-style="italic" font-size="22.0" fill="#333333" transform="matrix(1.00, 0.00, -0.00, -1.00, 363.7, 312.4)">p</text><text xml:space="preserve" font-family="Arial-ItalicMT,Arial" font-style="italic" font-size="22.0" fill="#333333" transform="matrix(1.00, 0.00, -0.00, -1.00, 375.9, 312.4)">e</text><text xml:space="preserve" font-family="Arial-ItalicMT,Arial" font-style="italic" font-size="22.0" fill="#333333" transform="matrix(1.00, 0.00, -0.00, -1.00, 388.2, 312.4)">c</text><text xml:space="preserve" font-family="Arial-ItalicMT,Arial" font-style="italic" font-size="22.0" fill="#333333" transform="matrix(1.00, 0.00, -0.00, -1.00, 399.2, 312.4)">i</text><text xml:space="preserve" font-family="Arial-ItalicMT,Arial" font-style="italic" font-size="22.0" fill="#333333" transform="matrix(1.00, 0.00, -0.00, -1.00, 404.0, 312.4)">f</text><text xml:space="preserve" font-family="Arial-ItalicMT,Arial" font-style="italic" font-size="22.0" fill="#333333" transform="matrix(1.00, 0.00, -0.00, -1.00, 410.2, 312.4)">i</text><text xml:space="preserve" font-family="Arial-ItalicMT,Arial" font-style="italic" font-size="22.0" fill="#333333" transform="matrix(1.00, 0.00, -0.00, -1.00, 415.0, 312.4)">c</text><text xml:space="preserve" font-family="Arial-ItalicMT,Arial" font-style="italic" font-size="22.0" fill="#333333" transform="matrix(1.00, 0.00, -0.00, -1.00, 426.0, 312.4)"> </text><text xml:space="preserve" font-family="Arial-ItalicMT,Arial" font-style="italic" font-size="22.0" fill="#333333" transform="matrix(1.00, 0.00, -0.00, -1.00, 432.2, 312.4)">l</text><text xml:space="preserve" font-family="Arial-ItalicMT,Arial" font-style="italic" font-size="22.0" fill="#333333" transform="matrix(1.00, 0.00, -0.00, -1.00, 437.0, 312.4)">a</text><text xml:space="preserve" font-family="Arial-ItalicMT,Arial" font-style="italic" font-size="22.0" fill="#333333" transform="matrix(1.00, 0.00, -0.00, -1.00, 449.3, 312.4)">n</text><text xml:space="preserve" font-family="Arial-ItalicMT,Arial" font-style="italic" font-size="22.0" fill="#333333" transform="matrix(1.00, 0.00, -0.00, -1.00, 461.5, 312.4)">g</text><text xml:space="preserve" font-family="Arial-ItalicMT,Arial" font-style="italic" font-size="22.0" fill="#333333" transform="matrix(1.00, 0.00, -0.00, -1.00, 473.8, 312.4)">u</text><text xml:space="preserve" font-family="Arial-ItalicMT,Arial" font-style="italic" font-size="22.0" fill="#333333" transform="matrix(1.00, 0.00, -0.00, -1.00, 486.0, 312.4)">a</text><text xml:space="preserve" font-family="Arial-ItalicMT,Arial" font-style="italic" font-size="22.0" fill="#333333" transform="matrix(1.00, 0.00, -0.00, -1.00, 498.2, 312.4)">g</text><text xml:space="preserve" font-family="Arial-ItalicMT,Arial" font-style="italic" font-size="22.0" fill="#333333" transform="matrix(1.00, 0.00, -0.00, -1.00, 510.5, 312.4)">e</text><text xml:space="preserve" font-family="Arial-ItalicMT,Arial" font-style="italic" font-size="22.0" fill="#333333" transform="matrix(1.00, 0.00, -0.00, -1.00, 522.7, 312.4)"> </text><text xml:space="preserve" font-family="Arial-ItalicMT,Arial" font-style="italic" font-size="22.0" fill="#333333" transform="matrix(1.00, 0.00, -0.00, -1.00, 528.8, 312.4)">o</text><text xml:space="preserve" font-family="Arial-ItalicMT,Arial" font-style="italic" font-size="22.0" fill="#333333" transform="matrix(1.00, 0.00, -0.00, -1.00, 541.1, 312.4)">r</text><text xml:space="preserve" font-family="Arial-ItalicMT,Arial" font-style="italic" font-size="22.0" fill="#333333" transform="matrix(1.00, 0.00, -0.00, -1.00, 548.4, 312.4)"> </text><text xml:space="preserve" font-family="Arial-ItalicMT,Arial" font-style="italic" font-size="22.0" fill="#333333" transform="matrix(1.00, 0.00, -0.00, -1.00, 554.5, 312.4)">f</text><text xml:space="preserve" font-family="Arial-ItalicMT,Arial" font-style="italic" font-size="22.0" fill="#333333" transform="matrix(1.00, 0.00, -0.00, -1.00, 560.6, 312.4)">r</text><text xml:space="preserve" font-family="Arial-ItalicMT,Arial" font-style="italic" font-size="22.0" fill="#333333" transform="matrix(1.00, 0.00, -0.00, -1.00, 567.9, 312.4)">a</text><text xml:space="preserve" font-family="Arial-ItalicMT,Arial" font-style="italic" font-size="22.0" fill="#333333" transform="matrix(1.00, 0.00, -0.00, -1.00, 580.2, 312.4)">m</text><text xml:space="preserve" font-family="Arial-ItalicMT,Arial" font-style="italic" font-size="22.0" fill="#333333" transform="matrix(1.00, 0.00, -0.00, -1.00, 598.5, 312.4)">e</text><text xml:space="preserve" font-family="Arial-ItalicMT,Arial" font-style="italic" font-size="22.0" fill="#333333" transform="matrix(1.00, 0.00, -0.00, -1.00, 610.7, 312.4)">w</text><text xml:space="preserve" font-family="Arial-ItalicMT,Arial" font-style="italic" font-size="22.0" fill="#333333" transform="matrix(1.00, 0.00, -0.00, -1.00, 626.6, 312.4)">o</text><text xml:space="preserve" font-family="Arial-ItalicMT,Arial" font-style="italic" font-size="22.0" fill="#333333" transform="matrix(1.00, 0.00, -0.00, -1.00, 638.9, 312.4)">r</text><text xml:space="preserve" font-family="Arial-ItalicMT,Arial" font-style="italic" font-size="22.0" fill="#333333" transform="matrix(1.00, 0.00, -0.00, -1.00, 646.2, 312.4)">k</text><text xml:space="preserve" font-family="Arial-ItalicMT,Arial" font-style="italic" font-size="22.0" fill="#333333" transform="matrix(1.00, 0.00, -0.00, -1.00, 657.2, 312.4)"> </text><text xml:space="preserve" font-family="Arial-ItalicMT,Arial" font-style="italic" font-size="22.0" fill="#333333" transform="matrix(1.00, 0.00, -0.00, -1.00, 663.3, 312.4)">t</text><text xml:space="preserve" font-family="Arial-ItalicMT,Arial" font-style="italic" font-size="22.0" fill="#333333" transform="matrix(1.00, 0.00, -0.00, -1.00, 669.4, 312.4)">o</text><text xml:space="preserve" font-family="Arial-ItalicMT,Arial" font-style="italic" font-size="22.0" fill="#333333" transform="matrix(1.00, 0.00, -0.00, -1.00, 681.7, 312.4)"> </text><text xml:space="preserve" font-family="Arial-ItalicMT,Arial" font-style="italic" font-size="22.0" fill="#333333" transform="matrix(1.00, 0.00, -0.00, -1.00, 54.2, 286.4)">w</text><text xml:space="preserve" font-family="Arial-ItalicMT,Arial" font-style="italic" font-size="22.0" fill="#333333" transform="matrix(1.00, 0.00, -0.00, -1.00, 70.1, 286.4)">r</text><text xml:space="preserve" font-family="Arial-ItalicMT,Arial" font-style="italic" font-size="22.0" fill="#333333" transform="matrix(1.00, 0.00, -0.00, -1.00, 77.4, 286.4)">i</text><text xml:space="preserve" font-family="Arial-ItalicMT,Arial" font-style="italic" font-size="22.0" fill="#333333" transform="matrix(1.00, 0.00, -0.00, -1.00, 82.3, 286.4)">t</text><text xml:space="preserve" font-family="Arial-ItalicMT,Arial" font-style="italic" font-size="22.0" fill="#333333" transform="matrix(1.00, 0.00, -0.00, -1.00, 88.4, 286.4)">e</text><text xml:space="preserve" font-family="Arial-ItalicMT,Arial" font-style="italic" font-size="22.0" fill="#333333" transform="matrix(1.00, 0.00, -0.00, -1.00, 100.6, 286.4)"> </text><text xml:space="preserve" font-family="Arial-ItalicMT,Arial" font-style="italic" font-size="22.0" fill="#333333" transform="matrix(1.00, 0.00, -0.00, -1.00, 106.8, 286.4)">a</text><text xml:space="preserve" font-family="Arial-ItalicMT,Arial" font-style="italic" font-size="22.0" fill="#333333" transform="matrix(1.00, 0.00, -0.00, -1.00, 119.0, 286.4)">n</text><text xml:space="preserve" font-family="Arial-ItalicMT,Arial" font-style="italic" font-size="22.0" fill="#333333" transform="matrix(1.00, 0.00, -0.00, -1.00, 131.2, 286.4)">d</text><text xml:space="preserve" font-family="Arial-ItalicMT,Arial" font-style="italic" font-size="22.0" fill="#333333" transform="matrix(1.00, 0.00, -0.00, -1.00, 143.5, 286.4)"> </text><text xml:space="preserve" font-family="Arial-ItalicMT,Arial" font-style="italic" font-size="22.0" fill="#333333" transform="matrix(1.00, 0.00, -0.00, -1.00, 149.6, 286.4)">r</text><text xml:space="preserve" font-family="Arial-ItalicMT,Arial" font-style="italic" font-size="22.0" fill="#333333" transform="matrix(1.00, 0.00, -0.00, -1.00, 156.9, 286.4)">u</text><text xml:space="preserve" font-family="Arial-ItalicMT,Arial" font-style="italic" font-size="22.0" fill="#333333" transform="matrix(1.00, 0.00, -0.00, -1.00, 169.1, 286.4)">n</text><text xml:space="preserve" font-family="Arial-ItalicMT,Arial" font-style="italic" font-size="22.0" fill="#333333" transform="matrix(1.00, 0.00, -0.00, -1.00, 181.4, 286.4)"> </text><text xml:space="preserve" font-family="Arial-ItalicMT,Arial" font-style="italic" font-size="22.0" fill="#333333" transform="matrix(1.00, 0.00, -0.00, -1.00, 187.5, 286.4)">y</text><text xml:space="preserve" font-family="Arial-ItalicMT,Arial" font-style="italic" font-size="22.0" fill="#333333" transform="matrix(1.00, 0.00, -0.00, -1.00, 198.5, 286.4)">o</text><text xml:space="preserve" font-family="Arial-ItalicMT,Arial" font-style="italic" font-size="22.0" fill="#333333" transform="matrix(1.00, 0.00, -0.00, -1.00, 210.7, 286.4)">u</text><text xml:space="preserve" font-family="Arial-ItalicMT,Arial" font-style="italic" font-size="22.0" fill="#333333" transform="matrix(1.00, 0.00, -0.00, -1.00, 223.0, 286.4)">r</text><text xml:space="preserve" font-family="Arial-ItalicMT,Arial" font-style="italic" font-size="22.0" fill="#333333" transform="matrix(1.00, 0.00, -0.00, -1.00, 230.3, 286.4)"> </text><text xml:space="preserve" font-family="Arial-ItalicMT,Arial" font-style="italic" font-size="22.0" fill="#333333" transform="matrix(1.00, 0.00, -0.00, -1.00, 236.4, 286.4)">t</text><text xml:space="preserve" font-family="Arial-ItalicMT,Arial" font-style="italic" font-size="22.0" fill="#333333" transform="matrix(1.00, 0.00, -0.00, -1.00, 242.5, 286.4)">e</text><text xml:space="preserve" font-family="Arial-ItalicMT,Arial" font-style="italic" font-size="22.0" fill="#333333" transform="matrix(1.00, 0.00, -0.00, -1.00, 254.8, 286.4)">s</text><text xml:space="preserve" font-family="Arial-ItalicMT,Arial" font-style="italic" font-size="22.0" fill="#333333" transform="matrix(1.00, 0.00, -0.00, -1.00, 265.8, 286.4)">t</text><text xml:space="preserve" font-family="Arial-ItalicMT,Arial" font-style="italic" font-size="22.0" fill="#333333" transform="matrix(1.00, 0.00, -0.00, -1.00, 271.9, 286.4)">s</text><text xml:space="preserve" font-family="Arial-ItalicMT,Arial" font-style="italic" font-size="22.0" fill="#333333" transform="matrix(1.00, 0.00, -0.00, -1.00, 282.9, 286.4)">.</text><text xml:space="preserve" font-family="Arial-ItalicMT,Arial" font-style="italic" font-size="22.0" fill="#333333" transform="matrix(1.00, 0.00, -0.00, -1.00, 289.0, 286.4)"> </text><text xml:space="preserve" font-family="ArialMT,Arial" font-size="22.0" fill="#333333" transform="matrix(1.00, 0.00, -0.00, -1.00, 63.2, 223.8)">•</text><text xml:space="preserve" font-family="ArialMT,Arial" font-size="22.0" fill="#333333" transform="matrix(1.00, 0.00, -0.00, -1.00, 90.2, 223.8)">W</text><text xml:space="preserve" font-family="ArialMT,Arial" font-size="22.0" fill="#333333" transform="matrix(1.00, 0.00, -0.00, -1.00, 110.6, 223.8)">r</text><text xml:space="preserve" font-family="ArialMT,Arial" font-size="22.0" fill="#333333" transform="matrix(1.00, 0.00, -0.00, -1.00, 117.9, 223.8)">a</text><text xml:space="preserve" font-family="ArialMT,Arial" font-size="22.0" fill="#333333" transform="matrix(1.00, 0.00, -0.00, -1.00, 130.1, 223.8)">p</text><text xml:space="preserve" font-family="ArialMT,Arial" font-size="22.0" fill="#333333" transform="matrix(1.00, 0.00, -0.00, -1.00, 142.4, 223.8)"> </text><text xml:space="preserve" font-family="ArialMT,Arial" font-size="22.0" fill="#333333" transform="matrix(1.00, 0.00, -0.00, -1.00, 148.5, 223.8)">t</text><text xml:space="preserve" font-family="ArialMT,Arial" font-size="22.0" fill="#333333" transform="matrix(1.00, 0.00, -0.00, -1.00, 154.6, 223.8)">h</text><text xml:space="preserve" font-family="ArialMT,Arial" font-size="22.0" fill="#333333" transform="matrix(1.00, 0.00, -0.00, -1.00, 166.8, 223.8)">e</text><text xml:space="preserve" font-family="ArialMT,Arial" font-size="22.0" fill="#333333" transform="matrix(1.00, 0.00, -0.00, -1.00, 179.1, 223.8)"> </text><text xml:space="preserve" font-family="ArialMT,Arial" font-size="22.0" fill="#333333" transform="matrix(1.00, 0.00, -0.00, -1.00, 185.2, 223.8)">v</text><text xml:space="preserve" font-family="ArialMT,Arial" font-size="22.0" fill="#333333" transform="matrix(1.00, 0.00, -0.00, -1.00, 196.2, 223.8)">e</text><text xml:space="preserve" font-family="ArialMT,Arial" font-size="22.0" fill="#333333" transform="matrix(1.00, 0.00, -0.00, -1.00, 208.4, 223.8)">n</text><text xml:space="preserve" font-family="ArialMT,Arial" font-size="22.0" fill="#333333" transform="matrix(1.00, 0.00, -0.00, -1.00, 220.6, 223.8)">d</text><text xml:space="preserve" font-family="ArialMT,Arial" font-size="22.0" fill="#333333" transform="matrix(1.00, 0.00, -0.00, -1.00, 232.9, 223.8)">o</text><text xml:space="preserve" font-family="ArialMT,Arial" font-size="22.0" fill="#333333" transform="matrix(1.00, 0.00, -0.00, -1.00, 245.1, 223.8)">r</text><text xml:space="preserve" font-family="ArialMT,Arial" font-size="22.0" fill="#333333" transform="matrix(1.00, 0.00, -0.00, -1.00, 252.4, 223.8)">-</text><text xml:space="preserve" font-family="ArialMT,Arial" font-size="22.0" fill="#333333" transform="matrix(1.00, 0.00, -0.00, -1.00, 259.8, 223.8)">p</text><text xml:space="preserve" font-family="ArialMT,Arial" font-size="22.0" fill="#333333" transform="matrix(1.00, 0.00, -0.00, -1.00, 272.0, 223.8)">r</text><text xml:space="preserve" font-family="ArialMT,Arial" font-size="22.0" fill="#333333" transform="matrix(1.00, 0.00, -0.00, -1.00, 279.3, 223.8)">o</text><text xml:space="preserve" font-family="ArialMT,Arial" font-size="22.0" fill="#333333" transform="matrix(1.00, 0.00, -0.00, -1.00, 291.6, 223.8)">v</text><text xml:space="preserve" font-family="ArialMT,Arial" font-size="22.0" fill="#333333" transform="matrix(1.00, 0.00, -0.00, -1.00, 302.6, 223.8)">i</text><text xml:space="preserve" font-family="ArialMT,Arial" font-size="22.0" fill="#333333" transform="matrix(1.00, 0.00, -0.00, -1.00, 307.5, 223.8)">d</text><text xml:space="preserve" font-family="ArialMT,Arial" font-size="22.0" fill="#333333" transform="matrix(1.00, 0.00, -0.00, -1.00, 319.7, 223.8)">e</text><text xml:space="preserve" font-family="ArialMT,Arial" font-size="22.0" fill="#333333" transform="matrix(1.00, 0.00, -0.00, -1.00, 331.9, 223.8)">d</text><text xml:space="preserve" font-family="ArialMT,Arial" font-size="22.0" fill="#333333" transform="matrix(1.00, 0.00, -0.00, -1.00, 344.2, 223.8)"> </text><text xml:space="preserve" font-family="ArialMT,Arial" font-size="22.0" fill="#333333" transform="matrix(1.00, 0.00, -0.00, -1.00, 350.3, 223.8)">f</text><text xml:space="preserve" font-family="ArialMT,Arial" font-size="22.0" fill="#333333" transform="matrix(1.00, 0.00, -0.00, -1.00, 356.4, 223.8)">r</text><text xml:space="preserve" font-family="ArialMT,Arial" font-size="22.0" fill="#333333" transform="matrix(1.00, 0.00, -0.00, -1.00, 363.7, 223.8)">a</text><text xml:space="preserve" font-family="ArialMT,Arial" font-size="22.0" fill="#333333" transform="matrix(1.00, 0.00, -0.00, -1.00, 376.0, 223.8)">m</text><text xml:space="preserve" font-family="ArialMT,Arial" font-size="22.0" fill="#333333" transform="matrix(1.00, 0.00, -0.00, -1.00, 394.3, 223.8)">e</text><text xml:space="preserve" font-family="ArialMT,Arial" font-size="22.0" fill="#333333" transform="matrix(1.00, 0.00, -0.00, -1.00, 406.5, 223.8)">w</text><text xml:space="preserve" font-family="ArialMT,Arial" font-size="22.0" fill="#333333" transform="matrix(1.00, 0.00, -0.00, -1.00, 422.4, 223.8)">o</text><text xml:space="preserve" font-family="ArialMT,Arial" font-size="22.0" fill="#333333" transform="matrix(1.00, 0.00, -0.00, -1.00, 434.7, 223.8)">r</text><text xml:space="preserve" font-family="ArialMT,Arial" font-size="22.0" fill="#333333" transform="matrix(1.00, 0.00, -0.00, -1.00, 442.0, 223.8)">k</text><text xml:space="preserve" font-family="ArialMT,Arial" font-size="22.0" fill="#333333" transform="matrix(1.00, 0.00, -0.00, -1.00, 453.0, 223.8)">s</text><text xml:space="preserve" font-family="ArialMT,Arial" font-size="22.0" fill="#333333" transform="matrix(1.00, 0.00, -0.00, -1.00, 464.0, 223.8)"> </text><text xml:space="preserve" font-family="ArialMT,Arial" font-size="22.0" fill="#333333" transform="matrix(1.00, 0.00, -0.00, -1.00, 470.1, 223.8)">i</text><text xml:space="preserve" font-family="ArialMT,Arial" font-size="22.0" fill="#333333" transform="matrix(1.00, 0.00, -0.00, -1.00, 475.0, 223.8)">n</text><text xml:space="preserve" font-family="ArialMT,Arial" font-size="22.0" fill="#333333" transform="matrix(1.00, 0.00, -0.00, -1.00, 487.2, 223.8)"> </text><text xml:space="preserve" font-family="ArialMT,Arial" font-size="22.0" fill="#333333" transform="matrix(1.00, 0.00, -0.00, -1.00, 493.3, 223.8)">a</text><text xml:space="preserve" font-family="ArialMT,Arial" font-size="22.0" fill="#333333" transform="matrix(1.00, 0.00, -0.00, -1.00, 505.6, 223.8)"> </text><text xml:space="preserve" font-family="ArialMT,Arial" font-size="22.0" fill="#333333" transform="matrix(1.00, 0.00, -0.00, -1.00, 511.7, 223.8)">c</text><text xml:space="preserve" font-family="ArialMT,Arial" font-size="22.0" fill="#333333" transform="matrix(1.00, 0.00, -0.00, -1.00, 522.7, 223.8)">o</text><text xml:space="preserve" font-family="ArialMT,Arial" font-size="22.0" fill="#333333" transform="matrix(1.00, 0.00, -0.00, -1.00, 534.9, 223.8)">m</text><text xml:space="preserve" font-family="ArialMT,Arial" font-size="22.0" fill="#333333" transform="matrix(1.00, 0.00, -0.00, -1.00, 553.3, 223.8)">m</text><text xml:space="preserve" font-family="ArialMT,Arial" font-size="22.0" fill="#333333" transform="matrix(1.00, 0.00, -0.00, -1.00, 571.6, 223.8)">o</text><text xml:space="preserve" font-family="ArialMT,Arial" font-size="22.0" fill="#333333" transform="matrix(1.00, 0.00, -0.00, -1.00, 583.8, 223.8)">n</text><text xml:space="preserve" font-family="ArialMT,Arial" font-size="22.0" fill="#333333" transform="matrix(1.00, 0.00, -0.00, -1.00, 596.1, 223.8)"> </text><text xml:space="preserve" font-family="ArialMT,Arial" font-size="22.0" fill="#333333" transform="matrix(1.00, 0.00, -0.00, -1.00, 601.0, 223.8)">A</text><text xml:space="preserve" font-family="ArialMT,Arial" font-size="22.0" fill="#333333" transform="matrix(1.00, 0.00, -0.00, -1.00, 615.6, 223.8)">P</text><text xml:space="preserve" font-family="ArialMT,Arial" font-size="22.0" fill="#333333" transform="matrix(1.00, 0.00, -0.00, -1.00, 630.3, 223.8)">I</text><text xml:space="preserve" font-family="ArialMT,Arial" font-size="22.0" fill="#333333" transform="matrix(1.00, 0.00, -0.00, -1.00, 636.4, 223.8)"> </text><text xml:space="preserve" font-family="ArialMT,Arial" font-size="22.0" fill="#333333" transform="matrix(1.00, 0.00, -0.00, -1.00, 90.2, 197.8)">k</text><text xml:space="preserve" font-family="ArialMT,Arial" font-size="22.0" fill="#333333" transform="matrix(1.00, 0.00, -0.00, -1.00, 101.2, 197.8)">n</text><text xml:space="preserve" font-family="ArialMT,Arial" font-size="22.0" fill="#333333" transform="matrix(1.00, 0.00, -0.00, -1.00, 113.4, 197.8)">o</text><text xml:space="preserve" font-family="ArialMT,Arial" font-size="22.0" fill="#333333" transform="matrix(1.00, 0.00, -0.00, -1.00, 125.7, 197.8)">w</text><text xml:space="preserve" font-family="ArialMT,Arial" font-size="22.0" fill="#333333" transform="matrix(1.00, 0.00, -0.00, -1.00, 141.6, 197.8)">n</text><text xml:space="preserve" font-family="ArialMT,Arial" font-size="22.0" fill="#333333" transform="matrix(1.00, 0.00, -0.00, -1.00, 153.8, 197.8)"> </text><text xml:space="preserve" font-family="ArialMT,Arial" font-size="22.0" fill="#333333" transform="matrix(1.00, 0.00, -0.00, -1.00, 159.9, 197.8)">a</text><text xml:space="preserve" font-family="ArialMT,Arial" font-size="22.0" fill="#333333" transform="matrix(1.00, 0.00, -0.00, -1.00, 172.1, 197.8)">s</text><text xml:space="preserve" font-family="ArialMT,Arial" font-size="22.0" fill="#333333" transform="matrix(1.00, 0.00, -0.00, -1.00, 183.1, 197.8)"> </text><text xml:space="preserve" font-family="ArialMT,Arial" font-size="22.0" fill="#333333" transform="matrix(1.00, 0.00, -0.00, -1.00, 189.3, 197.8)">t</text><text xml:space="preserve" font-family="ArialMT,Arial" font-size="22.0" fill="#333333" transform="matrix(1.00, 0.00, -0.00, -1.00, 195.4, 197.8)">h</text><text xml:space="preserve" font-family="ArialMT,Arial" font-size="22.0" fill="#333333" transform="matrix(1.00, 0.00, -0.00, -1.00, 207.6, 197.8)">e</text><text xml:space="preserve" font-family="ArialMT,Arial" font-size="22.0" fill="#333333" transform="matrix(1.00, 0.00, -0.00, -1.00, 219.8, 197.8)"> </text><text xml:space="preserve" font-family="ArialMT,Arial" font-size="22.0" fill="#333333" transform="matrix(1.00, 0.00, -0.00, -1.00, 225.9, 197.8)">W</text><text xml:space="preserve" font-family="ArialMT,Arial" font-size="22.0" fill="#333333" transform="matrix(1.00, 0.00, -0.00, -1.00, 246.3, 197.8)">e</text><text xml:space="preserve" font-family="ArialMT,Arial" font-size="22.0" fill="#333333" transform="matrix(1.00, 0.00, -0.00, -1.00, 258.6, 197.8)">b</text><text xml:space="preserve" font-family="ArialMT,Arial" font-size="22.0" fill="#333333" transform="matrix(1.00, 0.00, -0.00, -1.00, 270.8, 197.8)">D</text><text xml:space="preserve" font-family="ArialMT,Arial" font-size="22.0" fill="#333333" transform="matrix(1.00, 0.00, -0.00, -1.00, 286.7, 197.8)">r</text><text xml:space="preserve" font-family="ArialMT,Arial" font-size="22.0" fill="#333333" transform="matrix(1.00, 0.00, -0.00, -1.00, 294.0, 197.8)">i</text><text xml:space="preserve" font-family="ArialMT,Arial" font-size="22.0" fill="#333333" transform="matrix(1.00, 0.00, -0.00, -1.00, 298.9, 197.8)">v</text><text xml:space="preserve" font-family="ArialMT,Arial" font-size="22.0" fill="#333333" transform="matrix(1.00, 0.00, -0.00, -1.00, 309.9, 197.8)">e</text><text xml:space="preserve" font-family="ArialMT,Arial" font-size="22.0" fill="#333333" transform="matrix(1.00, 0.00, -0.00, -1.00, 322.1, 197.8)">r</text><text xml:space="preserve" font-family="ArialMT,Arial" font-size="22.0" fill="#333333" transform="matrix(1.00, 0.00, -0.00, -1.00, 329.5, 197.8)"> </text><text xml:space="preserve" font-family="ArialMT,Arial" font-size="22.0" fill="#333333" transform="matrix(1.00, 0.00, -0.00, -1.00, 334.4, 197.8)">A</text><text xml:space="preserve" font-family="ArialMT,Arial" font-size="22.0" fill="#333333" transform="matrix(1.00, 0.00, -0.00, -1.00, 349.0, 197.8)">P</text><text xml:space="preserve" font-family="ArialMT,Arial" font-size="22.0" fill="#333333" transform="matrix(1.00, 0.00, -0.00, -1.00, 363.7, 197.8)">I</text><text xml:space="preserve" font-family="ArialMT,Arial" font-size="22.0" fill="#333333" transform="matrix(1.00, 0.00, -0.00, -1.00, 369.8, 197.8)"> </text><text xml:space="preserve" font-family="ArialMT,Arial" font-size="22.0" fill="#333333" transform="matrix(1.00, 0.00, -0.00, -1.00, 63.2, 135.3)">•</text><text xml:space="preserve" font-family="ArialMT,Arial" font-size="22.0" fill="#333333" transform="matrix(1.00, 0.00, -0.00, -1.00, 90.2, 135.3)">W</text><text xml:space="preserve" font-family="ArialMT,Arial" font-size="22.0" fill="#333333" transform="matrix(1.00, 0.00, -0.00, -1.00, 110.6, 135.3)">e</text><text xml:space="preserve" font-family="ArialMT,Arial" font-size="22.0" fill="#333333" transform="matrix(1.00, 0.00, -0.00, -1.00, 122.8, 135.3)">b</text><text xml:space="preserve" font-family="ArialMT,Arial" font-size="22.0" fill="#333333" transform="matrix(1.00, 0.00, -0.00, -1.00, 135.0, 135.3)">D</text><text xml:space="preserve" font-family="ArialMT,Arial" font-size="22.0" fill="#333333" transform="matrix(1.00, 0.00, -0.00, -1.00, 150.9, 135.3)">r</text><text xml:space="preserve" font-family="ArialMT,Arial" font-size="22.0" fill="#333333" transform="matrix(1.00, 0.00, -0.00, -1.00, 158.2, 135.3)">i</text><text xml:space="preserve" font-family="ArialMT,Arial" font-size="22.0" fill="#333333" transform="matrix(1.00, 0.00, -0.00, -1.00, 163.1, 135.3)">v</text><text xml:space="preserve" font-family="ArialMT,Arial" font-size="22.0" fill="#333333" transform="matrix(1.00, 0.00, -0.00, -1.00, 174.1, 135.3)">e</text><text xml:space="preserve" font-family="ArialMT,Arial" font-size="22.0" fill="#333333" transform="matrix(1.00, 0.00, -0.00, -1.00, 186.4, 135.3)">r</text><text xml:space="preserve" font-family="ArialMT,Arial" font-size="22.0" fill="#333333" transform="matrix(1.00, 0.00, -0.00, -1.00, 193.7, 135.3)"> </text><text xml:space="preserve" font-family="ArialMT,Arial" font-size="22.0" fill="#333333" transform="matrix(1.00, 0.00, -0.00, -1.00, 199.8, 135.3)">p</text><text xml:space="preserve" font-family="ArialMT,Arial" font-size="22.0" fill="#333333" transform="matrix(1.00, 0.00, -0.00, -1.00, 212.1, 135.3)">r</text><text xml:space="preserve" font-family="ArialMT,Arial" font-size="22.0" fill="#333333" transform="matrix(1.00, 0.00, -0.00, -1.00, 219.4, 135.3)">o</text><text xml:space="preserve" font-family="ArialMT,Arial" font-size="22.0" fill="#333333" transform="matrix(1.00, 0.00, -0.00, -1.00, 231.6, 135.3)">v</text><text xml:space="preserve" font-family="ArialMT,Arial" font-size="22.0" fill="#333333" transform="matrix(1.00, 0.00, -0.00, -1.00, 242.6, 135.3)">i</text><text xml:space="preserve" font-family="ArialMT,Arial" font-size="22.0" fill="#333333" transform="matrix(1.00, 0.00, -0.00, -1.00, 247.5, 135.3)">d</text><text xml:space="preserve" font-family="ArialMT,Arial" font-size="22.0" fill="#333333" transform="matrix(1.00, 0.00, -0.00, -1.00, 259.8, 135.3)">e</text><text xml:space="preserve" font-family="ArialMT,Arial" font-size="22.0" fill="#333333" transform="matrix(1.00, 0.00, -0.00, -1.00, 272.0, 135.3)">s</text><text xml:space="preserve" font-family="ArialMT,Arial" font-size="22.0" fill="#333333" transform="matrix(1.00, 0.00, -0.00, -1.00, 283.0, 135.3)"> </text><text xml:space="preserve" font-family="ArialMT,Arial" font-size="22.0" fill="#333333" transform="matrix(1.00, 0.00, -0.00, -1.00, 289.1, 135.3)">a</text><text xml:space="preserve" font-family="ArialMT,Arial" font-size="22.0" fill="#333333" transform="matrix(1.00, 0.00, -0.00, -1.00, 301.3, 135.3)"> </text><text xml:space="preserve" font-family="ArialMT,Arial" font-size="22.0" fill="#333333" transform="matrix(1.00, 0.00, -0.00, -1.00, 307.4, 135.3)">c</text><text xml:space="preserve" font-family="ArialMT,Arial" font-size="22.0" fill="#333333" transform="matrix(1.00, 0.00, -0.00, -1.00, 318.4, 135.3)">l</text><text xml:space="preserve" font-family="ArialMT,Arial" font-size="22.0" fill="#333333" transform="matrix(1.00, 0.00, -0.00, -1.00, 323.3, 135.3)">i</text><text xml:space="preserve" font-family="ArialMT,Arial" font-size="22.0" fill="#333333" transform="matrix(1.00, 0.00, -0.00, -1.00, 328.2, 135.3)">e</text><text xml:space="preserve" font-family="ArialMT,Arial" font-size="22.0" fill="#333333" transform="matrix(1.00, 0.00, -0.00, -1.00, 340.5, 135.3)">n</text><text xml:space="preserve" font-family="ArialMT,Arial" font-size="22.0" fill="#333333" transform="matrix(1.00, 0.00, -0.00, -1.00, 352.7, 135.3)">t</text><text xml:space="preserve" font-family="ArialMT,Arial" font-size="22.0" fill="#333333" transform="matrix(1.00, 0.00, -0.00, -1.00, 358.8, 135.3)">-</text><text xml:space="preserve" font-family="ArialMT,Arial" font-size="22.0" fill="#333333" transform="matrix(1.00, 0.00, -0.00, -1.00, 366.1, 135.3)">s</text><text xml:space="preserve" font-family="ArialMT,Arial" font-size="22.0" fill="#333333" transform="matrix(1.00, 0.00, -0.00, -1.00, 377.1, 135.3)">e</text><text xml:space="preserve" font-family="ArialMT,Arial" font-size="22.0" fill="#333333" transform="matrix(1.00, 0.00, -0.00, -1.00, 389.4, 135.3)">r</text><text xml:space="preserve" font-family="ArialMT,Arial" font-size="22.0" fill="#333333" transform="matrix(1.00, 0.00, -0.00, -1.00, 396.7, 135.3)">v</text><text xml:space="preserve" font-family="ArialMT,Arial" font-size="22.0" fill="#333333" transform="matrix(1.00, 0.00, -0.00, -1.00, 407.7, 135.3)">e</text><text xml:space="preserve" font-family="ArialMT,Arial" font-size="22.0" fill="#333333" transform="matrix(1.00, 0.00, -0.00, -1.00, 420.0, 135.3)">r</text><text xml:space="preserve" font-family="ArialMT,Arial" font-size="22.0" fill="#333333" transform="matrix(1.00, 0.00, -0.00, -1.00, 427.3, 135.3)"> </text><text xml:space="preserve" font-family="ArialMT,Arial" font-size="22.0" fill="#333333" transform="matrix(1.00, 0.00, -0.00, -1.00, 433.4, 135.3)">p</text><text xml:space="preserve" font-family="ArialMT,Arial" font-size="22.0" fill="#333333" transform="matrix(1.00, 0.00, -0.00, -1.00, 445.6, 135.3)">r</text><text xml:space="preserve" font-family="ArialMT,Arial" font-size="22.0" fill="#333333" transform="matrix(1.00, 0.00, -0.00, -1.00, 453.0, 135.3)">o</text><text xml:space="preserve" font-family="ArialMT,Arial" font-size="22.0" fill="#333333" transform="matrix(1.00, 0.00, -0.00, -1.00, 465.2, 135.3)">t</text><text xml:space="preserve" font-family="ArialMT,Arial" font-size="22.0" fill="#333333" transform="matrix(1.00, 0.00, -0.00, -1.00, 471.3, 135.3)">o</text><text xml:space="preserve" font-family="ArialMT,Arial" font-size="22.0" fill="#333333" transform="matrix(1.00, 0.00, -0.00, -1.00, 483.5, 135.3)">c</text><text xml:space="preserve" font-family="ArialMT,Arial" font-size="22.0" fill="#333333" transform="matrix(1.00, 0.00, -0.00, -1.00, 494.5, 135.3)">o</text><text xml:space="preserve" font-family="ArialMT,Arial" font-size="22.0" fill="#333333" transform="matrix(1.00, 0.00, -0.00, -1.00, 506.8, 135.3)">l</text><text xml:space="preserve" font-family="ArialMT,Arial" font-size="22.0" fill="#333333" transform="matrix(1.00, 0.00, -0.00, -1.00, 511.7, 135.3)"> </text><text xml:space="preserve" font-family="ArialMT,Arial" font-size="22.0" fill="#333333" transform="matrix(1.00, 0.00, -0.00, -1.00, 517.8, 135.3)">c</text><text xml:space="preserve" font-family="ArialMT,Arial" font-size="22.0" fill="#333333" transform="matrix(1.00, 0.00, -0.00, -1.00, 528.8, 135.3)">a</text><text xml:space="preserve" font-family="ArialMT,Arial" font-size="22.0" fill="#333333" transform="matrix(1.00, 0.00, -0.00, -1.00, 541.0, 135.3)">l</text><text xml:space="preserve" font-family="ArialMT,Arial" font-size="22.0" fill="#333333" transform="matrix(1.00, 0.00, -0.00, -1.00, 545.9, 135.3)">l</text><text xml:space="preserve" font-family="ArialMT,Arial" font-size="22.0" fill="#333333" transform="matrix(1.00, 0.00, -0.00, -1.00, 550.8, 135.3)">e</text><text xml:space="preserve" font-family="ArialMT,Arial" font-size="22.0" fill="#333333" transform="matrix(1.00, 0.00, -0.00, -1.00, 563.0, 135.3)">d</text><text xml:space="preserve" font-family="ArialMT,Arial" font-size="22.0" fill="#333333" transform="matrix(1.00, 0.00, -0.00, -1.00, 575.3, 135.3)"> </text><text xml:space="preserve" font-family="ArialMT,Arial" font-size="22.0" fill="#333333" transform="matrix(1.00, 0.00, -0.00, -1.00, 581.4, 135.3)">J</text><text xml:space="preserve" font-family="ArialMT,Arial" font-size="22.0" fill="#333333" transform="matrix(1.00, 0.00, -0.00, -1.00, 592.4, 135.3)">S</text><text xml:space="preserve" font-family="ArialMT,Arial" font-size="22.0" fill="#333333" transform="matrix(1.00, 0.00, -0.00, -1.00, 607.1, 135.3)">O</text><text xml:space="preserve" font-family="ArialMT,Arial" font-size="22.0" fill="#333333" transform="matrix(1.00, 0.00, -0.00, -1.00, 624.2, 135.3)">N</text><text xml:space="preserve" font-family="ArialMT,Arial" font-size="22.0" fill="#333333" transform="matrix(1.00, 0.00, -0.00, -1.00, 640.1, 135.3)"> </text><text xml:space="preserve" font-family="ArialMT,Arial" font-size="22.0" fill="#333333" transform="matrix(1.00, 0.00, -0.00, -1.00, 90.2, 109.3)">w</text><text xml:space="preserve" font-family="ArialMT,Arial" font-size="22.0" fill="#333333" transform="matrix(1.00, 0.00, -0.00, -1.00, 106.1, 109.3)">i</text><text xml:space="preserve" font-family="ArialMT,Arial" font-size="22.0" fill="#333333" transform="matrix(1.00, 0.00, -0.00, -1.00, 111.0, 109.3)">r</text><text xml:space="preserve" font-family="ArialMT,Arial" font-size="22.0" fill="#333333" transform="matrix(1.00, 0.00, -0.00, -1.00, 118.3, 109.3)">e</text><text xml:space="preserve" font-family="ArialMT,Arial" font-size="22.0" fill="#333333" transform="matrix(1.00, 0.00, -0.00, -1.00, 130.5, 109.3)">-</text><text xml:space="preserve" font-family="ArialMT,Arial" font-size="22.0" fill="#333333" transform="matrix(1.00, 0.00, -0.00, -1.00, 137.9, 109.3)">p</text><text xml:space="preserve" font-family="ArialMT,Arial" font-size="22.0" fill="#333333" transform="matrix(1.00, 0.00, -0.00, -1.00, 150.1, 109.3)">r</text><text xml:space="preserve" font-family="ArialMT,Arial" font-size="22.0" fill="#333333" transform="matrix(1.00, 0.00, -0.00, -1.00, 157.4, 109.3)">o</text><text xml:space="preserve" font-family="ArialMT,Arial" font-size="22.0" fill="#333333" transform="matrix(1.00, 0.00, -0.00, -1.00, 169.7, 109.3)">t</text><text xml:space="preserve" font-family="ArialMT,Arial" font-size="22.0" fill="#333333" transform="matrix(1.00, 0.00, -0.00, -1.00, 175.8, 109.3)">o</text><text xml:space="preserve" font-family="ArialMT,Arial" font-size="22.0" fill="#333333" transform="matrix(1.00, 0.00, -0.00, -1.00, 188.0, 109.3)">c</text><text xml:space="preserve" font-family="ArialMT,Arial" font-size="22.0" fill="#333333" transform="matrix(1.00, 0.00, -0.00, -1.00, 199.0, 109.3)">o</text><text xml:space="preserve" font-family="ArialMT,Arial" font-size="22.0" fill="#333333" transform="matrix(1.00, 0.00, -0.00, -1.00, 211.3, 109.3)">l</text><text xml:space="preserve" font-family="ArialMT,Arial" font-size="12.0" fill="#333333" transform="matrix(1.00, 0.00, -0.00, -1.00, 686.7, 10.0)">8</text></g></svg>