<?xml version="1.0" encoding="UTF-8" standalone="no"?><svg xmlns="http://www.w3.org/2000/svg" xmlns:xlink="http://www.w3.org/1999/xlink" clip-rule="evenodd" stroke-miterlimit="10" viewBox="0 0 720 405"><desc>SVG generated by Keynote</desc><defs></defs><g transform="matrix(1.00, 0.00, -0.00, -1.00, 0.0, 405.0)"><path d="M 0.0 405.0 L 720.0 405.0 L 720.0 0.0 L 0.0 0.0 Z M 0.0 405.0 " fill="#FFFFFF"></path><image xlink:href="../../22F37CDA-977A-4F5F-AC8F-7B619332684C/assets/CF5371EDAD41EE4A4DDAC6FB5B300F29.png" width="1920.00" height="108.00" transform="matrix(0.38, 0.00, -0.00, -0.07, 0.0, 405.0)"></image><image xlink:href="../../22F37CDA-977A-4F5F-AC8F-7B619332684C/assets/835323990485373A14BF16A2D952197A.png" width="182.00" height="160.00" transform="matrix(0.37, 0.00, -0.00, -0.37, 642.0, 405.0)"></image><text xml:space="preserve" font-family="Arial-BoldMT,Arial" font-weight="bold" font-size="24.0" fill="#333333" transform="matrix(1.00, 0.00, -0.00, -1.00, 27.4, 363.9)">A</text><text xml:space="preserve" font-family="Arial-BoldMT,Arial" font-weight="bold" font-size="24.0" fill="#333333" transform="matrix(1.00, 0.00, -0.00, -1.00, 44.7, 363.9)">p</text><text xml:space="preserve" font-family="Arial-BoldMT,Arial" font-weight="bold" font-size="24.0" fill="#333333" transform="matrix(1.00, 0.00, -0.00, -1.00, 59.4, 363.9)">p</text><text xml:space="preserve" font-family="Arial-BoldMT,Arial" font-weight="bold" font-size="24.0" fill="#333333" transform="matrix(1.00, 0.00, -0.00, -1.00, 74.0, 363.9)">i</text><text xml:space="preserve" font-family="Arial-BoldMT,Arial" font-weight="bold" font-size="24.0" fill="#333333" transform="matrix(1.00, 0.00, -0.00, -1.00, 80.7, 363.9)">u</text><text xml:space="preserve" font-family="Arial-BoldMT,Arial" font-weight="bold" font-size="24.0" fill="#333333" transform="matrix(1.00, 0.00, -0.00, -1.00, 95.4, 363.9)">m</text><text xml:space="preserve" font-family="Arial-BoldMT,Arial" font-weight="bold" font-size="24.0" fill="#333333" transform="matrix(1.00, 0.00, -0.00, -1.00, 116.7, 363.9)"> </text><text xml:space="preserve" font-family="Arial-BoldMT,Arial" font-weight="bold" font-size="24.0" fill="#333333" transform="matrix(1.00, 0.00, -0.00, -1.00, 123.4, 363.9)">J</text><text xml:space="preserve" font-family="Arial-BoldMT,Arial" font-weight="bold" font-size="24.0" fill="#333333" transform="matrix(1.00, 0.00, -0.00, -1.00, 136.7, 363.9)">a</text><text xml:space="preserve" font-family="Arial-BoldMT,Arial" font-weight="bold" font-size="24.0" fill="#333333" transform="matrix(1.00, 0.00, -0.00, -1.00, 150.1, 363.9)">v</text><text xml:space="preserve" font-family="Arial-BoldMT,Arial" font-weight="bold" font-size="24.0" fill="#333333" transform="matrix(1.00, 0.00, -0.00, -1.00, 163.4, 363.9)">a</text><text xml:space="preserve" font-family="Arial-BoldMT,Arial" font-weight="bold" font-size="24.0" fill="#333333" transform="matrix(1.00, 0.00, -0.00, -1.00, 176.8, 363.9)"> </text><text xml:space="preserve" font-family="Arial-BoldMT,Arial" font-weight="bold" font-size="24.0" fill="#333333" transform="matrix(1.00, 0.00, -0.00, -1.00, 183.5, 363.9)">C</text><text xml:space="preserve" font-family="Arial-BoldMT,Arial" font-weight="bold" font-size="24.0" fill="#333333" transform="matrix(1.00, 0.00, -0.00, -1.00, 200.8, 363.9)">l</text><text xml:space="preserve" font-family="Arial-BoldMT,Arial" font-weight="bold" font-size="24.0" fill="#333333" transform="matrix(1.00, 0.00, -0.00, -1.00, 207.5, 363.9)">i</text><text xml:space="preserve" font-family="Arial-BoldMT,Arial" font-weight="bold" font-size="24.0" fill="#333333" transform="matrix(1.00, 0.00, -0.00, -1.00, 214.1, 363.9)">e</text><text xml:space="preserve" font-family="Arial-BoldMT,Arial" font-weight="bold" font-size="24.0" fill="#333333" transform="matrix(1.00, 0.00, -0.00, -1.00, 227.5, 363.9)">n</text><text xml:space="preserve" font-family="Arial-BoldMT,Arial" font-weight="bold" font-size="24.0" fill="#333333" transform="matrix(1.00, 0.00, -0.00, -1.00, 242.2, 363.9)">t</text><text xml:space="preserve" font-family="ArialMT,Arial" font-size="22.0" fill="#333333" transform="matrix(1.00, 0.00, -0.00, -1.00, 27.2, 312.4)">•</text><text xml:space="preserve" font-family="ArialMT,Arial" font-size="22.0" fill="#333333" transform="matrix(1.00, 0.00, -0.00, -1.00, 54.2, 312.4)">S</text><text xml:space="preserve" font-family="ArialMT,Arial" font-size="22.0" fill="#333333" transform="matrix(1.00, 0.00, -0.00, -1.00, 68.9, 312.4)">i</text><text xml:space="preserve" font-family="ArialMT,Arial" font-size="22.0" fill="#333333" transform="matrix(1.00, 0.00, -0.00, -1.00, 73.8, 312.4)">m</text><text xml:space="preserve" font-family="ArialMT,Arial" font-size="22.0" fill="#333333" transform="matrix(1.00, 0.00, -0.00, -1.00, 92.1, 312.4)">p</text><text xml:space="preserve" font-family="ArialMT,Arial" font-size="22.0" fill="#333333" transform="matrix(1.00, 0.00, -0.00, -1.00, 104.3, 312.4)">l</text><text xml:space="preserve" font-family="ArialMT,Arial" font-size="22.0" fill="#333333" transform="matrix(1.00, 0.00, -0.00, -1.00, 109.2, 312.4)">e</text><text xml:space="preserve" font-family="ArialMT,Arial" font-size="22.0" fill="#333333" transform="matrix(1.00, 0.00, -0.00, -1.00, 121.5, 312.4)"> </text><text xml:space="preserve" font-family="ArialMT,Arial" font-size="22.0" fill="#333333" transform="matrix(1.00, 0.00, -0.00, -1.00, 127.6, 312.4)">w</text><text xml:space="preserve" font-family="ArialMT,Arial" font-size="22.0" fill="#333333" transform="matrix(1.00, 0.00, -0.00, -1.00, 143.5, 312.4)">r</text><text xml:space="preserve" font-family="ArialMT,Arial" font-size="22.0" fill="#333333" transform="matrix(1.00, 0.00, -0.00, -1.00, 150.8, 312.4)">a</text><text xml:space="preserve" font-family="ArialMT,Arial" font-size="22.0" fill="#333333" transform="matrix(1.00, 0.00, -0.00, -1.00, 163.0, 312.4)">p</text><text xml:space="preserve" font-family="ArialMT,Arial" font-size="22.0" fill="#333333" transform="matrix(1.00, 0.00, -0.00, -1.00, 175.3, 312.4)">p</text><text xml:space="preserve" font-family="ArialMT,Arial" font-size="22.0" fill="#333333" transform="matrix(1.00, 0.00, -0.00, -1.00, 187.5, 312.4)">e</text><text xml:space="preserve" font-family="ArialMT,Arial" font-size="22.0" fill="#333333" transform="matrix(1.00, 0.00, -0.00, -1.00, 199.7, 312.4)">r</text><text xml:space="preserve" font-family="ArialMT,Arial" font-size="22.0" fill="#333333" transform="matrix(1.00, 0.00, -0.00, -1.00, 207.1, 312.4)"> </text><text xml:space="preserve" font-family="ArialMT,Arial" font-size="22.0" fill="#333333" transform="matrix(1.00, 0.00, -0.00, -1.00, 213.2, 312.4)">o</text><text xml:space="preserve" font-family="ArialMT,Arial" font-size="22.0" fill="#333333" transform="matrix(1.00, 0.00, -0.00, -1.00, 225.4, 312.4)">f</text><text xml:space="preserve" font-family="ArialMT,Arial" font-size="22.0" fill="#333333" transform="matrix(1.00, 0.00, -0.00, -1.00, 231.5, 312.4)"> </text><text xml:space="preserve" font-family="ArialMT,Arial" font-size="22.0" fill="#333333" transform="matrix(1.00, 0.00, -0.00, -1.00, 237.6, 312.4)">S</text><text xml:space="preserve" font-family="ArialMT,Arial" font-size="22.0" fill="#333333" transform="matrix(1.00, 0.00, -0.00, -1.00, 252.3, 312.4)">e</text><text xml:space="preserve" font-family="ArialMT,Arial" font-size="22.0" fill="#333333" transform="matrix(1.00, 0.00, -0.00, -1.00, 264.5, 312.4)">l</text><text xml:space="preserve" font-family="ArialMT,Arial" font-size="22.0" fill="#333333" transform="matrix(1.00, 0.00, -0.00, -1.00, 269.4, 312.4)">e</text><text xml:space="preserve" font-family="ArialMT,Arial" font-size="22.0" fill="#333333" transform="matrix(1.00, 0.00, -0.00, -1.00, 281.7, 312.4)">n</text><text xml:space="preserve" font-family="ArialMT,Arial" font-size="22.0" fill="#333333" transform="matrix(1.00, 0.00, -0.00, -1.00, 293.9, 312.4)">i</text><text xml:space="preserve" font-family="ArialMT,Arial" font-size="22.0" fill="#333333" transform="matrix(1.00, 0.00, -0.00, -1.00, 298.8, 312.4)">u</text><text xml:space="preserve" font-family="ArialMT,Arial" font-size="22.0" fill="#333333" transform="matrix(1.00, 0.00, -0.00, -1.00, 311.0, 312.4)">m</text><text xml:space="preserve" font-family="ArialMT,Arial" font-size="22.0" fill="#333333" transform="matrix(1.00, 0.00, -0.00, -1.00, 329.4, 312.4)"> </text><text xml:space="preserve" font-family="ArialMT,Arial" font-size="22.0" fill="#333333" transform="matrix(1.00, 0.00, -0.00, -1.00, 335.5, 312.4)">2</text><text xml:space="preserve" font-family="ArialMT,Arial" font-size="22.0" fill="#333333" transform="matrix(1.00, 0.00, -0.00, -1.00, 347.7, 312.4)">.</text><text xml:space="preserve" font-family="ArialMT,Arial" font-size="22.0" fill="#333333" transform="matrix(1.00, 0.00, -0.00, -1.00, 353.8, 312.4)">x</text><text xml:space="preserve" font-family="ArialMT,Arial" font-size="22.0" fill="#333333" transform="matrix(1.00, 0.00, -0.00, -1.00, 364.8, 312.4)"> </text><text xml:space="preserve" font-family="ArialMT,Arial" font-size="22.0" fill="#333333" transform="matrix(1.00, 0.00, -0.00, -1.00, 27.2, 249.8)">•</text><text xml:space="preserve" font-family="ArialMT,Arial" font-size="22.0" fill="#333333" transform="matrix(1.00, 0.00, -0.00, -1.00, 54.2, 249.8)">U</text><text xml:space="preserve" font-family="ArialMT,Arial" font-size="22.0" fill="#333333" transform="matrix(1.00, 0.00, -0.00, -1.00, 70.1, 249.8)">s</text><text xml:space="preserve" font-family="ArialMT,Arial" font-size="22.0" fill="#333333" transform="matrix(1.00, 0.00, -0.00, -1.00, 81.1, 249.8)">e</text><text xml:space="preserve" font-family="ArialMT,Arial" font-size="22.0" fill="#333333" transform="matrix(1.00, 0.00, -0.00, -1.00, 93.3, 249.8)">s</text><text xml:space="preserve" font-family="ArialMT,Arial" font-size="22.0" fill="#333333" transform="matrix(1.00, 0.00, -0.00, -1.00, 104.3, 249.8)"> </text><text xml:space="preserve" font-family="ArialMT,Arial" font-size="22.0" fill="#333333" transform="matrix(1.00, 0.00, -0.00, -1.00, 110.4, 249.8)">G</text><text xml:space="preserve" font-family="ArialMT,Arial" font-size="22.0" fill="#333333" transform="matrix(1.00, 0.00, -0.00, -1.00, 127.5, 249.8)">S</text><text xml:space="preserve" font-family="ArialMT,Arial" font-size="22.0" fill="#333333" transform="matrix(1.00, 0.00, -0.00, -1.00, 142.2, 249.8)">O</text><text xml:space="preserve" font-family="ArialMT,Arial" font-size="22.0" fill="#333333" transform="matrix(1.00, 0.00, -0.00, -1.00, 159.3, 249.8)">N</text><text xml:space="preserve" font-family="ArialMT,Arial" font-size="22.0" fill="#333333" transform="matrix(1.00, 0.00, -0.00, -1.00, 175.2, 249.8)"> </text><text xml:space="preserve" font-family="ArialMT,Arial" font-size="22.0" fill="#333333" transform="matrix(1.00, 0.00, -0.00, -1.00, 181.3, 249.8)">(</text><text xml:space="preserve" font-family="ArialMT,Arial" font-size="22.0" fill="#333333" transform="matrix(1.00, 0.00, -0.00, -1.00, 188.6, 249.8)">G</text><text xml:space="preserve" font-family="ArialMT,Arial" font-size="22.0" fill="#333333" transform="matrix(1.00, 0.00, -0.00, -1.00, 205.8, 249.8)">o</text><text xml:space="preserve" font-family="ArialMT,Arial" font-size="22.0" fill="#333333" transform="matrix(1.00, 0.00, -0.00, -1.00, 218.0, 249.8)">o</text><text xml:space="preserve" font-family="ArialMT,Arial" font-size="22.0" fill="#333333" transform="matrix(1.00, 0.00, -0.00, -1.00, 230.2, 249.8)">g</text><text xml:space="preserve" font-family="ArialMT,Arial" font-size="22.0" fill="#333333" transform="matrix(1.00, 0.00, -0.00, -1.00, 242.5, 249.8)">l</text><text xml:space="preserve" font-family="ArialMT,Arial" font-size="22.0" fill="#333333" transform="matrix(1.00, 0.00, -0.00, -1.00, 247.4, 249.8)">e</text><text xml:space="preserve" font-family="ArialMT,Arial" font-size="22.0" fill="#333333" transform="matrix(1.00, 0.00, -0.00, -1.00, 259.6, 249.8)">’</text><text xml:space="preserve" font-family="ArialMT,Arial" font-size="22.0" fill="#333333" transform="matrix(1.00, 0.00, -0.00, -1.00, 264.1, 249.8)">s</text><text xml:space="preserve" font-family="ArialMT,Arial" font-size="22.0" fill="#333333" transform="matrix(1.00, 0.00, -0.00, -1.00, 275.1, 249.8)"> </text><text xml:space="preserve" font-family="ArialMT,Arial" font-size="22.0" fill="#333333" transform="matrix(1.00, 0.00, -0.00, -1.00, 281.2, 249.8)">J</text><text xml:space="preserve" font-family="ArialMT,Arial" font-size="22.0" fill="#333333" transform="matrix(1.00, 0.00, -0.00, -1.00, 292.2, 249.8)">S</text><text xml:space="preserve" font-family="ArialMT,Arial" font-size="22.0" fill="#333333" transform="matrix(1.00, 0.00, -0.00, -1.00, 306.9, 249.8)">O</text><text xml:space="preserve" font-family="ArialMT,Arial" font-size="22.0" fill="#333333" transform="matrix(1.00, 0.00, -0.00, -1.00, 324.0, 249.8)">N</text><text xml:space="preserve" font-family="ArialMT,Arial" font-size="22.0" fill="#333333" transform="matrix(1.00, 0.00, -0.00, -1.00, 339.9, 249.8)"> </text><text xml:space="preserve" font-family="ArialMT,Arial" font-size="22.0" fill="#333333" transform="matrix(1.00, 0.00, -0.00, -1.00, 346.0, 249.8)">l</text><text xml:space="preserve" font-family="ArialMT,Arial" font-size="22.0" fill="#333333" transform="matrix(1.00, 0.00, -0.00, -1.00, 350.9, 249.8)">i</text><text xml:space="preserve" font-family="ArialMT,Arial" font-size="22.0" fill="#333333" transform="matrix(1.00, 0.00, -0.00, -1.00, 355.8, 249.8)">b</text><text xml:space="preserve" font-family="ArialMT,Arial" font-size="22.0" fill="#333333" transform="matrix(1.00, 0.00, -0.00, -1.00, 368.0, 249.8)">r</text><text xml:space="preserve" font-family="ArialMT,Arial" font-size="22.0" fill="#333333" transform="matrix(1.00, 0.00, -0.00, -1.00, 375.3, 249.8)">a</text><text xml:space="preserve" font-family="ArialMT,Arial" font-size="22.0" fill="#333333" transform="matrix(1.00, 0.00, -0.00, -1.00, 387.6, 249.8)">r</text><text xml:space="preserve" font-family="ArialMT,Arial" font-size="22.0" fill="#333333" transform="matrix(1.00, 0.00, -0.00, -1.00, 394.9, 249.8)">y</text><text xml:space="preserve" font-family="ArialMT,Arial" font-size="22.0" fill="#333333" transform="matrix(1.00, 0.00, -0.00, -1.00, 405.9, 249.8)">)</text><text xml:space="preserve" font-family="ArialMT,Arial" font-size="22.0" fill="#333333" transform="matrix(1.00, 0.00, -0.00, -1.00, 413.2, 249.8)"> </text><text xml:space="preserve" font-family="ArialMT,Arial" font-size="22.0" fill="#333333" transform="matrix(1.00, 0.00, -0.00, -1.00, 419.3, 249.8)">f</text><text xml:space="preserve" font-family="ArialMT,Arial" font-size="22.0" fill="#333333" transform="matrix(1.00, 0.00, -0.00, -1.00, 425.4, 249.8)">o</text><text xml:space="preserve" font-family="ArialMT,Arial" font-size="22.0" fill="#333333" transform="matrix(1.00, 0.00, -0.00, -1.00, 437.7, 249.8)">r</text><text xml:space="preserve" font-family="ArialMT,Arial" font-size="22.0" fill="#333333" transform="matrix(1.00, 0.00, -0.00, -1.00, 445.0, 249.8)"> </text><text xml:space="preserve" font-family="ArialMT,Arial" font-size="22.0" fill="#333333" transform="matrix(1.00, 0.00, -0.00, -1.00, 451.1, 249.8)">c</text><text xml:space="preserve" font-family="ArialMT,Arial" font-size="22.0" fill="#333333" transform="matrix(1.00, 0.00, -0.00, -1.00, 462.1, 249.8)">o</text><text xml:space="preserve" font-family="ArialMT,Arial" font-size="22.0" fill="#333333" transform="matrix(1.00, 0.00, -0.00, -1.00, 474.4, 249.8)">m</text><text xml:space="preserve" font-family="ArialMT,Arial" font-size="22.0" fill="#333333" transform="matrix(1.00, 0.00, -0.00, -1.00, 492.7, 249.8)">m</text><text xml:space="preserve" font-family="ArialMT,Arial" font-size="22.0" fill="#333333" transform="matrix(1.00, 0.00, -0.00, -1.00, 511.0, 249.8)">u</text><text xml:space="preserve" font-family="ArialMT,Arial" font-size="22.0" fill="#333333" transform="matrix(1.00, 0.00, -0.00, -1.00, 523.2, 249.8)">n</text><text xml:space="preserve" font-family="ArialMT,Arial" font-size="22.0" fill="#333333" transform="matrix(1.00, 0.00, -0.00, -1.00, 535.5, 249.8)">i</text><text xml:space="preserve" font-family="ArialMT,Arial" font-size="22.0" fill="#333333" transform="matrix(1.00, 0.00, -0.00, -1.00, 540.4, 249.8)">c</text><text xml:space="preserve" font-family="ArialMT,Arial" font-size="22.0" fill="#333333" transform="matrix(1.00, 0.00, -0.00, -1.00, 551.4, 249.8)">a</text><text xml:space="preserve" font-family="ArialMT,Arial" font-size="22.0" fill="#333333" transform="matrix(1.00, 0.00, -0.00, -1.00, 563.6, 249.8)">t</text><text xml:space="preserve" font-family="ArialMT,Arial" font-size="22.0" fill="#333333" transform="matrix(1.00, 0.00, -0.00, -1.00, 569.7, 249.8)">i</text><text xml:space="preserve" font-family="ArialMT,Arial" font-size="22.0" fill="#333333" transform="matrix(1.00, 0.00, -0.00, -1.00, 574.6, 249.8)">n</text><text xml:space="preserve" font-family="ArialMT,Arial" font-size="22.0" fill="#333333" transform="matrix(1.00, 0.00, -0.00, -1.00, 586.9, 249.8)">g</text><text xml:space="preserve" font-family="ArialMT,Arial" font-size="22.0" fill="#333333" transform="matrix(1.00, 0.00, -0.00, -1.00, 599.1, 249.8)"> </text><text xml:space="preserve" font-family="ArialMT,Arial" font-size="22.0" fill="#333333" transform="matrix(1.00, 0.00, -0.00, -1.00, 605.2, 249.8)">w</text><text xml:space="preserve" font-family="ArialMT,Arial" font-size="22.0" fill="#333333" transform="matrix(1.00, 0.00, -0.00, -1.00, 621.1, 249.8)">i</text><text xml:space="preserve" font-family="ArialMT,Arial" font-size="22.0" fill="#333333" transform="matrix(1.00, 0.00, -0.00, -1.00, 626.0, 249.8)">t</text><text xml:space="preserve" font-family="ArialMT,Arial" font-size="22.0" fill="#333333" transform="matrix(1.00, 0.00, -0.00, -1.00, 632.1, 249.8)">h</text><text xml:space="preserve" font-family="ArialMT,Arial" font-size="22.0" fill="#333333" transform="matrix(1.00, 0.00, -0.00, -1.00, 644.3, 249.8)"> </text><text xml:space="preserve" font-family="ArialMT,Arial" font-size="22.0" fill="#333333" transform="matrix(1.00, 0.00, -0.00, -1.00, 54.2, 223.8)">A</text><text xml:space="preserve" font-family="ArialMT,Arial" font-size="22.0" fill="#333333" transform="matrix(1.00, 0.00, -0.00, -1.00, 68.9, 223.8)">p</text><text xml:space="preserve" font-family="ArialMT,Arial" font-size="22.0" fill="#333333" transform="matrix(1.00, 0.00, -0.00, -1.00, 81.1, 223.8)">p</text><text xml:space="preserve" font-family="ArialMT,Arial" font-size="22.0" fill="#333333" transform="matrix(1.00, 0.00, -0.00, -1.00, 93.3, 223.8)">i</text><text xml:space="preserve" font-family="ArialMT,Arial" font-size="22.0" fill="#333333" transform="matrix(1.00, 0.00, -0.00, -1.00, 98.2, 223.8)">u</text><text xml:space="preserve" font-family="ArialMT,Arial" font-size="22.0" fill="#333333" transform="matrix(1.00, 0.00, -0.00, -1.00, 110.5, 223.8)">m</text><text xml:space="preserve" font-family="ArialMT,Arial" font-size="22.0" fill="#333333" transform="matrix(1.00, 0.00, -0.00, -1.00, 128.8, 223.8)"> </text><text xml:space="preserve" font-family="ArialMT,Arial" font-size="22.0" fill="#333333" transform="matrix(1.00, 0.00, -0.00, -1.00, 134.9, 223.8)">R</text><text xml:space="preserve" font-family="ArialMT,Arial" font-size="22.0" fill="#333333" transform="matrix(1.00, 0.00, -0.00, -1.00, 150.8, 223.8)">E</text><text xml:space="preserve" font-family="ArialMT,Arial" font-size="22.0" fill="#333333" transform="matrix(1.00, 0.00, -0.00, -1.00, 165.5, 223.8)">S</text><text xml:space="preserve" font-family="ArialMT,Arial" font-size="22.0" fill="#333333" transform="matrix(1.00, 0.00, -0.00, -1.00, 180.1, 223.8)">T</text><text xml:space="preserve" font-family="ArialMT,Arial" font-size="22.0" fill="#333333" transform="matrix(1.00, 0.00, -0.00, -1.00, 193.2, 223.8)"> </text><text xml:space="preserve" font-family="ArialMT,Arial" font-size="22.0" fill="#333333" transform="matrix(1.00, 0.00, -0.00, -1.00, 199.3, 223.8)">e</text><text xml:space="preserve" font-family="ArialMT,Arial" font-size="22.0" fill="#333333" transform="matrix(1.00, 0.00, -0.00, -1.00, 211.5, 223.8)">n</text><text xml:space="preserve" font-family="ArialMT,Arial" font-size="22.0" fill="#333333" transform="matrix(1.00, 0.00, -0.00, -1.00, 223.8, 223.8)">d</text><text xml:space="preserve" font-family="ArialMT,Arial" font-size="22.0" fill="#333333" transform="matrix(1.00, 0.00, -0.00, -1.00, 236.0, 223.8)">-</text><text xml:space="preserve" font-family="ArialMT,Arial" font-size="22.0" fill="#333333" transform="matrix(1.00, 0.00, -0.00, -1.00, 243.3, 223.8)">p</text><text xml:space="preserve" font-family="ArialMT,Arial" font-size="22.0" fill="#333333" transform="matrix(1.00, 0.00, -0.00, -1.00, 255.6, 223.8)">o</text><text xml:space="preserve" font-family="ArialMT,Arial" font-size="22.0" fill="#333333" transform="matrix(1.00, 0.00, -0.00, -1.00, 267.8, 223.8)">i</text><text xml:space="preserve" font-family="ArialMT,Arial" font-size="22.0" fill="#333333" transform="matrix(1.00, 0.00, -0.00, -1.00, 272.7, 223.8)">n</text><text xml:space="preserve" font-family="ArialMT,Arial" font-size="22.0" fill="#333333" transform="matrix(1.00, 0.00, -0.00, -1.00, 284.9, 223.8)">t</text><text xml:space="preserve" font-family="ArialMT,Arial" font-size="22.0" fill="#333333" transform="matrix(1.00, 0.00, -0.00, -1.00, 291.1, 223.8)">s</text><text xml:space="preserve" font-family="ArialMT,Arial" font-size="22.0" fill="#333333" transform="matrix(1.00, 0.00, -0.00, -1.00, 302.1, 223.8)"> </text><text xml:space="preserve" font-family="ArialMT,Arial" font-size="22.0" fill="#333333" transform="matrix(1.00, 0.00, -0.00, -1.00, 27.2, 161.3)">•</text><text xml:space="preserve" font-family="ArialMT,Arial" font-size="22.0" fill="#333333" transform="matrix(1.00, 0.00, -0.00, -1.00, 54.2, 161.3)">C</text><text xml:space="preserve" font-family="ArialMT,Arial" font-size="22.0" fill="#333333" transform="matrix(1.00, 0.00, -0.00, -1.00, 70.1, 161.3)">o</text><text xml:space="preserve" font-family="ArialMT,Arial" font-size="22.0" fill="#333333" transform="matrix(1.00, 0.00, -0.00, -1.00, 82.3, 161.3)">n</text><text xml:space="preserve" font-family="ArialMT,Arial" font-size="22.0" fill="#333333" transform="matrix(1.00, 0.00, -0.00, -1.00, 94.6, 161.3)">f</text><text xml:space="preserve" font-family="ArialMT,Arial" font-size="22.0" fill="#333333" transform="matrix(1.00, 0.00, -0.00, -1.00, 100.7, 161.3)">o</text><text xml:space="preserve" font-family="ArialMT,Arial" font-size="22.0" fill="#333333" transform="matrix(1.00, 0.00, -0.00, -1.00, 112.9, 161.3)">r</text><text xml:space="preserve" font-family="ArialMT,Arial" font-size="22.0" fill="#333333" transform="matrix(1.00, 0.00, -0.00, -1.00, 120.2, 161.3)">m</text><text xml:space="preserve" font-family="ArialMT,Arial" font-size="22.0" fill="#333333" transform="matrix(1.00, 0.00, -0.00, -1.00, 138.6, 161.3)">s</text><text xml:space="preserve" font-family="ArialMT,Arial" font-size="22.0" fill="#333333" transform="matrix(1.00, 0.00, -0.00, -1.00, 149.6, 161.3)"> </text><text xml:space="preserve" font-family="ArialMT,Arial" font-size="22.0" fill="#333333" transform="matrix(1.00, 0.00, -0.00, -1.00, 155.7, 161.3)">t</text><text xml:space="preserve" font-family="ArialMT,Arial" font-size="22.0" fill="#333333" transform="matrix(1.00, 0.00, -0.00, -1.00, 161.8, 161.3)">o</text><text xml:space="preserve" font-family="ArialMT,Arial" font-size="22.0" fill="#333333" transform="matrix(1.00, 0.00, -0.00, -1.00, 174.0, 161.3)"> </text><text xml:space="preserve" font-family="ArialMT,Arial" font-size="22.0" fill="#333333" transform="matrix(1.00, 0.00, -0.00, -1.00, 180.1, 161.3)">M</text><text xml:space="preserve" font-family="ArialMT,Arial" font-size="22.0" fill="#333333" transform="matrix(1.00, 0.00, -0.00, -1.00, 198.4, 161.3)">o</text><text xml:space="preserve" font-family="ArialMT,Arial" font-size="22.0" fill="#333333" transform="matrix(1.00, 0.00, -0.00, -1.00, 210.7, 161.3)">b</text><text xml:space="preserve" font-family="ArialMT,Arial" font-size="22.0" fill="#333333" transform="matrix(1.00, 0.00, -0.00, -1.00, 222.9, 161.3)">i</text><text xml:space="preserve" font-family="ArialMT,Arial" font-size="22.0" fill="#333333" transform="matrix(1.00, 0.00, -0.00, -1.00, 227.8, 161.3)">l</text><text xml:space="preserve" font-family="ArialMT,Arial" font-size="22.0" fill="#333333" transform="matrix(1.00, 0.00, -0.00, -1.00, 232.7, 161.3)">e</text><text xml:space="preserve" font-family="ArialMT,Arial" font-size="22.0" fill="#333333" transform="matrix(1.00, 0.00, -0.00, -1.00, 245.0, 161.3)"> </text><text xml:space="preserve" font-family="ArialMT,Arial" font-size="22.0" fill="#333333" transform="matrix(1.00, 0.00, -0.00, -1.00, 251.1, 161.3)">J</text><text xml:space="preserve" font-family="ArialMT,Arial" font-size="22.0" fill="#333333" transform="matrix(1.00, 0.00, -0.00, -1.00, 262.1, 161.3)">S</text><text xml:space="preserve" font-family="ArialMT,Arial" font-size="22.0" fill="#333333" transform="matrix(1.00, 0.00, -0.00, -1.00, 276.7, 161.3)">O</text><text xml:space="preserve" font-family="ArialMT,Arial" font-size="22.0" fill="#333333" transform="matrix(1.00, 0.00, -0.00, -1.00, 293.8, 161.3)">N</text><text xml:space="preserve" font-family="ArialMT,Arial" font-size="22.0" fill="#333333" transform="matrix(1.00, 0.00, -0.00, -1.00, 309.7, 161.3)"> </text><text xml:space="preserve" font-family="ArialMT,Arial" font-size="22.0" fill="#333333" transform="matrix(1.00, 0.00, -0.00, -1.00, 315.8, 161.3)">W</text><text xml:space="preserve" font-family="ArialMT,Arial" font-size="22.0" fill="#333333" transform="matrix(1.00, 0.00, -0.00, -1.00, 336.6, 161.3)">i</text><text xml:space="preserve" font-family="ArialMT,Arial" font-size="22.0" fill="#333333" transform="matrix(1.00, 0.00, -0.00, -1.00, 341.5, 161.3)">r</text><text xml:space="preserve" font-family="ArialMT,Arial" font-size="22.0" fill="#333333" transform="matrix(1.00, 0.00, -0.00, -1.00, 348.8, 161.3)">e</text><text xml:space="preserve" font-family="ArialMT,Arial" font-size="22.0" fill="#333333" transform="matrix(1.00, 0.00, -0.00, -1.00, 361.1, 161.3)"> </text><text xml:space="preserve" font-family="ArialMT,Arial" font-size="22.0" fill="#333333" transform="matrix(1.00, 0.00, -0.00, -1.00, 367.2, 161.3)">P</text><text xml:space="preserve" font-family="ArialMT,Arial" font-size="22.0" fill="#333333" transform="matrix(1.00, 0.00, -0.00, -1.00, 381.8, 161.3)">r</text><text xml:space="preserve" font-family="ArialMT,Arial" font-size="22.0" fill="#333333" transform="matrix(1.00, 0.00, -0.00, -1.00, 389.2, 161.3)">o</text><text xml:space="preserve" font-family="ArialMT,Arial" font-size="22.0" fill="#333333" transform="matrix(1.00, 0.00, -0.00, -1.00, 401.4, 161.3)">t</text><text xml:space="preserve" font-family="ArialMT,Arial" font-size="22.0" fill="#333333" transform="matrix(1.00, 0.00, -0.00, -1.00, 407.5, 161.3)">o</text><text xml:space="preserve" font-family="ArialMT,Arial" font-size="22.0" fill="#333333" transform="matrix(1.00, 0.00, -0.00, -1.00, 419.8, 161.3)">c</text><text xml:space="preserve" font-family="ArialMT,Arial" font-size="22.0" fill="#333333" transform="matrix(1.00, 0.00, -0.00, -1.00, 430.8, 161.3)">o</text><text xml:space="preserve" font-family="ArialMT,Arial" font-size="22.0" fill="#333333" transform="matrix(1.00, 0.00, -0.00, -1.00, 443.0, 161.3)">l</text><text xml:space="preserve" font-family="ArialMT,Arial" font-size="22.0" fill="#333333" transform="matrix(1.00, 0.00, -0.00, -1.00, 447.9, 161.3)"> </text><text xml:space="preserve" font-family="ArialMT,Arial" font-size="22.0" fill="#333333" transform="matrix(1.00, 0.00, -0.00, -1.00, 27.2, 98.7)">•</text><text xml:space="preserve" font-family="ArialMT,Arial" font-size="22.0" fill="#333333" transform="matrix(1.00, 0.00, -0.00, -1.00, 54.2, 98.7)">P</text><text xml:space="preserve" font-family="ArialMT,Arial" font-size="22.0" fill="#333333" transform="matrix(1.00, 0.00, -0.00, -1.00, 68.9, 98.7)">r</text><text xml:space="preserve" font-family="ArialMT,Arial" font-size="22.0" fill="#333333" transform="matrix(1.00, 0.00, -0.00, -1.00, 76.2, 98.7)">o</text><text xml:space="preserve" font-family="ArialMT,Arial" font-size="22.0" fill="#333333" transform="matrix(1.00, 0.00, -0.00, -1.00, 88.4, 98.7)">v</text><text xml:space="preserve" font-family="ArialMT,Arial" font-size="22.0" fill="#333333" transform="matrix(1.00, 0.00, -0.00, -1.00, 99.4, 98.7)">i</text><text xml:space="preserve" font-family="ArialMT,Arial" font-size="22.0" fill="#333333" transform="matrix(1.00, 0.00, -0.00, -1.00, 104.3, 98.7)">d</text><text xml:space="preserve" font-family="ArialMT,Arial" font-size="22.0" fill="#333333" transform="matrix(1.00, 0.00, -0.00, -1.00, 116.6, 98.7)">e</text><text xml:space="preserve" font-family="ArialMT,Arial" font-size="22.0" fill="#333333" transform="matrix(1.00, 0.00, -0.00, -1.00, 128.8, 98.7)">s</text><text xml:space="preserve" font-family="ArialMT,Arial" font-size="22.0" fill="#333333" transform="matrix(1.00, 0.00, -0.00, -1.00, 139.8, 98.7)"> </text><text xml:space="preserve" font-family="ArialMT,Arial" font-size="22.0" fill="#333333" transform="matrix(1.00, 0.00, -0.00, -1.00, 145.9, 98.7)">a</text><text xml:space="preserve" font-family="ArialMT,Arial" font-size="22.0" fill="#333333" transform="matrix(1.00, 0.00, -0.00, -1.00, 158.1, 98.7)">l</text><text xml:space="preserve" font-family="ArialMT,Arial" font-size="22.0" fill="#333333" transform="matrix(1.00, 0.00, -0.00, -1.00, 163.0, 98.7)">l</text><text xml:space="preserve" font-family="ArialMT,Arial" font-size="22.0" fill="#333333" transform="matrix(1.00, 0.00, -0.00, -1.00, 167.9, 98.7)"> </text><text xml:space="preserve" font-family="ArialMT,Arial" font-size="22.0" fill="#333333" transform="matrix(1.00, 0.00, -0.00, -1.00, 174.0, 98.7)">t</text><text xml:space="preserve" font-family="ArialMT,Arial" font-size="22.0" fill="#333333" transform="matrix(1.00, 0.00, -0.00, -1.00, 180.1, 98.7)">h</text><text xml:space="preserve" font-family="ArialMT,Arial" font-size="22.0" fill="#333333" transform="matrix(1.00, 0.00, -0.00, -1.00, 192.4, 98.7)">e</text><text xml:space="preserve" font-family="ArialMT,Arial" font-size="22.0" fill="#333333" transform="matrix(1.00, 0.00, -0.00, -1.00, 204.6, 98.7)"> </text><text xml:space="preserve" font-family="ArialMT,Arial" font-size="22.0" fill="#333333" transform="matrix(1.00, 0.00, -0.00, -1.00, 210.7, 98.7)">u</text><text xml:space="preserve" font-family="ArialMT,Arial" font-size="22.0" fill="#333333" transform="matrix(1.00, 0.00, -0.00, -1.00, 223.0, 98.7)">s</text><text xml:space="preserve" font-family="ArialMT,Arial" font-size="22.0" fill="#333333" transform="matrix(1.00, 0.00, -0.00, -1.00, 234.0, 98.7)">u</text><text xml:space="preserve" font-family="ArialMT,Arial" font-size="22.0" fill="#333333" transform="matrix(1.00, 0.00, -0.00, -1.00, 246.2, 98.7)">a</text><text xml:space="preserve" font-family="ArialMT,Arial" font-size="22.0" fill="#333333" transform="matrix(1.00, 0.00, -0.00, -1.00, 258.5, 98.7)">l</text><text xml:space="preserve" font-family="ArialMT,Arial" font-size="22.0" fill="#333333" transform="matrix(1.00, 0.00, -0.00, -1.00, 263.3, 98.7)"> </text><text xml:space="preserve" font-family="ArialMT,Arial" font-size="22.0" fill="#333333" transform="matrix(1.00, 0.00, -0.00, -1.00, 269.5, 98.7)">S</text><text xml:space="preserve" font-family="ArialMT,Arial" font-size="22.0" fill="#333333" transform="matrix(1.00, 0.00, -0.00, -1.00, 284.1, 98.7)">e</text><text xml:space="preserve" font-family="ArialMT,Arial" font-size="22.0" fill="#333333" transform="matrix(1.00, 0.00, -0.00, -1.00, 296.4, 98.7)">l</text><text xml:space="preserve" font-family="ArialMT,Arial" font-size="22.0" fill="#333333" transform="matrix(1.00, 0.00, -0.00, -1.00, 301.3, 98.7)">e</text><text xml:space="preserve" font-family="ArialMT,Arial" font-size="22.0" fill="#333333" transform="matrix(1.00, 0.00, -0.00, -1.00, 313.5, 98.7)">n</text><text xml:space="preserve" font-family="ArialMT,Arial" font-size="22.0" fill="#333333" transform="matrix(1.00, 0.00, -0.00, -1.00, 325.7, 98.7)">i</text><text xml:space="preserve" font-family="ArialMT,Arial" font-size="22.0" fill="#333333" transform="matrix(1.00, 0.00, -0.00, -1.00, 330.6, 98.7)">u</text><text xml:space="preserve" font-family="ArialMT,Arial" font-size="22.0" fill="#333333" transform="matrix(1.00, 0.00, -0.00, -1.00, 342.9, 98.7)">m</text><text xml:space="preserve" font-family="ArialMT,Arial" font-size="22.0" fill="#333333" transform="matrix(1.00, 0.00, -0.00, -1.00, 361.2, 98.7)"> </text><text xml:space="preserve" font-family="ArialMT,Arial" font-size="22.0" fill="#333333" transform="matrix(1.00, 0.00, -0.00, -1.00, 367.3, 98.7)">f</text><text xml:space="preserve" font-family="ArialMT,Arial" font-size="22.0" fill="#333333" transform="matrix(1.00, 0.00, -0.00, -1.00, 373.4, 98.7)">e</text><text xml:space="preserve" font-family="ArialMT,Arial" font-size="22.0" fill="#333333" transform="matrix(1.00, 0.00, -0.00, -1.00, 385.7, 98.7)">a</text><text xml:space="preserve" font-family="ArialMT,Arial" font-size="22.0" fill="#333333" transform="matrix(1.00, 0.00, -0.00, -1.00, 397.9, 98.7)">t</text><text xml:space="preserve" font-family="ArialMT,Arial" font-size="22.0" fill="#333333" transform="matrix(1.00, 0.00, -0.00, -1.00, 404.0, 98.7)">u</text><text xml:space="preserve" font-family="ArialMT,Arial" font-size="22.0" fill="#333333" transform="matrix(1.00, 0.00, -0.00, -1.00, 416.2, 98.7)">r</text><text xml:space="preserve" font-family="ArialMT,Arial" font-size="22.0" fill="#333333" transform="matrix(1.00, 0.00, -0.00, -1.00, 423.6, 98.7)">e</text><text xml:space="preserve" font-family="ArialMT,Arial" font-size="22.0" fill="#333333" transform="matrix(1.00, 0.00, -0.00, -1.00, 435.8, 98.7)">s</text><text xml:space="preserve" font-family="ArialMT,Arial" font-size="22.0" fill="#333333" transform="matrix(1.00, 0.00, -0.00, -1.00, 446.8, 98.7)"> </text><text xml:space="preserve" font-family="ArialMT,Arial" font-size="22.0" fill="#333333" transform="matrix(1.00, 0.00, -0.00, -1.00, 452.9, 98.7)">p</text><text xml:space="preserve" font-family="ArialMT,Arial" font-size="22.0" fill="#333333" transform="matrix(1.00, 0.00, -0.00, -1.00, 465.2, 98.7)">l</text><text xml:space="preserve" font-family="ArialMT,Arial" font-size="22.0" fill="#333333" transform="matrix(1.00, 0.00, -0.00, -1.00, 470.0, 98.7)">u</text><text xml:space="preserve" font-family="ArialMT,Arial" font-size="22.0" fill="#333333" transform="matrix(1.00, 0.00, -0.00, -1.00, 482.3, 98.7)">s</text><text xml:space="preserve" font-family="ArialMT,Arial" font-size="22.0" fill="#333333" transform="matrix(1.00, 0.00, -0.00, -1.00, 493.3, 98.7)"> </text><text xml:space="preserve" font-family="ArialMT,Arial" font-size="22.0" fill="#333333" transform="matrix(1.00, 0.00, -0.00, -1.00, 499.4, 98.7)">s</text><text xml:space="preserve" font-family="ArialMT,Arial" font-size="22.0" fill="#333333" transform="matrix(1.00, 0.00, -0.00, -1.00, 510.4, 98.7)">p</text><text xml:space="preserve" font-family="ArialMT,Arial" font-size="22.0" fill="#333333" transform="matrix(1.00, 0.00, -0.00, -1.00, 522.6, 98.7)">e</text><text xml:space="preserve" font-family="ArialMT,Arial" font-size="22.0" fill="#333333" transform="matrix(1.00, 0.00, -0.00, -1.00, 534.9, 98.7)">c</text><text xml:space="preserve" font-family="ArialMT,Arial" font-size="22.0" fill="#333333" transform="matrix(1.00, 0.00, -0.00, -1.00, 545.9, 98.7)">i</text><text xml:space="preserve" font-family="ArialMT,Arial" font-size="22.0" fill="#333333" transform="matrix(1.00, 0.00, -0.00, -1.00, 550.8, 98.7)">f</text><text xml:space="preserve" font-family="ArialMT,Arial" font-size="22.0" fill="#333333" transform="matrix(1.00, 0.00, -0.00, -1.00, 556.9, 98.7)">i</text><text xml:space="preserve" font-family="ArialMT,Arial" font-size="22.0" fill="#333333" transform="matrix(1.00, 0.00, -0.00, -1.00, 561.8, 98.7)">c</text><text xml:space="preserve" font-family="ArialMT,Arial" font-size="22.0" fill="#333333" transform="matrix(1.00, 0.00, -0.00, -1.00, 572.8, 98.7)"> </text><text xml:space="preserve" font-family="ArialMT,Arial" font-size="22.0" fill="#333333" transform="matrix(1.00, 0.00, -0.00, -1.00, 578.9, 98.7)">m</text><text xml:space="preserve" font-family="ArialMT,Arial" font-size="22.0" fill="#333333" transform="matrix(1.00, 0.00, -0.00, -1.00, 597.2, 98.7)">o</text><text xml:space="preserve" font-family="ArialMT,Arial" font-size="22.0" fill="#333333" transform="matrix(1.00, 0.00, -0.00, -1.00, 609.4, 98.7)">b</text><text xml:space="preserve" font-family="ArialMT,Arial" font-size="22.0" fill="#333333" transform="matrix(1.00, 0.00, -0.00, -1.00, 621.7, 98.7)">i</text><text xml:space="preserve" font-family="ArialMT,Arial" font-size="22.0" fill="#333333" transform="matrix(1.00, 0.00, -0.00, -1.00, 626.6, 98.7)">l</text><text xml:space="preserve" font-family="ArialMT,Arial" font-size="22.0" fill="#333333" transform="matrix(1.00, 0.00, -0.00, -1.00, 631.5, 98.7)">e</text><text xml:space="preserve" font-family="ArialMT,Arial" font-size="22.0" fill="#333333" transform="matrix(1.00, 0.00, -0.00, -1.00, 643.7, 98.7)"> </text><text xml:space="preserve" font-family="ArialMT,Arial" font-size="22.0" fill="#333333" transform="matrix(1.00, 0.00, -0.00, -1.00, 54.2, 72.7)">a</text><text xml:space="preserve" font-family="ArialMT,Arial" font-size="22.0" fill="#333333" transform="matrix(1.00, 0.00, -0.00, -1.00, 66.4, 72.7)">c</text><text xml:space="preserve" font-family="ArialMT,Arial" font-size="22.0" fill="#333333" transform="matrix(1.00, 0.00, -0.00, -1.00, 77.4, 72.7)">t</text><text xml:space="preserve" font-family="ArialMT,Arial" font-size="22.0" fill="#333333" transform="matrix(1.00, 0.00, -0.00, -1.00, 83.5, 72.7)">i</text><text xml:space="preserve" font-family="ArialMT,Arial" font-size="22.0" fill="#333333" transform="matrix(1.00, 0.00, -0.00, -1.00, 88.4, 72.7)">o</text><text xml:space="preserve" font-family="ArialMT,Arial" font-size="22.0" fill="#333333" transform="matrix(1.00, 0.00, -0.00, -1.00, 100.7, 72.7)">n</text><text xml:space="preserve" font-family="ArialMT,Arial" font-size="22.0" fill="#333333" transform="matrix(1.00, 0.00, -0.00, -1.00, 112.9, 72.7)">s</text><text xml:space="preserve" font-family="ArialMT,Arial" font-size="22.0" fill="#333333" transform="matrix(1.00, 0.00, -0.00, -1.00, 123.9, 72.7)"> </text><text xml:space="preserve" font-family="ArialMT,Arial" font-size="18.0" fill="#333333" transform="matrix(1.00, 0.00, -0.00, -1.00, 63.2, 45.4)">•</text><text xml:space="preserve" font-family="ArialMT,Arial" font-size="18.0" fill="#333333" transform="matrix(1.00, 0.00, -0.00, -1.00, 90.2, 45.4)">t</text><text xml:space="preserve" font-family="ArialMT,Arial" font-size="18.0" fill="#333333" transform="matrix(1.00, 0.00, -0.00, -1.00, 95.2, 45.4)">a</text><text xml:space="preserve" font-family="ArialMT,Arial" font-size="18.0" fill="#333333" transform="matrix(1.00, 0.00, -0.00, -1.00, 105.2, 45.4)">p</text><text xml:space="preserve" font-family="ArialMT,Arial" font-size="18.0" fill="#333333" transform="matrix(1.00, 0.00, -0.00, -1.00, 115.2, 45.4)">,</text><text xml:space="preserve" font-family="ArialMT,Arial" font-size="18.0" fill="#333333" transform="matrix(1.00, 0.00, -0.00, -1.00, 120.2, 45.4)"> </text><text xml:space="preserve" font-family="ArialMT,Arial" font-size="18.0" fill="#333333" transform="matrix(1.00, 0.00, -0.00, -1.00, 125.2, 45.4)">s</text><text xml:space="preserve" font-family="ArialMT,Arial" font-size="18.0" fill="#333333" transform="matrix(1.00, 0.00, -0.00, -1.00, 134.2, 45.4)">w</text><text xml:space="preserve" font-family="ArialMT,Arial" font-size="18.0" fill="#333333" transform="matrix(1.00, 0.00, -0.00, -1.00, 147.2, 45.4)">i</text><text xml:space="preserve" font-family="ArialMT,Arial" font-size="18.0" fill="#333333" transform="matrix(1.00, 0.00, -0.00, -1.00, 151.2, 45.4)">p</text><text xml:space="preserve" font-family="ArialMT,Arial" font-size="18.0" fill="#333333" transform="matrix(1.00, 0.00, -0.00, -1.00, 161.2, 45.4)">e</text><text xml:space="preserve" font-family="ArialMT,Arial" font-size="18.0" fill="#333333" transform="matrix(1.00, 0.00, -0.00, -1.00, 171.2, 45.4)">,</text><text xml:space="preserve" font-family="ArialMT,Arial" font-size="18.0" fill="#333333" transform="matrix(1.00, 0.00, -0.00, -1.00, 176.2, 45.4)"> </text><text xml:space="preserve" font-family="ArialMT,Arial" font-size="18.0" fill="#333333" transform="matrix(1.00, 0.00, -0.00, -1.00, 181.2, 45.4)">p</text><text xml:space="preserve" font-family="ArialMT,Arial" font-size="18.0" fill="#333333" transform="matrix(1.00, 0.00, -0.00, -1.00, 191.3, 45.4)">i</text><text xml:space="preserve" font-family="ArialMT,Arial" font-size="18.0" fill="#333333" transform="matrix(1.00, 0.00, -0.00, -1.00, 195.3, 45.4)">n</text><text xml:space="preserve" font-family="ArialMT,Arial" font-size="18.0" fill="#333333" transform="matrix(1.00, 0.00, -0.00, -1.00, 205.3, 45.4)">c</text><text xml:space="preserve" font-family="ArialMT,Arial" font-size="18.0" fill="#333333" transform="matrix(1.00, 0.00, -0.00, -1.00, 214.3, 45.4)">h</text><text xml:space="preserve" font-family="ArialMT,Arial" font-size="18.0" fill="#333333" transform="matrix(1.00, 0.00, -0.00, -1.00, 224.3, 45.4)">,</text><text xml:space="preserve" font-family="ArialMT,Arial" font-size="18.0" fill="#333333" transform="matrix(1.00, 0.00, -0.00, -1.00, 229.3, 45.4)"> </text><text xml:space="preserve" font-family="ArialMT,Arial" font-size="18.0" fill="#333333" transform="matrix(1.00, 0.00, -0.00, -1.00, 234.3, 45.4)">z</text><text xml:space="preserve" font-family="ArialMT,Arial" font-size="18.0" fill="#333333" transform="matrix(1.00, 0.00, -0.00, -1.00, 243.3, 45.4)">o</text><text xml:space="preserve" font-family="ArialMT,Arial" font-size="18.0" fill="#333333" transform="matrix(1.00, 0.00, -0.00, -1.00, 253.3, 45.4)">o</text><text xml:space="preserve" font-family="ArialMT,Arial" font-size="18.0" fill="#333333" transform="matrix(1.00, 0.00, -0.00, -1.00, 263.3, 45.4)">m</text><text xml:space="preserve" font-family="ArialMT,Arial" font-size="18.0" fill="#333333" transform="matrix(1.00, 0.00, -0.00, -1.00, 278.3, 45.4)">,</text><text xml:space="preserve" font-family="ArialMT,Arial" font-size="18.0" fill="#333333" transform="matrix(1.00, 0.00, -0.00, -1.00, 283.3, 45.4)"> </text><text xml:space="preserve" font-family="ArialMT,Arial" font-size="18.0" fill="#333333" transform="matrix(1.00, 0.00, -0.00, -1.00, 288.3, 45.4)">s</text><text xml:space="preserve" font-family="ArialMT,Arial" font-size="18.0" fill="#333333" transform="matrix(1.00, 0.00, -0.00, -1.00, 297.3, 45.4)">h</text><text xml:space="preserve" font-family="ArialMT,Arial" font-size="18.0" fill="#333333" transform="matrix(1.00, 0.00, -0.00, -1.00, 307.3, 45.4)">a</text><text xml:space="preserve" font-family="ArialMT,Arial" font-size="18.0" fill="#333333" transform="matrix(1.00, 0.00, -0.00, -1.00, 317.3, 45.4)">k</text><text xml:space="preserve" font-family="ArialMT,Arial" font-size="18.0" fill="#333333" transform="matrix(1.00, 0.00, -0.00, -1.00, 326.3, 45.4)">e</text><text xml:space="preserve" font-family="ArialMT,Arial" font-size="18.0" fill="#333333" transform="matrix(1.00, 0.00, -0.00, -1.00, 336.3, 45.4)">,</text><text xml:space="preserve" font-family="ArialMT,Arial" font-size="18.0" fill="#333333" transform="matrix(1.00, 0.00, -0.00, -1.00, 341.3, 45.4)"> </text><text xml:space="preserve" font-family="ArialMT,Arial" font-size="18.0" fill="#333333" transform="matrix(1.00, 0.00, -0.00, -1.00, 346.3, 45.4)">s</text><text xml:space="preserve" font-family="ArialMT,Arial" font-size="18.0" fill="#333333" transform="matrix(1.00, 0.00, -0.00, -1.00, 355.3, 45.4)">c</text><text xml:space="preserve" font-family="ArialMT,Arial" font-size="18.0" fill="#333333" transform="matrix(1.00, 0.00, -0.00, -1.00, 364.3, 45.4)">r</text><text xml:space="preserve" font-family="ArialMT,Arial" font-size="18.0" fill="#333333" transform="matrix(1.00, 0.00, -0.00, -1.00, 370.3, 45.4)">o</text><text xml:space="preserve" font-family="ArialMT,Arial" font-size="18.0" fill="#333333" transform="matrix(1.00, 0.00, -0.00, -1.00, 380.3, 45.4)">l</text><text xml:space="preserve" font-family="ArialMT,Arial" font-size="18.0" fill="#333333" transform="matrix(1.00, 0.00, -0.00, -1.00, 384.3, 45.4)">l</text><text xml:space="preserve" font-family="ArialMT,Arial" font-size="18.0" fill="#333333" transform="matrix(1.00, 0.00, -0.00, -1.00, 388.3, 45.4)">T</text><text xml:space="preserve" font-family="ArialMT,Arial" font-size="18.0" fill="#333333" transform="matrix(1.00, 0.00, -0.00, -1.00, 397.3, 45.4)">o</text><text xml:space="preserve" font-family="ArialMT,Arial" font-size="18.0" fill="#333333" transform="matrix(1.00, 0.00, -0.00, -1.00, 407.4, 45.4)">,</text><text xml:space="preserve" font-family="ArialMT,Arial" font-size="18.0" fill="#333333" transform="matrix(1.00, 0.00, -0.00, -1.00, 412.4, 45.4)"> </text><text xml:space="preserve" font-family="ArialMT,Arial" font-size="18.0" fill="#333333" transform="matrix(1.00, 0.00, -0.00, -1.00, 417.4, 45.4)">a</text><text xml:space="preserve" font-family="ArialMT,Arial" font-size="18.0" fill="#333333" transform="matrix(1.00, 0.00, -0.00, -1.00, 427.4, 45.4)">n</text><text xml:space="preserve" font-family="ArialMT,Arial" font-size="18.0" fill="#333333" transform="matrix(1.00, 0.00, -0.00, -1.00, 437.4, 45.4)">d</text><text xml:space="preserve" font-family="ArialMT,Arial" font-size="18.0" fill="#333333" transform="matrix(1.00, 0.00, -0.00, -1.00, 447.4, 45.4)"> </text><text xml:space="preserve" font-family="ArialMT,Arial" font-size="18.0" fill="#333333" transform="matrix(1.00, 0.00, -0.00, -1.00, 452.4, 45.4)">m</text><text xml:space="preserve" font-family="ArialMT,Arial" font-size="18.0" fill="#333333" transform="matrix(1.00, 0.00, -0.00, -1.00, 467.4, 45.4)">a</text><text xml:space="preserve" font-family="ArialMT,Arial" font-size="18.0" fill="#333333" transform="matrix(1.00, 0.00, -0.00, -1.00, 477.4, 45.4)">n</text><text xml:space="preserve" font-family="ArialMT,Arial" font-size="18.0" fill="#333333" transform="matrix(1.00, 0.00, -0.00, -1.00, 487.4, 45.4)">y</text><text xml:space="preserve" font-family="ArialMT,Arial" font-size="18.0" fill="#333333" transform="matrix(1.00, 0.00, -0.00, -1.00, 496.4, 45.4)"> </text><text xml:space="preserve" font-family="ArialMT,Arial" font-size="18.0" fill="#333333" transform="matrix(1.00, 0.00, -0.00, -1.00, 501.4, 45.4)">m</text><text xml:space="preserve" font-family="ArialMT,Arial" font-size="18.0" fill="#333333" transform="matrix(1.00, 0.00, -0.00, -1.00, 516.4, 45.4)">o</text><text xml:space="preserve" font-family="ArialMT,Arial" font-size="18.0" fill="#333333" transform="matrix(1.00, 0.00, -0.00, -1.00, 526.4, 45.4)">r</text><text xml:space="preserve" font-family="ArialMT,Arial" font-size="18.0" fill="#333333" transform="matrix(1.00, 0.00, -0.00, -1.00, 532.4, 45.4)">e</text><text xml:space="preserve" font-family="ArialMT,Arial" font-size="18.0" fill="#333333" transform="matrix(1.00, 0.00, -0.00, -1.00, 542.4, 45.4)">!</text><text xml:space="preserve" font-family="ArialMT,Arial" font-size="12.0" fill="#333333" transform="matrix(1.00, 0.00, -0.00, -1.00, 680.0, 10.0)">1</text><text xml:space="preserve" font-family="ArialMT,Arial" font-size="12.0" fill="#333333" transform="matrix(1.00, 0.00, -0.00, -1.00, 686.7, 10.0)">4</text></g></svg>