<?xml version="1.0" encoding="UTF-8" standalone="no"?><svg xmlns="http://www.w3.org/2000/svg" xmlns:xlink="http://www.w3.org/1999/xlink" clip-rule="evenodd" stroke-miterlimit="10" viewBox="0 0 720 405"><desc>SVG generated by Keynote</desc><defs></defs><g transform="matrix(1.00, 0.00, -0.00, -1.00, 0.0, 405.0)"><path d="M 0.0 405.0 L 720.0 405.0 L 720.0 0.0 L 0.0 0.0 Z M 0.0 405.0 " fill="#FFFFFF"></path><image xlink:href="../../22F37CDA-977A-4F5F-AC8F-7B619332684C/assets/CF5371EDAD41EE4A4DDAC6FB5B300F29.png" width="1920.00" height="108.00" transform="matrix(0.38, 0.00, -0.00, -0.07, 0.0, 405.0)"></image><image xlink:href="../../22F37CDA-977A-4F5F-AC8F-7B619332684C/assets/835323990485373A14BF16A2D952197A.png" width="182.00" height="160.00" transform="matrix(0.37, 0.00, -0.00, -0.37, 642.0, 405.0)"></image><text xml:space="preserve" font-family="Arial-BoldMT,Arial" font-weight="bold" font-size="24.0" fill="#333333" transform="matrix(1.00, 0.00, -0.00, -1.00, 27.4, 363.9)">S</text><text xml:space="preserve" font-family="Arial-BoldMT,Arial" font-weight="bold" font-size="24.0" fill="#333333" transform="matrix(1.00, 0.00, -0.00, -1.00, 43.4, 363.9)">e</text><text xml:space="preserve" font-family="Arial-BoldMT,Arial" font-weight="bold" font-size="24.0" fill="#333333" transform="matrix(1.00, 0.00, -0.00, -1.00, 56.7, 363.9)">l</text><text xml:space="preserve" font-family="Arial-BoldMT,Arial" font-weight="bold" font-size="24.0" fill="#333333" transform="matrix(1.00, 0.00, -0.00, -1.00, 63.4, 363.9)">e</text><text xml:space="preserve" font-family="Arial-BoldMT,Arial" font-weight="bold" font-size="24.0" fill="#333333" transform="matrix(1.00, 0.00, -0.00, -1.00, 76.7, 363.9)">n</text><text xml:space="preserve" font-family="Arial-BoldMT,Arial" font-weight="bold" font-size="24.0" fill="#333333" transform="matrix(1.00, 0.00, -0.00, -1.00, 91.4, 363.9)">i</text><text xml:space="preserve" font-family="Arial-BoldMT,Arial" font-weight="bold" font-size="24.0" fill="#333333" transform="matrix(1.00, 0.00, -0.00, -1.00, 98.1, 363.9)">u</text><text xml:space="preserve" font-family="Arial-BoldMT,Arial" font-weight="bold" font-size="24.0" fill="#333333" transform="matrix(1.00, 0.00, -0.00, -1.00, 112.7, 363.9)">m</text><text xml:space="preserve" font-family="Arial-BoldMT,Arial" font-weight="bold" font-size="24.0" fill="#333333" transform="matrix(1.00, 0.00, -0.00, -1.00, 134.1, 363.9)"> </text><text xml:space="preserve" font-family="Arial-BoldMT,Arial" font-weight="bold" font-size="24.0" fill="#333333" transform="matrix(1.00, 0.00, -0.00, -1.00, 140.7, 363.9)">3</text><text xml:space="preserve" font-family="Arial-BoldMT,Arial" font-weight="bold" font-size="24.0" fill="#333333" transform="matrix(1.00, 0.00, -0.00, -1.00, 154.1, 363.9)"> </text><text xml:space="preserve" font-family="Arial-BoldMT,Arial" font-weight="bold" font-size="24.0" fill="#333333" transform="matrix(1.00, 0.00, -0.00, -1.00, 160.7, 363.9)">a</text><text xml:space="preserve" font-family="Arial-BoldMT,Arial" font-weight="bold" font-size="24.0" fill="#333333" transform="matrix(1.00, 0.00, -0.00, -1.00, 174.1, 363.9)">n</text><text xml:space="preserve" font-family="Arial-BoldMT,Arial" font-weight="bold" font-size="24.0" fill="#333333" transform="matrix(1.00, 0.00, -0.00, -1.00, 188.7, 363.9)">d</text><text xml:space="preserve" font-family="Arial-BoldMT,Arial" font-weight="bold" font-size="24.0" fill="#333333" transform="matrix(1.00, 0.00, -0.00, -1.00, 203.4, 363.9)"> </text><text xml:space="preserve" font-family="Arial-BoldMT,Arial" font-weight="bold" font-size="24.0" fill="#333333" transform="matrix(1.00, 0.00, -0.00, -1.00, 210.1, 363.9)">M</text><text xml:space="preserve" font-family="Arial-BoldMT,Arial" font-weight="bold" font-size="24.0" fill="#333333" transform="matrix(1.00, 0.00, -0.00, -1.00, 230.1, 363.9)">o</text><text xml:space="preserve" font-family="Arial-BoldMT,Arial" font-weight="bold" font-size="24.0" fill="#333333" transform="matrix(1.00, 0.00, -0.00, -1.00, 244.7, 363.9)">b</text><text xml:space="preserve" font-family="Arial-BoldMT,Arial" font-weight="bold" font-size="24.0" fill="#333333" transform="matrix(1.00, 0.00, -0.00, -1.00, 259.4, 363.9)">i</text><text xml:space="preserve" font-family="Arial-BoldMT,Arial" font-weight="bold" font-size="24.0" fill="#333333" transform="matrix(1.00, 0.00, -0.00, -1.00, 266.0, 363.9)">l</text><text xml:space="preserve" font-family="Arial-BoldMT,Arial" font-weight="bold" font-size="24.0" fill="#333333" transform="matrix(1.00, 0.00, -0.00, -1.00, 272.7, 363.9)">e</text><text xml:space="preserve" font-family="Arial-BoldMT,Arial" font-weight="bold" font-size="24.0" fill="#333333" transform="matrix(1.00, 0.00, -0.00, -1.00, 286.0, 363.9)">?</text><text xml:space="preserve" font-family="ArialMT,Arial" font-size="22.0" fill="#333333" transform="matrix(1.00, 0.00, -0.00, -1.00, 27.2, 312.4)">•</text><text xml:space="preserve" font-family="ArialMT,Arial" font-size="22.0" fill="#333333" transform="matrix(1.00, 0.00, -0.00, -1.00, 54.2, 312.4)">S</text><text xml:space="preserve" font-family="ArialMT,Arial" font-size="22.0" fill="#333333" transform="matrix(1.00, 0.00, -0.00, -1.00, 68.9, 312.4)">t</text><text xml:space="preserve" font-family="ArialMT,Arial" font-size="22.0" fill="#333333" transform="matrix(1.00, 0.00, -0.00, -1.00, 75.0, 312.4)">i</text><text xml:space="preserve" font-family="ArialMT,Arial" font-size="22.0" fill="#333333" transform="matrix(1.00, 0.00, -0.00, -1.00, 79.9, 312.4)">l</text><text xml:space="preserve" font-family="ArialMT,Arial" font-size="22.0" fill="#333333" transform="matrix(1.00, 0.00, -0.00, -1.00, 84.8, 312.4)">l</text><text xml:space="preserve" font-family="ArialMT,Arial" font-size="22.0" fill="#333333" transform="matrix(1.00, 0.00, -0.00, -1.00, 89.6, 312.4)"> </text><text xml:space="preserve" font-family="ArialMT,Arial" font-size="22.0" fill="#333333" transform="matrix(1.00, 0.00, -0.00, -1.00, 95.8, 312.4)">a</text><text xml:space="preserve" font-family="ArialMT,Arial" font-size="22.0" fill="#333333" transform="matrix(1.00, 0.00, -0.00, -1.00, 108.0, 312.4)"> </text><text xml:space="preserve" font-family="ArialMT,Arial" font-size="22.0" fill="#333333" transform="matrix(1.00, 0.00, -0.00, -1.00, 114.1, 312.4)">w</text><text xml:space="preserve" font-family="ArialMT,Arial" font-size="22.0" fill="#333333" transform="matrix(1.00, 0.00, -0.00, -1.00, 130.0, 312.4)">o</text><text xml:space="preserve" font-family="ArialMT,Arial" font-size="22.0" fill="#333333" transform="matrix(1.00, 0.00, -0.00, -1.00, 142.2, 312.4)">r</text><text xml:space="preserve" font-family="ArialMT,Arial" font-size="22.0" fill="#333333" transform="matrix(1.00, 0.00, -0.00, -1.00, 149.6, 312.4)">k</text><text xml:space="preserve" font-family="ArialMT,Arial" font-size="22.0" fill="#333333" transform="matrix(1.00, 0.00, -0.00, -1.00, 160.6, 312.4)"> </text><text xml:space="preserve" font-family="ArialMT,Arial" font-size="22.0" fill="#333333" transform="matrix(1.00, 0.00, -0.00, -1.00, 166.7, 312.4)">i</text><text xml:space="preserve" font-family="ArialMT,Arial" font-size="22.0" fill="#333333" transform="matrix(1.00, 0.00, -0.00, -1.00, 171.6, 312.4)">n</text><text xml:space="preserve" font-family="ArialMT,Arial" font-size="22.0" fill="#333333" transform="matrix(1.00, 0.00, -0.00, -1.00, 183.8, 312.4)"> </text><text xml:space="preserve" font-family="ArialMT,Arial" font-size="22.0" fill="#333333" transform="matrix(1.00, 0.00, -0.00, -1.00, 189.9, 312.4)">p</text><text xml:space="preserve" font-family="ArialMT,Arial" font-size="22.0" fill="#333333" transform="matrix(1.00, 0.00, -0.00, -1.00, 202.1, 312.4)">r</text><text xml:space="preserve" font-family="ArialMT,Arial" font-size="22.0" fill="#333333" transform="matrix(1.00, 0.00, -0.00, -1.00, 209.5, 312.4)">o</text><text xml:space="preserve" font-family="ArialMT,Arial" font-size="22.0" fill="#333333" transform="matrix(1.00, 0.00, -0.00, -1.00, 221.7, 312.4)">g</text><text xml:space="preserve" font-family="ArialMT,Arial" font-size="22.0" fill="#333333" transform="matrix(1.00, 0.00, -0.00, -1.00, 234.0, 312.4)">r</text><text xml:space="preserve" font-family="ArialMT,Arial" font-size="22.0" fill="#333333" transform="matrix(1.00, 0.00, -0.00, -1.00, 241.3, 312.4)">e</text><text xml:space="preserve" font-family="ArialMT,Arial" font-size="22.0" fill="#333333" transform="matrix(1.00, 0.00, -0.00, -1.00, 253.5, 312.4)">s</text><text xml:space="preserve" font-family="ArialMT,Arial" font-size="22.0" fill="#333333" transform="matrix(1.00, 0.00, -0.00, -1.00, 264.5, 312.4)">s</text><text xml:space="preserve" font-family="ArialMT,Arial" font-size="22.0" fill="#333333" transform="matrix(1.00, 0.00, -0.00, -1.00, 275.5, 312.4)">,</text><text xml:space="preserve" font-family="ArialMT,Arial" font-size="22.0" fill="#333333" transform="matrix(1.00, 0.00, -0.00, -1.00, 281.6, 312.4)"> </text><text xml:space="preserve" font-family="ArialMT,Arial" font-size="22.0" fill="#333333" transform="matrix(1.00, 0.00, -0.00, -1.00, 287.7, 312.4)">s</text><text xml:space="preserve" font-family="ArialMT,Arial" font-size="22.0" fill="#333333" transform="matrix(1.00, 0.00, -0.00, -1.00, 298.7, 312.4)">t</text><text xml:space="preserve" font-family="ArialMT,Arial" font-size="22.0" fill="#333333" transform="matrix(1.00, 0.00, -0.00, -1.00, 304.8, 312.4)">e</text><text xml:space="preserve" font-family="ArialMT,Arial" font-size="22.0" fill="#333333" transform="matrix(1.00, 0.00, -0.00, -1.00, 317.1, 312.4)">a</text><text xml:space="preserve" font-family="ArialMT,Arial" font-size="22.0" fill="#333333" transform="matrix(1.00, 0.00, -0.00, -1.00, 329.3, 312.4)">d</text><text xml:space="preserve" font-family="ArialMT,Arial" font-size="22.0" fill="#333333" transform="matrix(1.00, 0.00, -0.00, -1.00, 341.6, 312.4)">i</text><text xml:space="preserve" font-family="ArialMT,Arial" font-size="22.0" fill="#333333" transform="matrix(1.00, 0.00, -0.00, -1.00, 346.5, 312.4)">l</text><text xml:space="preserve" font-family="ArialMT,Arial" font-size="22.0" fill="#333333" transform="matrix(1.00, 0.00, -0.00, -1.00, 351.3, 312.4)">y</text><text xml:space="preserve" font-family="ArialMT,Arial" font-size="22.0" fill="#333333" transform="matrix(1.00, 0.00, -0.00, -1.00, 362.3, 312.4)"> </text><text xml:space="preserve" font-family="ArialMT,Arial" font-size="22.0" fill="#333333" transform="matrix(1.00, 0.00, -0.00, -1.00, 368.5, 312.4)">m</text><text xml:space="preserve" font-family="ArialMT,Arial" font-size="22.0" fill="#333333" transform="matrix(1.00, 0.00, -0.00, -1.00, 386.8, 312.4)">o</text><text xml:space="preserve" font-family="ArialMT,Arial" font-size="22.0" fill="#333333" transform="matrix(1.00, 0.00, -0.00, -1.00, 399.0, 312.4)">v</text><text xml:space="preserve" font-family="ArialMT,Arial" font-size="22.0" fill="#333333" transform="matrix(1.00, 0.00, -0.00, -1.00, 410.0, 312.4)">i</text><text xml:space="preserve" font-family="ArialMT,Arial" font-size="22.0" fill="#333333" transform="matrix(1.00, 0.00, -0.00, -1.00, 414.9, 312.4)">n</text><text xml:space="preserve" font-family="ArialMT,Arial" font-size="22.0" fill="#333333" transform="matrix(1.00, 0.00, -0.00, -1.00, 427.2, 312.4)">g</text><text xml:space="preserve" font-family="ArialMT,Arial" font-size="22.0" fill="#333333" transform="matrix(1.00, 0.00, -0.00, -1.00, 439.4, 312.4)"> </text><text xml:space="preserve" font-family="ArialMT,Arial" font-size="22.0" fill="#333333" transform="matrix(1.00, 0.00, -0.00, -1.00, 445.5, 312.4)">f</text><text xml:space="preserve" font-family="ArialMT,Arial" font-size="22.0" fill="#333333" transform="matrix(1.00, 0.00, -0.00, -1.00, 451.6, 312.4)">o</text><text xml:space="preserve" font-family="ArialMT,Arial" font-size="22.0" fill="#333333" transform="matrix(1.00, 0.00, -0.00, -1.00, 463.8, 312.4)">r</text><text xml:space="preserve" font-family="ArialMT,Arial" font-size="22.0" fill="#333333" transform="matrix(1.00, 0.00, -0.00, -1.00, 471.2, 312.4)">w</text><text xml:space="preserve" font-family="ArialMT,Arial" font-size="22.0" fill="#333333" transform="matrix(1.00, 0.00, -0.00, -1.00, 487.1, 312.4)">a</text><text xml:space="preserve" font-family="ArialMT,Arial" font-size="22.0" fill="#333333" transform="matrix(1.00, 0.00, -0.00, -1.00, 499.3, 312.4)">r</text><text xml:space="preserve" font-family="ArialMT,Arial" font-size="22.0" fill="#333333" transform="matrix(1.00, 0.00, -0.00, -1.00, 506.6, 312.4)">d</text><text xml:space="preserve" font-family="ArialMT,Arial" font-size="22.0" fill="#333333" transform="matrix(1.00, 0.00, -0.00, -1.00, 518.9, 312.4)">,</text><text xml:space="preserve" font-family="ArialMT,Arial" font-size="22.0" fill="#333333" transform="matrix(1.00, 0.00, -0.00, -1.00, 525.0, 312.4)"> </text><text xml:space="preserve" font-family="ArialMT,Arial" font-size="22.0" fill="#333333" transform="matrix(1.00, 0.00, -0.00, -1.00, 531.1, 312.4)">a</text><text xml:space="preserve" font-family="ArialMT,Arial" font-size="22.0" fill="#333333" transform="matrix(1.00, 0.00, -0.00, -1.00, 543.3, 312.4)"> </text><text xml:space="preserve" font-family="ArialMT,Arial" font-size="22.0" fill="#333333" transform="matrix(1.00, 0.00, -0.00, -1.00, 549.4, 312.4)">b</text><text xml:space="preserve" font-family="ArialMT,Arial" font-size="22.0" fill="#333333" transform="matrix(1.00, 0.00, -0.00, -1.00, 561.7, 312.4)">i</text><text xml:space="preserve" font-family="ArialMT,Arial" font-size="22.0" fill="#333333" transform="matrix(1.00, 0.00, -0.00, -1.00, 566.6, 312.4)">g</text><text xml:space="preserve" font-family="ArialMT,Arial" font-size="22.0" fill="#333333" transform="matrix(1.00, 0.00, -0.00, -1.00, 578.8, 312.4)"> </text><text xml:space="preserve" font-family="ArialMT,Arial" font-size="22.0" fill="#333333" transform="matrix(1.00, 0.00, -0.00, -1.00, 584.9, 312.4)">u</text><text xml:space="preserve" font-family="ArialMT,Arial" font-size="22.0" fill="#333333" transform="matrix(1.00, 0.00, -0.00, -1.00, 597.2, 312.4)">p</text><text xml:space="preserve" font-family="ArialMT,Arial" font-size="22.0" fill="#333333" transform="matrix(1.00, 0.00, -0.00, -1.00, 609.4, 312.4)">d</text><text xml:space="preserve" font-family="ArialMT,Arial" font-size="22.0" fill="#333333" transform="matrix(1.00, 0.00, -0.00, -1.00, 621.6, 312.4)">a</text><text xml:space="preserve" font-family="ArialMT,Arial" font-size="22.0" fill="#333333" transform="matrix(1.00, 0.00, -0.00, -1.00, 633.9, 312.4)">t</text><text xml:space="preserve" font-family="ArialMT,Arial" font-size="22.0" fill="#333333" transform="matrix(1.00, 0.00, -0.00, -1.00, 640.0, 312.4)">e</text><text xml:space="preserve" font-family="ArialMT,Arial" font-size="22.0" fill="#333333" transform="matrix(1.00, 0.00, -0.00, -1.00, 652.2, 312.4)"> </text><text xml:space="preserve" font-family="ArialMT,Arial" font-size="22.0" fill="#333333" transform="matrix(1.00, 0.00, -0.00, -1.00, 658.3, 312.4)">w</text><text xml:space="preserve" font-family="ArialMT,Arial" font-size="22.0" fill="#333333" transform="matrix(1.00, 0.00, -0.00, -1.00, 674.2, 312.4)">i</text><text xml:space="preserve" font-family="ArialMT,Arial" font-size="22.0" fill="#333333" transform="matrix(1.00, 0.00, -0.00, -1.00, 679.1, 312.4)">l</text><text xml:space="preserve" font-family="ArialMT,Arial" font-size="22.0" fill="#333333" transform="matrix(1.00, 0.00, -0.00, -1.00, 684.0, 312.4)">l</text><text xml:space="preserve" font-family="ArialMT,Arial" font-size="22.0" fill="#333333" transform="matrix(1.00, 0.00, -0.00, -1.00, 688.9, 312.4)"> </text><text xml:space="preserve" font-family="ArialMT,Arial" font-size="22.0" fill="#333333" transform="matrix(1.00, 0.00, -0.00, -1.00, 54.2, 286.4)">l</text><text xml:space="preserve" font-family="ArialMT,Arial" font-size="22.0" fill="#333333" transform="matrix(1.00, 0.00, -0.00, -1.00, 59.1, 286.4)">i</text><text xml:space="preserve" font-family="ArialMT,Arial" font-size="22.0" fill="#333333" transform="matrix(1.00, 0.00, -0.00, -1.00, 64.0, 286.4)">k</text><text xml:space="preserve" font-family="ArialMT,Arial" font-size="22.0" fill="#333333" transform="matrix(1.00, 0.00, -0.00, -1.00, 75.0, 286.4)">e</text><text xml:space="preserve" font-family="ArialMT,Arial" font-size="22.0" fill="#333333" transform="matrix(1.00, 0.00, -0.00, -1.00, 87.2, 286.4)">l</text><text xml:space="preserve" font-family="ArialMT,Arial" font-size="22.0" fill="#333333" transform="matrix(1.00, 0.00, -0.00, -1.00, 92.1, 286.4)">y</text><text xml:space="preserve" font-family="ArialMT,Arial" font-size="22.0" fill="#333333" transform="matrix(1.00, 0.00, -0.00, -1.00, 103.1, 286.4)"> </text><text xml:space="preserve" font-family="ArialMT,Arial" font-size="22.0" fill="#333333" transform="matrix(1.00, 0.00, -0.00, -1.00, 109.2, 286.4)">b</text><text xml:space="preserve" font-family="ArialMT,Arial" font-size="22.0" fill="#333333" transform="matrix(1.00, 0.00, -0.00, -1.00, 121.5, 286.4)">e</text><text xml:space="preserve" font-family="ArialMT,Arial" font-size="22.0" fill="#333333" transform="matrix(1.00, 0.00, -0.00, -1.00, 133.7, 286.4)"> </text><text xml:space="preserve" font-family="ArialMT,Arial" font-size="22.0" fill="#333333" transform="matrix(1.00, 0.00, -0.00, -1.00, 139.8, 286.4)">r</text><text xml:space="preserve" font-family="ArialMT,Arial" font-size="22.0" fill="#333333" transform="matrix(1.00, 0.00, -0.00, -1.00, 147.1, 286.4)">e</text><text xml:space="preserve" font-family="ArialMT,Arial" font-size="22.0" fill="#333333" transform="matrix(1.00, 0.00, -0.00, -1.00, 159.4, 286.4)">q</text><text xml:space="preserve" font-family="ArialMT,Arial" font-size="22.0" fill="#333333" transform="matrix(1.00, 0.00, -0.00, -1.00, 171.6, 286.4)">u</text><text xml:space="preserve" font-family="ArialMT,Arial" font-size="22.0" fill="#333333" transform="matrix(1.00, 0.00, -0.00, -1.00, 183.8, 286.4)">i</text><text xml:space="preserve" font-family="ArialMT,Arial" font-size="22.0" fill="#333333" transform="matrix(1.00, 0.00, -0.00, -1.00, 188.7, 286.4)">r</text><text xml:space="preserve" font-family="ArialMT,Arial" font-size="22.0" fill="#333333" transform="matrix(1.00, 0.00, -0.00, -1.00, 196.1, 286.4)">e</text><text xml:space="preserve" font-family="ArialMT,Arial" font-size="22.0" fill="#333333" transform="matrix(1.00, 0.00, -0.00, -1.00, 208.3, 286.4)">d</text><text xml:space="preserve" font-family="ArialMT,Arial" font-size="22.0" fill="#333333" transform="matrix(1.00, 0.00, -0.00, -1.00, 220.5, 286.4)"> </text><text xml:space="preserve" font-family="ArialMT,Arial" font-size="22.0" fill="#333333" transform="matrix(1.00, 0.00, -0.00, -1.00, 27.2, 223.8)">•</text><text xml:space="preserve" font-family="ArialMT,Arial" font-size="22.0" fill="#333333" transform="matrix(1.00, 0.00, -0.00, -1.00, 54.2, 223.8)">A</text><text xml:space="preserve" font-family="ArialMT,Arial" font-size="22.0" fill="#333333" transform="matrix(1.00, 0.00, -0.00, -1.00, 68.9, 223.8)">n</text><text xml:space="preserve" font-family="ArialMT,Arial" font-size="22.0" fill="#333333" transform="matrix(1.00, 0.00, -0.00, -1.00, 81.1, 223.8)">d</text><text xml:space="preserve" font-family="ArialMT,Arial" font-size="22.0" fill="#333333" transform="matrix(1.00, 0.00, -0.00, -1.00, 93.3, 223.8)">r</text><text xml:space="preserve" font-family="ArialMT,Arial" font-size="22.0" fill="#333333" transform="matrix(1.00, 0.00, -0.00, -1.00, 100.7, 223.8)">o</text><text xml:space="preserve" font-family="ArialMT,Arial" font-size="22.0" fill="#333333" transform="matrix(1.00, 0.00, -0.00, -1.00, 112.9, 223.8)">i</text><text xml:space="preserve" font-family="ArialMT,Arial" font-size="22.0" fill="#333333" transform="matrix(1.00, 0.00, -0.00, -1.00, 117.8, 223.8)">d</text><text xml:space="preserve" font-family="ArialMT,Arial" font-size="22.0" fill="#333333" transform="matrix(1.00, 0.00, -0.00, -1.00, 130.0, 223.8)"> </text><text xml:space="preserve" font-family="ArialMT,Arial" font-size="22.0" fill="#333333" transform="matrix(1.00, 0.00, -0.00, -1.00, 136.1, 223.8)">a</text><text xml:space="preserve" font-family="ArialMT,Arial" font-size="22.0" fill="#333333" transform="matrix(1.00, 0.00, -0.00, -1.00, 148.4, 223.8)">n</text><text xml:space="preserve" font-family="ArialMT,Arial" font-size="22.0" fill="#333333" transform="matrix(1.00, 0.00, -0.00, -1.00, 160.6, 223.8)">d</text><text xml:space="preserve" font-family="ArialMT,Arial" font-size="22.0" fill="#333333" transform="matrix(1.00, 0.00, -0.00, -1.00, 172.9, 223.8)"> </text><text xml:space="preserve" font-family="ArialMT,Arial" font-size="22.0" fill="#333333" transform="matrix(1.00, 0.00, -0.00, -1.00, 179.0, 223.8)">i</text><text xml:space="preserve" font-family="ArialMT,Arial" font-size="22.0" fill="#333333" transform="matrix(1.00, 0.00, -0.00, -1.00, 183.9, 223.8)">P</text><text xml:space="preserve" font-family="ArialMT,Arial" font-size="22.0" fill="#333333" transform="matrix(1.00, 0.00, -0.00, -1.00, 198.5, 223.8)">h</text><text xml:space="preserve" font-family="ArialMT,Arial" font-size="22.0" fill="#333333" transform="matrix(1.00, 0.00, -0.00, -1.00, 210.8, 223.8)">o</text><text xml:space="preserve" font-family="ArialMT,Arial" font-size="22.0" fill="#333333" transform="matrix(1.00, 0.00, -0.00, -1.00, 223.0, 223.8)">n</text><text xml:space="preserve" font-family="ArialMT,Arial" font-size="22.0" fill="#333333" transform="matrix(1.00, 0.00, -0.00, -1.00, 235.3, 223.8)">e</text><text xml:space="preserve" font-family="ArialMT,Arial" font-size="22.0" fill="#333333" transform="matrix(1.00, 0.00, -0.00, -1.00, 247.5, 223.8)"> </text><text xml:space="preserve" font-family="ArialMT,Arial" font-size="22.0" fill="#333333" transform="matrix(1.00, 0.00, -0.00, -1.00, 253.6, 223.8)">S</text><text xml:space="preserve" font-family="ArialMT,Arial" font-size="22.0" fill="#333333" transform="matrix(1.00, 0.00, -0.00, -1.00, 268.3, 223.8)">e</text><text xml:space="preserve" font-family="ArialMT,Arial" font-size="22.0" fill="#333333" transform="matrix(1.00, 0.00, -0.00, -1.00, 280.5, 223.8)">l</text><text xml:space="preserve" font-family="ArialMT,Arial" font-size="22.0" fill="#333333" transform="matrix(1.00, 0.00, -0.00, -1.00, 285.4, 223.8)">e</text><text xml:space="preserve" font-family="ArialMT,Arial" font-size="22.0" fill="#333333" transform="matrix(1.00, 0.00, -0.00, -1.00, 297.7, 223.8)">n</text><text xml:space="preserve" font-family="ArialMT,Arial" font-size="22.0" fill="#333333" transform="matrix(1.00, 0.00, -0.00, -1.00, 309.9, 223.8)">i</text><text xml:space="preserve" font-family="ArialMT,Arial" font-size="22.0" fill="#333333" transform="matrix(1.00, 0.00, -0.00, -1.00, 314.8, 223.8)">u</text><text xml:space="preserve" font-family="ArialMT,Arial" font-size="22.0" fill="#333333" transform="matrix(1.00, 0.00, -0.00, -1.00, 327.0, 223.8)">m</text><text xml:space="preserve" font-family="ArialMT,Arial" font-size="22.0" fill="#333333" transform="matrix(1.00, 0.00, -0.00, -1.00, 345.3, 223.8)"> </text><text xml:space="preserve" font-family="ArialMT,Arial" font-size="22.0" fill="#333333" transform="matrix(1.00, 0.00, -0.00, -1.00, 351.5, 223.8)">d</text><text xml:space="preserve" font-family="ArialMT,Arial" font-size="22.0" fill="#333333" transform="matrix(1.00, 0.00, -0.00, -1.00, 363.7, 223.8)">r</text><text xml:space="preserve" font-family="ArialMT,Arial" font-size="22.0" fill="#333333" transform="matrix(1.00, 0.00, -0.00, -1.00, 371.0, 223.8)">i</text><text xml:space="preserve" font-family="ArialMT,Arial" font-size="22.0" fill="#333333" transform="matrix(1.00, 0.00, -0.00, -1.00, 375.9, 223.8)">v</text><text xml:space="preserve" font-family="ArialMT,Arial" font-size="22.0" fill="#333333" transform="matrix(1.00, 0.00, -0.00, -1.00, 386.9, 223.8)">e</text><text xml:space="preserve" font-family="ArialMT,Arial" font-size="22.0" fill="#333333" transform="matrix(1.00, 0.00, -0.00, -1.00, 399.2, 223.8)">r</text><text xml:space="preserve" font-family="ArialMT,Arial" font-size="22.0" fill="#333333" transform="matrix(1.00, 0.00, -0.00, -1.00, 406.5, 223.8)">s</text><text xml:space="preserve" font-family="ArialMT,Arial" font-size="22.0" fill="#333333" transform="matrix(1.00, 0.00, -0.00, -1.00, 417.5, 223.8)"> </text><text xml:space="preserve" font-family="ArialMT,Arial" font-size="22.0" fill="#333333" transform="matrix(1.00, 0.00, -0.00, -1.00, 423.6, 223.8)">d</text><text xml:space="preserve" font-family="ArialMT,Arial" font-size="22.0" fill="#333333" transform="matrix(1.00, 0.00, -0.00, -1.00, 435.8, 223.8)">e</text><text xml:space="preserve" font-family="ArialMT,Arial" font-size="22.0" fill="#333333" transform="matrix(1.00, 0.00, -0.00, -1.00, 448.1, 223.8)">p</text><text xml:space="preserve" font-family="ArialMT,Arial" font-size="22.0" fill="#333333" transform="matrix(1.00, 0.00, -0.00, -1.00, 460.3, 223.8)">r</text><text xml:space="preserve" font-family="ArialMT,Arial" font-size="22.0" fill="#333333" transform="matrix(1.00, 0.00, -0.00, -1.00, 467.6, 223.8)">e</text><text xml:space="preserve" font-family="ArialMT,Arial" font-size="22.0" fill="#333333" transform="matrix(1.00, 0.00, -0.00, -1.00, 479.9, 223.8)">c</text><text xml:space="preserve" font-family="ArialMT,Arial" font-size="22.0" fill="#333333" transform="matrix(1.00, 0.00, -0.00, -1.00, 490.9, 223.8)">a</text><text xml:space="preserve" font-family="ArialMT,Arial" font-size="22.0" fill="#333333" transform="matrix(1.00, 0.00, -0.00, -1.00, 503.1, 223.8)">t</text><text xml:space="preserve" font-family="ArialMT,Arial" font-size="22.0" fill="#333333" transform="matrix(1.00, 0.00, -0.00, -1.00, 509.2, 223.8)">e</text><text xml:space="preserve" font-family="ArialMT,Arial" font-size="22.0" fill="#333333" transform="matrix(1.00, 0.00, -0.00, -1.00, 521.5, 223.8)">d</text><text xml:space="preserve" font-family="ArialMT,Arial" font-size="22.0" fill="#333333" transform="matrix(1.00, 0.00, -0.00, -1.00, 533.7, 223.8)"> </text><text xml:space="preserve" font-family="ArialMT,Arial" font-size="22.0" fill="#333333" transform="matrix(1.00, 0.00, -0.00, -1.00, 539.8, 223.8)">i</text><text xml:space="preserve" font-family="ArialMT,Arial" font-size="22.0" fill="#333333" transform="matrix(1.00, 0.00, -0.00, -1.00, 544.7, 223.8)">n</text><text xml:space="preserve" font-family="ArialMT,Arial" font-size="22.0" fill="#333333" transform="matrix(1.00, 0.00, -0.00, -1.00, 556.9, 223.8)"> </text><text xml:space="preserve" font-family="ArialMT,Arial" font-size="22.0" fill="#333333" transform="matrix(1.00, 0.00, -0.00, -1.00, 563.0, 223.8)">f</text><text xml:space="preserve" font-family="ArialMT,Arial" font-size="22.0" fill="#333333" transform="matrix(1.00, 0.00, -0.00, -1.00, 569.2, 223.8)">a</text><text xml:space="preserve" font-family="ArialMT,Arial" font-size="22.0" fill="#333333" transform="matrix(1.00, 0.00, -0.00, -1.00, 581.4, 223.8)">v</text><text xml:space="preserve" font-family="ArialMT,Arial" font-size="22.0" fill="#333333" transform="matrix(1.00, 0.00, -0.00, -1.00, 592.4, 223.8)">o</text><text xml:space="preserve" font-family="ArialMT,Arial" font-size="22.0" fill="#333333" transform="matrix(1.00, 0.00, -0.00, -1.00, 604.6, 223.8)">r</text><text xml:space="preserve" font-family="ArialMT,Arial" font-size="22.0" fill="#333333" transform="matrix(1.00, 0.00, -0.00, -1.00, 612.0, 223.8)"> </text><text xml:space="preserve" font-family="ArialMT,Arial" font-size="22.0" fill="#333333" transform="matrix(1.00, 0.00, -0.00, -1.00, 618.1, 223.8)">o</text><text xml:space="preserve" font-family="ArialMT,Arial" font-size="22.0" fill="#333333" transform="matrix(1.00, 0.00, -0.00, -1.00, 630.3, 223.8)">f</text><text xml:space="preserve" font-family="ArialMT,Arial" font-size="22.0" fill="#333333" transform="matrix(1.00, 0.00, -0.00, -1.00, 636.4, 223.8)"> </text><text xml:space="preserve" font-family="ArialMT,Arial" font-size="22.0" fill="#333333" transform="matrix(1.00, 0.00, -0.00, -1.00, 642.5, 223.8)">o</text><text xml:space="preserve" font-family="ArialMT,Arial" font-size="22.0" fill="#333333" transform="matrix(1.00, 0.00, -0.00, -1.00, 654.8, 223.8)">t</text><text xml:space="preserve" font-family="ArialMT,Arial" font-size="22.0" fill="#333333" transform="matrix(1.00, 0.00, -0.00, -1.00, 660.9, 223.8)">h</text><text xml:space="preserve" font-family="ArialMT,Arial" font-size="22.0" fill="#333333" transform="matrix(1.00, 0.00, -0.00, -1.00, 673.1, 223.8)">e</text><text xml:space="preserve" font-family="ArialMT,Arial" font-size="22.0" fill="#333333" transform="matrix(1.00, 0.00, -0.00, -1.00, 685.4, 223.8)">r</text><text xml:space="preserve" font-family="ArialMT,Arial" font-size="22.0" fill="#333333" transform="matrix(1.00, 0.00, -0.00, -1.00, 692.7, 223.8)"> </text><text xml:space="preserve" font-family="ArialMT,Arial" font-size="22.0" fill="#333333" transform="matrix(1.00, 0.00, -0.00, -1.00, 54.2, 197.8)">c</text><text xml:space="preserve" font-family="ArialMT,Arial" font-size="22.0" fill="#333333" transform="matrix(1.00, 0.00, -0.00, -1.00, 65.2, 197.8)">o</text><text xml:space="preserve" font-family="ArialMT,Arial" font-size="22.0" fill="#333333" transform="matrix(1.00, 0.00, -0.00, -1.00, 77.4, 197.8)">m</text><text xml:space="preserve" font-family="ArialMT,Arial" font-size="22.0" fill="#333333" transform="matrix(1.00, 0.00, -0.00, -1.00, 95.8, 197.8)">p</text><text xml:space="preserve" font-family="ArialMT,Arial" font-size="22.0" fill="#333333" transform="matrix(1.00, 0.00, -0.00, -1.00, 108.0, 197.8)">a</text><text xml:space="preserve" font-family="ArialMT,Arial" font-size="22.0" fill="#333333" transform="matrix(1.00, 0.00, -0.00, -1.00, 120.2, 197.8)">t</text><text xml:space="preserve" font-family="ArialMT,Arial" font-size="22.0" fill="#333333" transform="matrix(1.00, 0.00, -0.00, -1.00, 126.3, 197.8)">i</text><text xml:space="preserve" font-family="ArialMT,Arial" font-size="22.0" fill="#333333" transform="matrix(1.00, 0.00, -0.00, -1.00, 131.2, 197.8)">b</text><text xml:space="preserve" font-family="ArialMT,Arial" font-size="22.0" fill="#333333" transform="matrix(1.00, 0.00, -0.00, -1.00, 143.5, 197.8)">l</text><text xml:space="preserve" font-family="ArialMT,Arial" font-size="22.0" fill="#333333" transform="matrix(1.00, 0.00, -0.00, -1.00, 148.4, 197.8)">e</text><text xml:space="preserve" font-family="ArialMT,Arial" font-size="22.0" fill="#333333" transform="matrix(1.00, 0.00, -0.00, -1.00, 160.6, 197.8)"> </text><text xml:space="preserve" font-family="ArialMT,Arial" font-size="22.0" fill="#333333" transform="matrix(1.00, 0.00, -0.00, -1.00, 166.7, 197.8)">l</text><text xml:space="preserve" font-family="ArialMT,Arial" font-size="22.0" fill="#333333" transform="matrix(1.00, 0.00, -0.00, -1.00, 171.6, 197.8)">i</text><text xml:space="preserve" font-family="ArialMT,Arial" font-size="22.0" fill="#333333" transform="matrix(1.00, 0.00, -0.00, -1.00, 176.5, 197.8)">b</text><text xml:space="preserve" font-family="ArialMT,Arial" font-size="22.0" fill="#333333" transform="matrix(1.00, 0.00, -0.00, -1.00, 188.7, 197.8)">r</text><text xml:space="preserve" font-family="ArialMT,Arial" font-size="22.0" fill="#333333" transform="matrix(1.00, 0.00, -0.00, -1.00, 196.1, 197.8)">a</text><text xml:space="preserve" font-family="ArialMT,Arial" font-size="22.0" fill="#333333" transform="matrix(1.00, 0.00, -0.00, -1.00, 208.3, 197.8)">r</text><text xml:space="preserve" font-family="ArialMT,Arial" font-size="22.0" fill="#333333" transform="matrix(1.00, 0.00, -0.00, -1.00, 215.6, 197.8)">i</text><text xml:space="preserve" font-family="ArialMT,Arial" font-size="22.0" fill="#333333" transform="matrix(1.00, 0.00, -0.00, -1.00, 220.5, 197.8)">e</text><text xml:space="preserve" font-family="ArialMT,Arial" font-size="22.0" fill="#333333" transform="matrix(1.00, 0.00, -0.00, -1.00, 232.8, 197.8)">s</text><text xml:space="preserve" font-family="ArialMT,Arial" font-size="22.0" fill="#333333" transform="matrix(1.00, 0.00, -0.00, -1.00, 243.7, 197.8)"> </text><text xml:space="preserve" font-family="ArialMT,Arial" font-size="18.0" fill="#333333" transform="matrix(1.00, 0.00, -0.00, -1.00, 63.2, 170.6)">•</text><text xml:space="preserve" font-family="ArialMT,Arial" font-size="18.0" fill="#333333" transform="matrix(1.00, 0.00, -0.00, -1.00, 90.2, 170.6)">L</text><text xml:space="preserve" font-family="ArialMT,Arial" font-size="18.0" fill="#333333" transform="matrix(1.00, 0.00, -0.00, -1.00, 100.2, 170.6)">i</text><text xml:space="preserve" font-family="ArialMT,Arial" font-size="18.0" fill="#333333" transform="matrix(1.00, 0.00, -0.00, -1.00, 104.2, 170.6)">k</text><text xml:space="preserve" font-family="ArialMT,Arial" font-size="18.0" fill="#333333" transform="matrix(1.00, 0.00, -0.00, -1.00, 113.2, 170.6)">e</text><text xml:space="preserve" font-family="ArialMT,Arial" font-size="18.0" fill="#333333" transform="matrix(1.00, 0.00, -0.00, -1.00, 123.2, 170.6)"> </text><text xml:space="preserve" font-family="ArialMT,Arial" font-size="18.0" fill="#333333" transform="matrix(1.00, 0.00, -0.00, -1.00, 127.2, 170.6)">A</text><text xml:space="preserve" font-family="ArialMT,Arial" font-size="18.0" fill="#333333" transform="matrix(1.00, 0.00, -0.00, -1.00, 139.2, 170.6)">p</text><text xml:space="preserve" font-family="ArialMT,Arial" font-size="18.0" fill="#333333" transform="matrix(1.00, 0.00, -0.00, -1.00, 149.2, 170.6)">p</text><text xml:space="preserve" font-family="ArialMT,Arial" font-size="18.0" fill="#333333" transform="matrix(1.00, 0.00, -0.00, -1.00, 159.3, 170.6)">i</text><text xml:space="preserve" font-family="ArialMT,Arial" font-size="18.0" fill="#333333" transform="matrix(1.00, 0.00, -0.00, -1.00, 163.3, 170.6)">u</text><text xml:space="preserve" font-family="ArialMT,Arial" font-size="18.0" fill="#333333" transform="matrix(1.00, 0.00, -0.00, -1.00, 173.3, 170.6)">m</text><text xml:space="preserve" font-family="ArialMT,Arial" font-size="18.0" fill="#333333" transform="matrix(1.00, 0.00, -0.00, -1.00, 188.3, 170.6)">!</text><text xml:space="preserve" font-family="ArialMT,Arial" font-size="12.0" fill="#333333" transform="matrix(1.00, 0.00, -0.00, -1.00, 680.0, 10.0)">1</text><text xml:space="preserve" font-family="ArialMT,Arial" font-size="12.0" fill="#333333" transform="matrix(1.00, 0.00, -0.00, -1.00, 686.7, 10.0)">6</text></g></svg>