<?xml version="1.0" encoding="UTF-8" standalone="no"?><svg xmlns="http://www.w3.org/2000/svg" xmlns:xlink="http://www.w3.org/1999/xlink" clip-rule="evenodd" stroke-miterlimit="10" viewBox="0 0 720 405"><desc>SVG generated by Keynote</desc><defs></defs><g transform="matrix(1.00, 0.00, -0.00, -1.00, 0.0, 405.0)"><path d="M 0.0 405.0 L 720.0 405.0 L 720.0 0.0 L 0.0 0.0 Z M 0.0 405.0 " fill="#FFFFFF"></path><image xlink:href="../../22F37CDA-977A-4F5F-AC8F-7B619332684C/assets/CF5371EDAD41EE4A4DDAC6FB5B300F29.png" width="1920.00" height="108.00" transform="matrix(0.38, 0.00, -0.00, -0.07, 0.0, 405.0)"></image><image xlink:href="../../22F37CDA-977A-4F5F-AC8F-7B619332684C/assets/835323990485373A14BF16A2D952197A.png" width="182.00" height="160.00" transform="matrix(0.37, 0.00, -0.00, -0.37, 642.0, 405.0)"></image><text xml:space="preserve" font-family="Arial-BoldMT,Arial" font-weight="bold" font-size="24.0" fill="#333333" transform="matrix(1.00, 0.00, -0.00, -1.00, 27.4, 363.9)">#</text><text xml:space="preserve" font-family="Arial-BoldMT,Arial" font-weight="bold" font-size="24.0" fill="#333333" transform="matrix(1.00, 0.00, -0.00, -1.00, 40.7, 363.9)">1</text><text xml:space="preserve" font-family="ArialMT,Arial" font-size="22.0" fill="#333333" transform="matrix(1.00, 0.00, -0.00, -1.00, 27.2, 312.4)">•</text><text xml:space="preserve" font-family="Arial-ItalicMT,Arial" font-style="italic" font-size="22.0" fill="#333333" transform="matrix(1.00, 0.00, -0.00, -1.00, 54.2, 312.4)">Y</text><text xml:space="preserve" font-family="Arial-ItalicMT,Arial" font-style="italic" font-size="22.0" fill="#333333" transform="matrix(1.00, 0.00, -0.00, -1.00, 67.6, 312.4)">o</text><text xml:space="preserve" font-family="Arial-ItalicMT,Arial" font-style="italic" font-size="22.0" fill="#333333" transform="matrix(1.00, 0.00, -0.00, -1.00, 79.9, 312.4)">u</text><text xml:space="preserve" font-family="Arial-ItalicMT,Arial" font-style="italic" font-size="22.0" fill="#333333" transform="matrix(1.00, 0.00, -0.00, -1.00, 92.1, 312.4)"> </text><text xml:space="preserve" font-family="Arial-ItalicMT,Arial" font-style="italic" font-size="22.0" fill="#333333" transform="matrix(1.00, 0.00, -0.00, -1.00, 98.2, 312.4)">s</text><text xml:space="preserve" font-family="Arial-ItalicMT,Arial" font-style="italic" font-size="22.0" fill="#333333" transform="matrix(1.00, 0.00, -0.00, -1.00, 109.2, 312.4)">h</text><text xml:space="preserve" font-family="Arial-ItalicMT,Arial" font-style="italic" font-size="22.0" fill="#333333" transform="matrix(1.00, 0.00, -0.00, -1.00, 121.5, 312.4)">o</text><text xml:space="preserve" font-family="Arial-ItalicMT,Arial" font-style="italic" font-size="22.0" fill="#333333" transform="matrix(1.00, 0.00, -0.00, -1.00, 133.7, 312.4)">u</text><text xml:space="preserve" font-family="Arial-ItalicMT,Arial" font-style="italic" font-size="22.0" fill="#333333" transform="matrix(1.00, 0.00, -0.00, -1.00, 146.0, 312.4)">l</text><text xml:space="preserve" font-family="Arial-ItalicMT,Arial" font-style="italic" font-size="22.0" fill="#333333" transform="matrix(1.00, 0.00, -0.00, -1.00, 150.8, 312.4)">d</text><text xml:space="preserve" font-family="Arial-ItalicMT,Arial" font-style="italic" font-size="22.0" fill="#333333" transform="matrix(1.00, 0.00, -0.00, -1.00, 163.1, 312.4)">n</text><text xml:space="preserve" font-family="Arial-ItalicMT,Arial" font-style="italic" font-size="22.0" fill="#333333" transform="matrix(1.00, 0.00, -0.00, -1.00, 175.3, 312.4)">’</text><text xml:space="preserve" font-family="Arial-ItalicMT,Arial" font-style="italic" font-size="22.0" fill="#333333" transform="matrix(1.00, 0.00, -0.00, -1.00, 180.2, 312.4)">t</text><text xml:space="preserve" font-family="Arial-ItalicMT,Arial" font-style="italic" font-size="22.0" fill="#333333" transform="matrix(1.00, 0.00, -0.00, -1.00, 186.3, 312.4)"> </text><text xml:space="preserve" font-family="Arial-ItalicMT,Arial" font-style="italic" font-size="22.0" fill="#333333" transform="matrix(1.00, 0.00, -0.00, -1.00, 192.4, 312.4)">h</text><text xml:space="preserve" font-family="Arial-ItalicMT,Arial" font-style="italic" font-size="22.0" fill="#333333" transform="matrix(1.00, 0.00, -0.00, -1.00, 204.7, 312.4)">a</text><text xml:space="preserve" font-family="Arial-ItalicMT,Arial" font-style="italic" font-size="22.0" fill="#333333" transform="matrix(1.00, 0.00, -0.00, -1.00, 216.9, 312.4)">v</text><text xml:space="preserve" font-family="Arial-ItalicMT,Arial" font-style="italic" font-size="22.0" fill="#333333" transform="matrix(1.00, 0.00, -0.00, -1.00, 227.9, 312.4)">e</text><text xml:space="preserve" font-family="Arial-ItalicMT,Arial" font-style="italic" font-size="22.0" fill="#333333" transform="matrix(1.00, 0.00, -0.00, -1.00, 240.2, 312.4)"> </text><text xml:space="preserve" font-family="Arial-ItalicMT,Arial" font-style="italic" font-size="22.0" fill="#333333" transform="matrix(1.00, 0.00, -0.00, -1.00, 246.3, 312.4)">t</text><text xml:space="preserve" font-family="Arial-ItalicMT,Arial" font-style="italic" font-size="22.0" fill="#333333" transform="matrix(1.00, 0.00, -0.00, -1.00, 252.4, 312.4)">o</text><text xml:space="preserve" font-family="Arial-ItalicMT,Arial" font-style="italic" font-size="22.0" fill="#333333" transform="matrix(1.00, 0.00, -0.00, -1.00, 264.6, 312.4)"> </text><text xml:space="preserve" font-family="Arial-ItalicMT,Arial" font-style="italic" font-size="22.0" fill="#333333" transform="matrix(1.00, 0.00, -0.00, -1.00, 270.7, 312.4)">r</text><text xml:space="preserve" font-family="Arial-ItalicMT,Arial" font-style="italic" font-size="22.0" fill="#333333" transform="matrix(1.00, 0.00, -0.00, -1.00, 278.0, 312.4)">e</text><text xml:space="preserve" font-family="Arial-ItalicMT,Arial" font-style="italic" font-size="22.0" fill="#333333" transform="matrix(1.00, 0.00, -0.00, -1.00, 290.3, 312.4)">c</text><text xml:space="preserve" font-family="Arial-ItalicMT,Arial" font-style="italic" font-size="22.0" fill="#333333" transform="matrix(1.00, 0.00, -0.00, -1.00, 301.3, 312.4)">o</text><text xml:space="preserve" font-family="Arial-ItalicMT,Arial" font-style="italic" font-size="22.0" fill="#333333" transform="matrix(1.00, 0.00, -0.00, -1.00, 313.5, 312.4)">m</text><text xml:space="preserve" font-family="Arial-ItalicMT,Arial" font-style="italic" font-size="22.0" fill="#333333" transform="matrix(1.00, 0.00, -0.00, -1.00, 331.8, 312.4)">p</text><text xml:space="preserve" font-family="Arial-ItalicMT,Arial" font-style="italic" font-size="22.0" fill="#333333" transform="matrix(1.00, 0.00, -0.00, -1.00, 344.1, 312.4)">i</text><text xml:space="preserve" font-family="Arial-ItalicMT,Arial" font-style="italic" font-size="22.0" fill="#333333" transform="matrix(1.00, 0.00, -0.00, -1.00, 349.0, 312.4)">l</text><text xml:space="preserve" font-family="Arial-ItalicMT,Arial" font-style="italic" font-size="22.0" fill="#333333" transform="matrix(1.00, 0.00, -0.00, -1.00, 353.9, 312.4)">e</text><text xml:space="preserve" font-family="Arial-ItalicMT,Arial" font-style="italic" font-size="22.0" fill="#333333" transform="matrix(1.00, 0.00, -0.00, -1.00, 366.1, 312.4)"> </text><text xml:space="preserve" font-family="Arial-ItalicMT,Arial" font-style="italic" font-size="22.0" fill="#333333" transform="matrix(1.00, 0.00, -0.00, -1.00, 372.2, 312.4)">y</text><text xml:space="preserve" font-family="Arial-ItalicMT,Arial" font-style="italic" font-size="22.0" fill="#333333" transform="matrix(1.00, 0.00, -0.00, -1.00, 383.2, 312.4)">o</text><text xml:space="preserve" font-family="Arial-ItalicMT,Arial" font-style="italic" font-size="22.0" fill="#333333" transform="matrix(1.00, 0.00, -0.00, -1.00, 395.5, 312.4)">u</text><text xml:space="preserve" font-family="Arial-ItalicMT,Arial" font-style="italic" font-size="22.0" fill="#333333" transform="matrix(1.00, 0.00, -0.00, -1.00, 407.7, 312.4)">r</text><text xml:space="preserve" font-family="Arial-ItalicMT,Arial" font-style="italic" font-size="22.0" fill="#333333" transform="matrix(1.00, 0.00, -0.00, -1.00, 415.0, 312.4)"> </text><text xml:space="preserve" font-family="Arial-ItalicMT,Arial" font-style="italic" font-size="22.0" fill="#333333" transform="matrix(1.00, 0.00, -0.00, -1.00, 421.1, 312.4)">a</text><text xml:space="preserve" font-family="Arial-ItalicMT,Arial" font-style="italic" font-size="22.0" fill="#333333" transform="matrix(1.00, 0.00, -0.00, -1.00, 433.4, 312.4)">p</text><text xml:space="preserve" font-family="Arial-ItalicMT,Arial" font-style="italic" font-size="22.0" fill="#333333" transform="matrix(1.00, 0.00, -0.00, -1.00, 445.6, 312.4)">p</text><text xml:space="preserve" font-family="Arial-ItalicMT,Arial" font-style="italic" font-size="22.0" fill="#333333" transform="matrix(1.00, 0.00, -0.00, -1.00, 457.9, 312.4)"> </text><text xml:space="preserve" font-family="Arial-ItalicMT,Arial" font-style="italic" font-size="22.0" fill="#333333" transform="matrix(1.00, 0.00, -0.00, -1.00, 464.0, 312.4)">o</text><text xml:space="preserve" font-family="Arial-ItalicMT,Arial" font-style="italic" font-size="22.0" fill="#333333" transform="matrix(1.00, 0.00, -0.00, -1.00, 476.2, 312.4)">r</text><text xml:space="preserve" font-family="Arial-ItalicMT,Arial" font-style="italic" font-size="22.0" fill="#333333" transform="matrix(1.00, 0.00, -0.00, -1.00, 483.5, 312.4)"> </text><text xml:space="preserve" font-family="Arial-ItalicMT,Arial" font-style="italic" font-size="22.0" fill="#333333" transform="matrix(1.00, 0.00, -0.00, -1.00, 489.6, 312.4)">m</text><text xml:space="preserve" font-family="Arial-ItalicMT,Arial" font-style="italic" font-size="22.0" fill="#333333" transform="matrix(1.00, 0.00, -0.00, -1.00, 508.0, 312.4)">o</text><text xml:space="preserve" font-family="Arial-ItalicMT,Arial" font-style="italic" font-size="22.0" fill="#333333" transform="matrix(1.00, 0.00, -0.00, -1.00, 520.2, 312.4)">d</text><text xml:space="preserve" font-family="Arial-ItalicMT,Arial" font-style="italic" font-size="22.0" fill="#333333" transform="matrix(1.00, 0.00, -0.00, -1.00, 532.4, 312.4)">i</text><text xml:space="preserve" font-family="Arial-ItalicMT,Arial" font-style="italic" font-size="22.0" fill="#333333" transform="matrix(1.00, 0.00, -0.00, -1.00, 537.3, 312.4)">f</text><text xml:space="preserve" font-family="Arial-ItalicMT,Arial" font-style="italic" font-size="22.0" fill="#333333" transform="matrix(1.00, 0.00, -0.00, -1.00, 543.4, 312.4)">y</text><text xml:space="preserve" font-family="Arial-ItalicMT,Arial" font-style="italic" font-size="22.0" fill="#333333" transform="matrix(1.00, 0.00, -0.00, -1.00, 554.4, 312.4)"> </text><text xml:space="preserve" font-family="Arial-ItalicMT,Arial" font-style="italic" font-size="22.0" fill="#333333" transform="matrix(1.00, 0.00, -0.00, -1.00, 560.5, 312.4)">i</text><text xml:space="preserve" font-family="Arial-ItalicMT,Arial" font-style="italic" font-size="22.0" fill="#333333" transform="matrix(1.00, 0.00, -0.00, -1.00, 565.4, 312.4)">t</text><text xml:space="preserve" font-family="Arial-ItalicMT,Arial" font-style="italic" font-size="22.0" fill="#333333" transform="matrix(1.00, 0.00, -0.00, -1.00, 571.5, 312.4)"> </text><text xml:space="preserve" font-family="Arial-ItalicMT,Arial" font-style="italic" font-size="22.0" fill="#333333" transform="matrix(1.00, 0.00, -0.00, -1.00, 577.7, 312.4)">i</text><text xml:space="preserve" font-family="Arial-ItalicMT,Arial" font-style="italic" font-size="22.0" fill="#333333" transform="matrix(1.00, 0.00, -0.00, -1.00, 582.5, 312.4)">n</text><text xml:space="preserve" font-family="Arial-ItalicMT,Arial" font-style="italic" font-size="22.0" fill="#333333" transform="matrix(1.00, 0.00, -0.00, -1.00, 594.8, 312.4)"> </text><text xml:space="preserve" font-family="Arial-ItalicMT,Arial" font-style="italic" font-size="22.0" fill="#333333" transform="matrix(1.00, 0.00, -0.00, -1.00, 600.9, 312.4)">a</text><text xml:space="preserve" font-family="Arial-ItalicMT,Arial" font-style="italic" font-size="22.0" fill="#333333" transform="matrix(1.00, 0.00, -0.00, -1.00, 613.1, 312.4)">n</text><text xml:space="preserve" font-family="Arial-ItalicMT,Arial" font-style="italic" font-size="22.0" fill="#333333" transform="matrix(1.00, 0.00, -0.00, -1.00, 625.4, 312.4)">y</text><text xml:space="preserve" font-family="Arial-ItalicMT,Arial" font-style="italic" font-size="22.0" fill="#333333" transform="matrix(1.00, 0.00, -0.00, -1.00, 636.4, 312.4)"> </text><text xml:space="preserve" font-family="Arial-ItalicMT,Arial" font-style="italic" font-size="22.0" fill="#333333" transform="matrix(1.00, 0.00, -0.00, -1.00, 642.5, 312.4)">w</text><text xml:space="preserve" font-family="Arial-ItalicMT,Arial" font-style="italic" font-size="22.0" fill="#333333" transform="matrix(1.00, 0.00, -0.00, -1.00, 658.4, 312.4)">a</text><text xml:space="preserve" font-family="Arial-ItalicMT,Arial" font-style="italic" font-size="22.0" fill="#333333" transform="matrix(1.00, 0.00, -0.00, -1.00, 670.6, 312.4)">y</text><text xml:space="preserve" font-family="Arial-ItalicMT,Arial" font-style="italic" font-size="22.0" fill="#333333" transform="matrix(1.00, 0.00, -0.00, -1.00, 681.6, 312.4)"> </text><text xml:space="preserve" font-family="Arial-ItalicMT,Arial" font-style="italic" font-size="22.0" fill="#333333" transform="matrix(1.00, 0.00, -0.00, -1.00, 54.2, 286.4)">i</text><text xml:space="preserve" font-family="Arial-ItalicMT,Arial" font-style="italic" font-size="22.0" fill="#333333" transform="matrix(1.00, 0.00, -0.00, -1.00, 59.1, 286.4)">n</text><text xml:space="preserve" font-family="Arial-ItalicMT,Arial" font-style="italic" font-size="22.0" fill="#333333" transform="matrix(1.00, 0.00, -0.00, -1.00, 71.3, 286.4)"> </text><text xml:space="preserve" font-family="Arial-ItalicMT,Arial" font-style="italic" font-size="22.0" fill="#333333" transform="matrix(1.00, 0.00, -0.00, -1.00, 77.4, 286.4)">o</text><text xml:space="preserve" font-family="Arial-ItalicMT,Arial" font-style="italic" font-size="22.0" fill="#333333" transform="matrix(1.00, 0.00, -0.00, -1.00, 89.7, 286.4)">r</text><text xml:space="preserve" font-family="Arial-ItalicMT,Arial" font-style="italic" font-size="22.0" fill="#333333" transform="matrix(1.00, 0.00, -0.00, -1.00, 97.0, 286.4)">d</text><text xml:space="preserve" font-family="Arial-ItalicMT,Arial" font-style="italic" font-size="22.0" fill="#333333" transform="matrix(1.00, 0.00, -0.00, -1.00, 109.2, 286.4)">e</text><text xml:space="preserve" font-family="Arial-ItalicMT,Arial" font-style="italic" font-size="22.0" fill="#333333" transform="matrix(1.00, 0.00, -0.00, -1.00, 121.5, 286.4)">r</text><text xml:space="preserve" font-family="Arial-ItalicMT,Arial" font-style="italic" font-size="22.0" fill="#333333" transform="matrix(1.00, 0.00, -0.00, -1.00, 128.8, 286.4)"> </text><text xml:space="preserve" font-family="Arial-ItalicMT,Arial" font-style="italic" font-size="22.0" fill="#333333" transform="matrix(1.00, 0.00, -0.00, -1.00, 134.9, 286.4)">t</text><text xml:space="preserve" font-family="Arial-ItalicMT,Arial" font-style="italic" font-size="22.0" fill="#333333" transform="matrix(1.00, 0.00, -0.00, -1.00, 141.0, 286.4)">o</text><text xml:space="preserve" font-family="Arial-ItalicMT,Arial" font-style="italic" font-size="22.0" fill="#333333" transform="matrix(1.00, 0.00, -0.00, -1.00, 153.3, 286.4)"> </text><text xml:space="preserve" font-family="Arial-ItalicMT,Arial" font-style="italic" font-size="22.0" fill="#333333" transform="matrix(1.00, 0.00, -0.00, -1.00, 159.4, 286.4)">a</text><text xml:space="preserve" font-family="Arial-ItalicMT,Arial" font-style="italic" font-size="22.0" fill="#333333" transform="matrix(1.00, 0.00, -0.00, -1.00, 171.6, 286.4)">u</text><text xml:space="preserve" font-family="Arial-ItalicMT,Arial" font-style="italic" font-size="22.0" fill="#333333" transform="matrix(1.00, 0.00, -0.00, -1.00, 183.8, 286.4)">t</text><text xml:space="preserve" font-family="Arial-ItalicMT,Arial" font-style="italic" font-size="22.0" fill="#333333" transform="matrix(1.00, 0.00, -0.00, -1.00, 189.9, 286.4)">o</text><text xml:space="preserve" font-family="Arial-ItalicMT,Arial" font-style="italic" font-size="22.0" fill="#333333" transform="matrix(1.00, 0.00, -0.00, -1.00, 202.2, 286.4)">m</text><text xml:space="preserve" font-family="Arial-ItalicMT,Arial" font-style="italic" font-size="22.0" fill="#333333" transform="matrix(1.00, 0.00, -0.00, -1.00, 220.5, 286.4)">a</text><text xml:space="preserve" font-family="Arial-ItalicMT,Arial" font-style="italic" font-size="22.0" fill="#333333" transform="matrix(1.00, 0.00, -0.00, -1.00, 232.8, 286.4)">t</text><text xml:space="preserve" font-family="Arial-ItalicMT,Arial" font-style="italic" font-size="22.0" fill="#333333" transform="matrix(1.00, 0.00, -0.00, -1.00, 238.9, 286.4)">e</text><text xml:space="preserve" font-family="Arial-ItalicMT,Arial" font-style="italic" font-size="22.0" fill="#333333" transform="matrix(1.00, 0.00, -0.00, -1.00, 251.1, 286.4)"> </text><text xml:space="preserve" font-family="Arial-ItalicMT,Arial" font-style="italic" font-size="22.0" fill="#333333" transform="matrix(1.00, 0.00, -0.00, -1.00, 257.2, 286.4)">i</text><text xml:space="preserve" font-family="Arial-ItalicMT,Arial" font-style="italic" font-size="22.0" fill="#333333" transform="matrix(1.00, 0.00, -0.00, -1.00, 262.1, 286.4)">t</text><text xml:space="preserve" font-family="Arial-ItalicMT,Arial" font-style="italic" font-size="22.0" fill="#333333" transform="matrix(1.00, 0.00, -0.00, -1.00, 268.2, 286.4)">.</text><text xml:space="preserve" font-family="Arial-ItalicMT,Arial" font-style="italic" font-size="22.0" fill="#333333" transform="matrix(1.00, 0.00, -0.00, -1.00, 274.3, 286.4)"> </text><text xml:space="preserve" font-family="ArialMT,Arial" font-size="22.0" fill="#333333" transform="matrix(1.00, 0.00, -0.00, -1.00, 63.2, 223.8)">•</text><text xml:space="preserve" font-family="ArialMT,Arial" font-size="22.0" fill="#333333" transform="matrix(1.00, 0.00, -0.00, -1.00, 90.2, 223.8)">U</text><text xml:space="preserve" font-family="ArialMT,Arial" font-size="22.0" fill="#333333" transform="matrix(1.00, 0.00, -0.00, -1.00, 106.1, 223.8)">s</text><text xml:space="preserve" font-family="ArialMT,Arial" font-size="22.0" fill="#333333" transform="matrix(1.00, 0.00, -0.00, -1.00, 117.1, 223.8)">e</text><text xml:space="preserve" font-family="ArialMT,Arial" font-size="22.0" fill="#333333" transform="matrix(1.00, 0.00, -0.00, -1.00, 129.3, 223.8)"> </text><text xml:space="preserve" font-family="ArialMT,Arial" font-size="22.0" fill="#333333" transform="matrix(1.00, 0.00, -0.00, -1.00, 135.4, 223.8)">v</text><text xml:space="preserve" font-family="ArialMT,Arial" font-size="22.0" fill="#333333" transform="matrix(1.00, 0.00, -0.00, -1.00, 146.4, 223.8)">e</text><text xml:space="preserve" font-family="ArialMT,Arial" font-size="22.0" fill="#333333" transform="matrix(1.00, 0.00, -0.00, -1.00, 158.7, 223.8)">n</text><text xml:space="preserve" font-family="ArialMT,Arial" font-size="22.0" fill="#333333" transform="matrix(1.00, 0.00, -0.00, -1.00, 170.9, 223.8)">d</text><text xml:space="preserve" font-family="ArialMT,Arial" font-size="22.0" fill="#333333" transform="matrix(1.00, 0.00, -0.00, -1.00, 183.1, 223.8)">o</text><text xml:space="preserve" font-family="ArialMT,Arial" font-size="22.0" fill="#333333" transform="matrix(1.00, 0.00, -0.00, -1.00, 195.4, 223.8)">r</text><text xml:space="preserve" font-family="ArialMT,Arial" font-size="22.0" fill="#333333" transform="matrix(1.00, 0.00, -0.00, -1.00, 202.7, 223.8)"> </text><text xml:space="preserve" font-family="ArialMT,Arial" font-size="22.0" fill="#333333" transform="matrix(1.00, 0.00, -0.00, -1.00, 208.8, 223.8)">p</text><text xml:space="preserve" font-family="ArialMT,Arial" font-size="22.0" fill="#333333" transform="matrix(1.00, 0.00, -0.00, -1.00, 221.1, 223.8)">r</text><text xml:space="preserve" font-family="ArialMT,Arial" font-size="22.0" fill="#333333" transform="matrix(1.00, 0.00, -0.00, -1.00, 228.4, 223.8)">o</text><text xml:space="preserve" font-family="ArialMT,Arial" font-size="22.0" fill="#333333" transform="matrix(1.00, 0.00, -0.00, -1.00, 240.6, 223.8)">v</text><text xml:space="preserve" font-family="ArialMT,Arial" font-size="22.0" fill="#333333" transform="matrix(1.00, 0.00, -0.00, -1.00, 251.6, 223.8)">i</text><text xml:space="preserve" font-family="ArialMT,Arial" font-size="22.0" fill="#333333" transform="matrix(1.00, 0.00, -0.00, -1.00, 256.5, 223.8)">d</text><text xml:space="preserve" font-family="ArialMT,Arial" font-size="22.0" fill="#333333" transform="matrix(1.00, 0.00, -0.00, -1.00, 268.8, 223.8)">e</text><text xml:space="preserve" font-family="ArialMT,Arial" font-size="22.0" fill="#333333" transform="matrix(1.00, 0.00, -0.00, -1.00, 281.0, 223.8)">d</text><text xml:space="preserve" font-family="ArialMT,Arial" font-size="22.0" fill="#333333" transform="matrix(1.00, 0.00, -0.00, -1.00, 293.2, 223.8)"> </text><text xml:space="preserve" font-family="ArialMT,Arial" font-size="22.0" fill="#333333" transform="matrix(1.00, 0.00, -0.00, -1.00, 299.3, 223.8)">a</text><text xml:space="preserve" font-family="ArialMT,Arial" font-size="22.0" fill="#333333" transform="matrix(1.00, 0.00, -0.00, -1.00, 311.6, 223.8)">u</text><text xml:space="preserve" font-family="ArialMT,Arial" font-size="22.0" fill="#333333" transform="matrix(1.00, 0.00, -0.00, -1.00, 323.8, 223.8)">t</text><text xml:space="preserve" font-family="ArialMT,Arial" font-size="22.0" fill="#333333" transform="matrix(1.00, 0.00, -0.00, -1.00, 329.9, 223.8)">o</text><text xml:space="preserve" font-family="ArialMT,Arial" font-size="22.0" fill="#333333" transform="matrix(1.00, 0.00, -0.00, -1.00, 342.2, 223.8)">m</text><text xml:space="preserve" font-family="ArialMT,Arial" font-size="22.0" fill="#333333" transform="matrix(1.00, 0.00, -0.00, -1.00, 360.5, 223.8)">a</text><text xml:space="preserve" font-family="ArialMT,Arial" font-size="22.0" fill="#333333" transform="matrix(1.00, 0.00, -0.00, -1.00, 372.7, 223.8)">t</text><text xml:space="preserve" font-family="ArialMT,Arial" font-size="22.0" fill="#333333" transform="matrix(1.00, 0.00, -0.00, -1.00, 378.8, 223.8)">i</text><text xml:space="preserve" font-family="ArialMT,Arial" font-size="22.0" fill="#333333" transform="matrix(1.00, 0.00, -0.00, -1.00, 383.7, 223.8)">o</text><text xml:space="preserve" font-family="ArialMT,Arial" font-size="22.0" fill="#333333" transform="matrix(1.00, 0.00, -0.00, -1.00, 396.0, 223.8)">n</text><text xml:space="preserve" font-family="ArialMT,Arial" font-size="22.0" fill="#333333" transform="matrix(1.00, 0.00, -0.00, -1.00, 408.2, 223.8)"> </text><text xml:space="preserve" font-family="ArialMT,Arial" font-size="22.0" fill="#333333" transform="matrix(1.00, 0.00, -0.00, -1.00, 414.3, 223.8)">f</text><text xml:space="preserve" font-family="ArialMT,Arial" font-size="22.0" fill="#333333" transform="matrix(1.00, 0.00, -0.00, -1.00, 420.4, 223.8)">r</text><text xml:space="preserve" font-family="ArialMT,Arial" font-size="22.0" fill="#333333" transform="matrix(1.00, 0.00, -0.00, -1.00, 427.8, 223.8)">a</text><text xml:space="preserve" font-family="ArialMT,Arial" font-size="22.0" fill="#333333" transform="matrix(1.00, 0.00, -0.00, -1.00, 440.0, 223.8)">m</text><text xml:space="preserve" font-family="ArialMT,Arial" font-size="22.0" fill="#333333" transform="matrix(1.00, 0.00, -0.00, -1.00, 458.3, 223.8)">e</text><text xml:space="preserve" font-family="ArialMT,Arial" font-size="22.0" fill="#333333" transform="matrix(1.00, 0.00, -0.00, -1.00, 470.6, 223.8)">w</text><text xml:space="preserve" font-family="ArialMT,Arial" font-size="22.0" fill="#333333" transform="matrix(1.00, 0.00, -0.00, -1.00, 486.5, 223.8)">o</text><text xml:space="preserve" font-family="ArialMT,Arial" font-size="22.0" fill="#333333" transform="matrix(1.00, 0.00, -0.00, -1.00, 498.7, 223.8)">r</text><text xml:space="preserve" font-family="ArialMT,Arial" font-size="22.0" fill="#333333" transform="matrix(1.00, 0.00, -0.00, -1.00, 506.0, 223.8)">k</text><text xml:space="preserve" font-family="ArialMT,Arial" font-size="22.0" fill="#333333" transform="matrix(1.00, 0.00, -0.00, -1.00, 517.0, 223.8)">s</text><text xml:space="preserve" font-family="ArialMT,Arial" font-size="22.0" fill="#333333" transform="matrix(1.00, 0.00, -0.00, -1.00, 528.0, 223.8)"> </text><text xml:space="preserve" font-family="ArialMT,Arial" font-size="22.0" fill="#333333" transform="matrix(1.00, 0.00, -0.00, -1.00, 534.1, 223.8)">l</text><text xml:space="preserve" font-family="ArialMT,Arial" font-size="22.0" fill="#333333" transform="matrix(1.00, 0.00, -0.00, -1.00, 539.0, 223.8)">i</text><text xml:space="preserve" font-family="ArialMT,Arial" font-size="22.0" fill="#333333" transform="matrix(1.00, 0.00, -0.00, -1.00, 543.9, 223.8)">k</text><text xml:space="preserve" font-family="ArialMT,Arial" font-size="22.0" fill="#333333" transform="matrix(1.00, 0.00, -0.00, -1.00, 554.9, 223.8)">e</text><text xml:space="preserve" font-family="ArialMT,Arial" font-size="22.0" fill="#333333" transform="matrix(1.00, 0.00, -0.00, -1.00, 567.2, 223.8)"> </text><text xml:space="preserve" font-family="ArialMT,Arial" font-size="22.0" fill="#333333" transform="matrix(1.00, 0.00, -0.00, -1.00, 90.2, 197.8)">U</text><text xml:space="preserve" font-family="ArialMT,Arial" font-size="22.0" fill="#333333" transform="matrix(1.00, 0.00, -0.00, -1.00, 106.1, 197.8)">I</text><text xml:space="preserve" font-family="ArialMT,Arial" font-size="22.0" fill="#333333" transform="matrix(1.00, 0.00, -0.00, -1.00, 112.2, 197.8)">A</text><text xml:space="preserve" font-family="ArialMT,Arial" font-size="22.0" fill="#333333" transform="matrix(1.00, 0.00, -0.00, -1.00, 126.9, 197.8)">u</text><text xml:space="preserve" font-family="ArialMT,Arial" font-size="22.0" fill="#333333" transform="matrix(1.00, 0.00, -0.00, -1.00, 139.1, 197.8)">t</text><text xml:space="preserve" font-family="ArialMT,Arial" font-size="22.0" fill="#333333" transform="matrix(1.00, 0.00, -0.00, -1.00, 145.2, 197.8)">o</text><text xml:space="preserve" font-family="ArialMT,Arial" font-size="22.0" fill="#333333" transform="matrix(1.00, 0.00, -0.00, -1.00, 157.4, 197.8)">m</text><text xml:space="preserve" font-family="ArialMT,Arial" font-size="22.0" fill="#333333" transform="matrix(1.00, 0.00, -0.00, -1.00, 175.8, 197.8)">a</text><text xml:space="preserve" font-family="ArialMT,Arial" font-size="22.0" fill="#333333" transform="matrix(1.00, 0.00, -0.00, -1.00, 188.0, 197.8)">t</text><text xml:space="preserve" font-family="ArialMT,Arial" font-size="22.0" fill="#333333" transform="matrix(1.00, 0.00, -0.00, -1.00, 194.1, 197.8)">i</text><text xml:space="preserve" font-family="ArialMT,Arial" font-size="22.0" fill="#333333" transform="matrix(1.00, 0.00, -0.00, -1.00, 199.0, 197.8)">o</text><text xml:space="preserve" font-family="ArialMT,Arial" font-size="22.0" fill="#333333" transform="matrix(1.00, 0.00, -0.00, -1.00, 211.3, 197.8)">n</text><text xml:space="preserve" font-family="ArialMT,Arial" font-size="22.0" fill="#333333" transform="matrix(1.00, 0.00, -0.00, -1.00, 223.5, 197.8)"> </text><text xml:space="preserve" font-family="ArialMT,Arial" font-size="22.0" fill="#333333" transform="matrix(1.00, 0.00, -0.00, -1.00, 229.6, 197.8)">o</text><text xml:space="preserve" font-family="ArialMT,Arial" font-size="22.0" fill="#333333" transform="matrix(1.00, 0.00, -0.00, -1.00, 241.8, 197.8)">n</text><text xml:space="preserve" font-family="ArialMT,Arial" font-size="22.0" fill="#333333" transform="matrix(1.00, 0.00, -0.00, -1.00, 254.1, 197.8)"> </text><text xml:space="preserve" font-family="ArialMT,Arial" font-size="22.0" fill="#333333" transform="matrix(1.00, 0.00, -0.00, -1.00, 260.2, 197.8)">i</text><text xml:space="preserve" font-family="ArialMT,Arial" font-size="22.0" fill="#333333" transform="matrix(1.00, 0.00, -0.00, -1.00, 265.1, 197.8)">O</text><text xml:space="preserve" font-family="ArialMT,Arial" font-size="22.0" fill="#333333" transform="matrix(1.00, 0.00, -0.00, -1.00, 282.2, 197.8)">S</text><text xml:space="preserve" font-family="ArialMT,Arial" font-size="22.0" fill="#333333" transform="matrix(1.00, 0.00, -0.00, -1.00, 296.9, 197.8)"> </text><text xml:space="preserve" font-family="ArialMT,Arial" font-size="22.0" fill="#333333" transform="matrix(1.00, 0.00, -0.00, -1.00, 303.0, 197.8)">a</text><text xml:space="preserve" font-family="ArialMT,Arial" font-size="22.0" fill="#333333" transform="matrix(1.00, 0.00, -0.00, -1.00, 315.2, 197.8)">n</text><text xml:space="preserve" font-family="ArialMT,Arial" font-size="22.0" fill="#333333" transform="matrix(1.00, 0.00, -0.00, -1.00, 327.5, 197.8)">d</text><text xml:space="preserve" font-family="ArialMT,Arial" font-size="22.0" fill="#333333" transform="matrix(1.00, 0.00, -0.00, -1.00, 339.7, 197.8)"> </text><text xml:space="preserve" font-family="ArialMT,Arial" font-size="22.0" fill="#333333" transform="matrix(1.00, 0.00, -0.00, -1.00, 345.8, 197.8)">U</text><text xml:space="preserve" font-family="ArialMT,Arial" font-size="22.0" fill="#333333" transform="matrix(1.00, 0.00, -0.00, -1.00, 361.7, 197.8)">i</text><text xml:space="preserve" font-family="ArialMT,Arial" font-size="22.0" fill="#333333" transform="matrix(1.00, 0.00, -0.00, -1.00, 366.6, 197.8)">A</text><text xml:space="preserve" font-family="ArialMT,Arial" font-size="22.0" fill="#333333" transform="matrix(1.00, 0.00, -0.00, -1.00, 381.3, 197.8)">u</text><text xml:space="preserve" font-family="ArialMT,Arial" font-size="22.0" fill="#333333" transform="matrix(1.00, 0.00, -0.00, -1.00, 393.5, 197.8)">t</text><text xml:space="preserve" font-family="ArialMT,Arial" font-size="22.0" fill="#333333" transform="matrix(1.00, 0.00, -0.00, -1.00, 399.6, 197.8)">o</text><text xml:space="preserve" font-family="ArialMT,Arial" font-size="22.0" fill="#333333" transform="matrix(1.00, 0.00, -0.00, -1.00, 411.8, 197.8)">m</text><text xml:space="preserve" font-family="ArialMT,Arial" font-size="22.0" fill="#333333" transform="matrix(1.00, 0.00, -0.00, -1.00, 430.2, 197.8)">a</text><text xml:space="preserve" font-family="ArialMT,Arial" font-size="22.0" fill="#333333" transform="matrix(1.00, 0.00, -0.00, -1.00, 442.4, 197.8)">t</text><text xml:space="preserve" font-family="ArialMT,Arial" font-size="22.0" fill="#333333" transform="matrix(1.00, 0.00, -0.00, -1.00, 448.5, 197.8)">o</text><text xml:space="preserve" font-family="ArialMT,Arial" font-size="22.0" fill="#333333" transform="matrix(1.00, 0.00, -0.00, -1.00, 460.8, 197.8)">r</text><text xml:space="preserve" font-family="ArialMT,Arial" font-size="22.0" fill="#333333" transform="matrix(1.00, 0.00, -0.00, -1.00, 468.1, 197.8)"> </text><text xml:space="preserve" font-family="ArialMT,Arial" font-size="22.0" fill="#333333" transform="matrix(1.00, 0.00, -0.00, -1.00, 474.2, 197.8)">o</text><text xml:space="preserve" font-family="ArialMT,Arial" font-size="22.0" fill="#333333" transform="matrix(1.00, 0.00, -0.00, -1.00, 486.4, 197.8)">n</text><text xml:space="preserve" font-family="ArialMT,Arial" font-size="22.0" fill="#333333" transform="matrix(1.00, 0.00, -0.00, -1.00, 498.7, 197.8)"> </text><text xml:space="preserve" font-family="ArialMT,Arial" font-size="22.0" fill="#333333" transform="matrix(1.00, 0.00, -0.00, -1.00, 503.6, 197.8)">A</text><text xml:space="preserve" font-family="ArialMT,Arial" font-size="22.0" fill="#333333" transform="matrix(1.00, 0.00, -0.00, -1.00, 518.2, 197.8)">n</text><text xml:space="preserve" font-family="ArialMT,Arial" font-size="22.0" fill="#333333" transform="matrix(1.00, 0.00, -0.00, -1.00, 530.5, 197.8)">d</text><text xml:space="preserve" font-family="ArialMT,Arial" font-size="22.0" fill="#333333" transform="matrix(1.00, 0.00, -0.00, -1.00, 542.7, 197.8)">r</text><text xml:space="preserve" font-family="ArialMT,Arial" font-size="22.0" fill="#333333" transform="matrix(1.00, 0.00, -0.00, -1.00, 550.0, 197.8)">o</text><text xml:space="preserve" font-family="ArialMT,Arial" font-size="22.0" fill="#333333" transform="matrix(1.00, 0.00, -0.00, -1.00, 562.3, 197.8)">i</text><text xml:space="preserve" font-family="ArialMT,Arial" font-size="22.0" fill="#333333" transform="matrix(1.00, 0.00, -0.00, -1.00, 567.2, 197.8)">d</text><text xml:space="preserve" font-family="ArialMT,Arial" font-size="12.0" fill="#333333" transform="matrix(1.00, 0.00, -0.00, -1.00, 686.7, 10.0)">7</text></g></svg>